ply
format ascii 1.0
comment VCGLIB generated
element vertex 441
property float x
property float y
property float z
property float nx
property float ny
property float nz
element face 806
property list uchar int vertex_indices
end_header
-0.3368 0.2338 2.285 0.1355679 0.9884351 0.06795143 
-0.5624 0.051 2.7208 -0.8981215 0.4206956 0.1280354 
0.2134 0.1362 5.3146 -0.8533593 0.428676 0.296673 
0.572 0.1908 5.5384 0.1140535 0.9934312 -0.009297032 
-0.3974 -0.238 2.7878 -0.661277 -0.7460949 0.07781421 
0.1746 -0.1136 5.2386 -0.6074807 -0.7697155 0.1962277 
-0.0792 -0.2338 2.4296 0.4399713 -0.8979894 -0.006356131 
0.4082 -0.1908 5.1572 0.4406843 -0.8868527 -0.1388871 
-0.0292 0.0934 2.327 0.9763206 0.2163037 -0.003289483 
0.691 -0.0112 5.4354 0.9462214 0.1651973 -0.2781635 
-0.3156 0.1778 -1.827 -0.5948446 0.2471347 -0.764908 
0.0238 0.2876 -1.8302 0.04739393 0.6484689 -0.7597644 
-0.0794 0 -1.829 -0.009307282 -0.000561421 -0.9999565 
-0.3182 -0.1778 -1.8268 -0.4226517 -0.4876972 -0.7638829 
0.0172 -0.2876 -1.8298 0.3392222 -0.5624167 -0.7540662 
0.2278 0 -1.832 0.6430178 0.1504549 -0.750927 
2.212 0.227 14.1008 0.1803488 0.6876334 0.7033026 
1.9942 0.058 14.111 -0.5785533 0.3571865 0.7332761 
2.2182 -0.0076 14.1004 0.04712918 0.0003351891 0.9988888 
2.0834 -0.2016 14.107 -0.4904716 -0.4654998 0.736714 
2.3618 -0.1932 14.0938 0.3205732 -0.6359404 0.7020062 
2.44 0.0718 14.09 0.726128 0.07251181 0.6837252 
2.2118 0.1498 12.732 -0.1889706 0.3979194 -0.8977474 
2.0674 0.0372 12.749 -0.4646128 0.02916077 -0.8850337 
1.7168 0.121 12.9356 -0.8668208 0.1678731 -0.4695109 
2.1696 0.4728 12.885 -0.140337 0.8557845 -0.4979343 
2.1262 -0.1356 12.7424 -0.2283599 -0.3711859 -0.9000404 
1.9006 -0.4198 12.9152 -0.4618283 -0.734216 -0.4976359 
2.3106 -0.13 12.7204 0.2706341 -0.2750112 -0.922565 
2.4782 -0.4022 12.8512 0.5396679 -0.6474125 -0.5381595 
2.3626 0.0464 12.7142 0.2922643 0.2531822 -0.922215 
2.6422 0.1494 12.8318 0.7626868 0.3559038 -0.5400384 
-0.4702 0.2794 0.4606 -0.9908522 0.1334843 -0.01984895 
-0.474 -0.2794 0.461 -0.4863998 -0.8732532 0.02905461 
0.0528 -0.452 0.456 0.6966026 -0.7034766 0.1409446 
0.3836 0 0.4526 0.866824 0.466214 0.1768069 
0.0632 0.452 0.4556 -0.1669924 0.9838585 0.06431225 
1.548 0.1964 8.38 0.05633388 0.9978862 -0.03239683 
1.7612 0.0728 8.2094 0.9415954 0.2001431 -0.2708151 
1.6498 -0.1264 8.0548 0.5210366 -0.8434314 -0.1309368 
1.5276 -0.1996 8.3044 -0.5372142 -0.8223713 0.1873668 
1.4066 0.028 8.4354 -0.9088121 0.3240483 0.26278 
2.18 0.1624 11.1948 0.1041158 0.994464 -0.01418573 
2.2968 0 11.1742 0.9763455 0.1825911 -0.1158017 
2.1496 -0.1624 10.8422 0.5103952 -0.8586122 -0.0477679 
1.9606 -0.1004 10.8766 -0.6105337 -0.7865982 0.09225916 
1.9912 0.1004 11.2284 -0.9159302 0.383471 0.1184144 
2.2118 0.1498 12.732 0.3717218 0.9282933 -0.009723729 
2.3626 0.0464 12.7142 0.9936817 -0.1006195 -0.04972403 
2.3106 -0.13 12.7204 0.2345454 -0.972058 -0.009575314 
2.1262 -0.1356 12.7424 -0.8462981 -0.529958 0.05407442 
2.0674 0.0372 12.749 -0.7655774 0.6410065 0.05479106 
-0.4702 0.2794 0.4606 -0.4356804 0.5327504 0.7255065 
0.0632 0.452 0.4556 0.4003671 0.609076 0.6846406 
0.168 0.8888 0.0056 0.3391041 0.9042618 0.2594591 
-0.881 0.5494 0.0158 -0.7548319 0.5974075 0.2708011 
-0.474 -0.2794 0.461 -0.6220763 -0.2606806 0.7382864 
-0.8884 -0.5494 0.0164 -0.7958467 -0.5460426 0.2616593 
0.0528 -0.452 0.456 0.07021329 -0.7078947 0.7028194 
0.1474 -0.8888 0.0066 0.2854274 -0.9281569 0.2388641 
0.3836 0 0.4526 0.7256768 -0.1792096 0.6642869 
0.798 0 0 0.9705535 -0.03098967 0.2388839 
4.0338 -1.3106 15.5428 -0.8778765 -0.4477517 0.1698564 
4.0974 -1.3366 15.283 -0.3802324 -0.8646125 -0.3284334 
5.3468 -1.4874 15.8662 -0.2662449 -0.5998148 0.7545435 
5.3332 -1.5126 15.6234 -0.05377756 -0.4914795 -0.8692273 
5.0598 -0.8338 15.9422 -0.0264975 0.2555585 0.9664305 
5.8956 -0.4244 15.7794 0.69396 0.3167301 0.6466078 
3.9046 -0.535 15.3294 -0.3809149 0.1411016 0.9137802 
5.032 -0.06 15.5822 -0.117368 0.7917629 0.5994467 
5.0702 -0.0846 15.3374 0.476799 0.6590908 -0.5816031 
5.7616 -0.464 15.507 0.5871841 -0.2470098 -0.7708444 
5.1014 -0.882 15.6526 0.3459185 -0.3288965 -0.8787306 
4.083 -0.6778 14.984 0.227198 -0.3166824 -0.9209198 
2.229 -0.1624 13.8202 0.128803 -0.1660145 -0.9776753 
2.2306 -0.1368 14.0082 -0.8180581 0.3032287 0.4887058 
3.3034 0.2772 14.1364 0.04198576 0.9045166 -0.4243666 
3.5756 0.0786 14.6638 -0.2348679 0.8569063 0.4588559 
2.8906 -0.9688 14.3508 -0.1007925 -0.8001544 -0.5912646 
2.7208 -1.0772 14.5678 -0.3690096 -0.9294123 -0.004973189 
3.2502 -0.435 14.4394 0.4150216 -0.3847887 -0.8244359 
3.0836 -0.328 14.7574 -0.5783521 0.2104623 0.7881716 
3.288 -0.9348 14.726 0.007431962 -0.983934 -0.1783779 
5.9896 -2.0432 15.6 -0.2971303 -0.954796 0.008845751 
5.886 -1.1772 15.568 -0.1622321 -0.05587051 -0.9851696 
7.1372 -1.6324 15.286 0.8519855 -0.2004205 -0.4836863 
5.95 -1.1482 15.85 0.2849695 0.03886928 0.9577482 
6.4134 -0.675 15.4172 0.1134423 0.9480665 -0.2971542 
3.9776 -1.3686 15.2476 0.3065784 -0.9264783 0.2182834 
5.4102 0.1106 13.6222 0.1511548 -0.8414326 0.5187902 
5.3524 0.1472 13.4538 -0.2964985 -0.9076263 -0.2971583 
6.3266 0.4654 13.0054 0.1022152 -0.9053522 -0.4121763 
4.5338 0.5944 13.7274 0.02103204 -0.0506429 0.9984953 
5.9524 0.9542 13.6136 0.4003244 0.1507105 0.9038953 
4.8386 1.1254 13.5958 -0.09801329 0.6488354 0.75459 
5.69 1.6342 13.2476 0.2928101 0.9312103 -0.2170473 
4.7766 1.1572 13.4224 -0.2878636 0.4947416 -0.8199788 
4.4874 0.5828 13.536 -0.1381502 -0.07223967 -0.9877732 
5.7886 0.9458 13.3216 -0.4282921 0.04030577 -0.902741 
3.5978 1.0494 13.4126 -0.01202977 0.187537 -0.9821839 
2.1002 -0.0022 13.9472 -0.9253912 -0.05548092 -0.3749305 
3.6898 1.0992 13.6358 0.3539559 0.6533491 0.6692161 
2.2326 0.025 14.1406 -0.1331386 0.06704007 0.9888275 
3.4398 -0.4894 13.8978 0.260175 -0.8240179 0.5032927 
3.3174 -0.5088 13.5252 -0.1085072 -0.6882964 -0.7172686 
3.894 -0.1518 13.6638 0.3480894 -0.709856 0.612322 
5.1642 0.0594 13.4702 0.8614005 -0.2713206 -0.4293884 
3.5186 0.351 13.9708 0.1519581 0.03499212 0.9877673 
3.8352 -0.0984 13.4424 0.2074056 -0.4533776 -0.8668516 
3.4426 0.3338 13.6222 0.1566252 0.0703016 -0.985153 
2.803 0.1568 13.6376 -0.213956 0.01174933 -0.9767727 
2.8836 0.1836 13.9536 0.1669244 0.08546999 0.9822582 
6.7172 1.1392 12.8608 0.8410819 0.1929301 0.5053309 
6.973599 0.4374 12.3118 0.4571035 -0.0430066 -0.8883732 
6.0242 1.7504 13.1304 -0.5857897 0.8012204 0.122051 
6.5282 1.5108 12.388 -0.1659912 0.9250636 -0.3416203 
6.3398 1.034 12.5982 -0.7875699 -0.1733471 -0.5913413 
7.1414 1.2642 11.2036 0.06449398 0.5735982 -0.8165939 
6.8508 0.5368 12.1894 -0.02639811 -0.9560204 0.2921096 
4.0068 1.0864 13.5556 -0.4299366 0.8981481 0.0921114 
4.3812 1.4746 14.131 0.2572171 -0.9588485 0.1202038 
4.243 1.5314 13.8672 0.4425436 -0.7527823 -0.487313 
4.9266 2.6944 13.7336 0.8030697 -0.2987123 0.5156066 
4.8836 2.5776 13.5422 0.06785482 -0.4228981 -0.9036332 
4.3996 2.6914 14.1408 0.2690196 0.2960001 0.9165219 
4.1654 3.4676 13.8976 0.2600246 0.9174877 0.3010041 
3.5856 1.65 14.4026 0.2863945 -0.03763158 0.9573725 
3.6014 2.9096 14.2282 -0.4191227 0.3968833 0.8165904 
3.497 2.8898 14.017 -0.6926335 0.6000837 -0.4001979 
4.0734 3.3386 13.7874 -0.184046 0.3140891 -0.9313834 
4.2726 2.6862 13.7738 -0.05507472 0.0647884 -0.996378 
3.5528 1.6946 13.8682 -0.1557828 -0.1450545 -0.9770829 
2.1236 0.0688 13.9028 -0.3164675 -0.1833083 -0.9307235 
2.079 -0.0306 14.1066 -0.1234266 -0.6326941 0.7645026 
2.064 1.2426 13.8516 -0.9441099 0.2360927 -0.2300364 
2.6564 1.4782 14.0694 -0.4813765 0.2567213 0.8380757 
3.178 0.3626 13.6644 0.4138726 -0.7221212 -0.5543017 
3.2014 0.3608 13.8268 0.6365872 -0.7063503 0.3095579 
2.8626 0.9421999 13.7862 0.01003175 -0.007474955 -0.9999218 
2.9014 0.9014 14.2372 0.04669712 -0.226967 0.9727823 
3.4518 0.8118 13.8618 0.7618288 -0.6201779 -0.1870731 
5.417 2.9784 13.1036 0.7893068 -0.6031811 -0.114749 
4.7534 3.2506 13.5104 -0.4338087 -0.3342301 -0.8367199 
5.286 4.1438 12.4456 -0.1108549 0.4352946 -0.8934371 
4.8984 3.3936 13.7384 0.5208595 0.4202259 0.7430448 
4.43 3.7842 13.326 -0.8867933 0.4620848 0.008677362 
4.1898 1.3772 13.8606 0.9368582 -0.1553447 -0.3133126 
0.958 -2.6828 15.0002 -0.8138904 0.3924289 0.4284647 
0.9526001 -2.7112 14.805 -0.7499186 0.4342624 -0.4990374 
0.9 -3.8196 15.0576 -0.8603293 -0.1580654 -0.4846121 
1.7118 -2.0368 14.9828 -0.2653851 0.5365542 0.8010496 
1.4068 -3.3484 15.5468 -0.2491802 0.09122702 0.9641509 
2.132 -2.5308 15.2122 0.6366491 0.1276219 0.76052 
2.0224 -3.5238 15.4816 0.6305499 -0.7742586 -0.05413464 
2.0934 -2.5742 15.017 0.5993062 -0.53343 -0.5968956 
1.79 -2.2056 14.626 0.1616713 -0.5249237 -0.835654 
1.4978 -3.3706 15.2838 0.4631428 -0.2420726 -0.8525841 
2.633 -1.7112 14.3926 0.460115 -0.4537352 -0.7631636 
2.275 -0.0056 13.876 0.4116124 0.4427945 -0.7965603 
2.5768 -1.6356 14.62 0.3441362 -0.08976971 0.9346185 
2.2528 0.039 13.981 0.01849903 0.7034999 0.7104546 
1.2986 -0.8206 14.1308 -0.9097822 0.3799653 0.1671011 
1.3952 -0.924 13.7996 -0.3675286 -0.02364481 -0.9297116 
1.3848 -1.3932 14.2814 -0.8361883 0.3835151 0.3920527 
0.9446 -2.2594 14.7524 -0.8580195 -0.5136124 -0.002212771 
1.9644 -1.0962 14.5498 -0.1761961 0.5162123 0.8381407 
1.4786 -1.5306 14.0212 -0.4682326 -0.3609824 -0.8065048 
2.0808 -1.306 14.1052 0.1188915 -0.6239877 -0.7723368 
2.1622 -0.6376 13.9898 0.2952418 -0.2236268 -0.9288828 
2.1212 -0.572 14.1814 -0.1389104 0.4169815 0.8982373 
1.362 -4.3566 15.2522 -0.3337631 -0.420067 0.8438874 
0.7202 -4.6544 14.8008 0.132672 -0.9114388 -0.3894581 
2.1556 -3.9222 15.5192 0.884356 0.4251842 0.192699 
1.9838 -4.7072 15.034 0.9262397 -0.3767512 0.01177302 
1.4322 -4.2554 14.9942 0.259485 0.333788 -0.9062302 
1.4594 -5.5422 14.3648 0.1342072 -0.826644 -0.546487 
0.891 -4.7086 14.6782 -0.8426877 0.5337767 -0.07042647 
2.5818 -1.9356 14.7084 0.9943868 -0.1012835 0.03060187 
0.765 1.9774 14.842 0.9225237 0.1739149 0.3445341 
0.781 1.9816 14.6178 0.7824488 0.5443777 -0.3023685 
-0.3486 2.7296 14.8586 0.3388158 0.6361935 0.6931536 
-0.2828 2.7002 14.622 0.4401963 0.3130752 -0.8415529 
-0.3964 2.0384 15.1498 -0.3518873 0.03081526 0.9355351 
-1.119 1.918 14.697 -0.9379073 0.1871664 0.2920591 
0.6444 1.1732 14.893 0.1881662 -0.06517217 0.9799725 
-0.6786 1.2106 14.8828 -0.3644643 -0.6400062 0.6764303 
-0.626 1.2382 14.5396 -0.6206981 -0.3605995 -0.6962054 
-1.0392 1.8838 14.5808 -0.3235872 0.1856537 -0.9278061 
-0.386 2.062 14.607 -0.02542351 0.2147546 -0.9763371 
0.6002 1.2502 14.5558 0.1534546 0.2570189 -0.9541453 
2.2722 -0.1306 13.683 0.06290284 -0.009210401 -0.9979771 
2.1944 -0.1012 13.9642 0.4872924 -0.4432583 0.7523751 
1.0242 0.023 13.8728 -0.3957157 -0.8210124 -0.4115186 
0.7556 0.3436 14.3446 -0.2070112 -0.7569839 0.6197757 
1.9082 1.0604 13.9672 0.6485584 0.6152087 -0.4482079 
2.0202 1.0682 14.2606 0.738205 0.5966341 0.3147717 
1.3066 0.6946 14.0544 -0.09542607 0.421474 -0.9018058 
1.3354 0.6174 14.3256 0.3227669 -0.2626857 0.9092953 
1.4544 1.2194 14.304 0.3837951 0.9234177 0.001014709 
-0.6938 3.299 14.4194 0.5778388 0.8156512 -0.02855559 
-0.8972 2.599 14.446 0.3288548 -0.1226557 -0.9363815 
-1.8398 3.5062 13.8046 -0.5735979 0.5162233 -0.6360024 
-0.9992 2.6482 14.6796 -0.4501064 0.3064335 0.8387507 
-1.5302 2.3616 14.274 -0.5941917 -0.7661349 -0.244895 
1.0976 1.8642 14.597 0.049379 0.9962187 0.07148314 
-0.4086 -0.9212 14.2716 -0.01842776 0.9816132 0.1899897 
-0.342 -0.963 14.0728 -0.1983422 0.7668588 -0.6104 
-1.3792 -1.837 14.04 -0.6821342 0.5516209 0.4800076 
-1.2368 -1.862 13.8656 0.09741366 0.5213826 -0.8477446 
-0.7654 -2.0414 14.3804 -0.2259732 -0.3386249 0.9133834 
-0.7572 -2.8588 14.037 -0.4081681 -0.7902864 0.4569969 
0.314 -1.2322 14.4876 -0.1308807 0.0686736 0.9890168 
-0.0288 -2.4234 14.292 0.3153585 -0.4716743 0.8234515 
0.0728 -2.445 14.0812 0.4728759 -0.7554222 -0.45357 
-0.6358 -2.7566 13.8618 -0.06493507 -0.2293503 -0.9711755 
-0.6742 -2.0228 14.0282 0.04418423 0.0792735 -0.9958733 
0.3094 -1.2538 14.0996 0.05796424 0.1632806 -0.9848754 
2.176 0.0574 13.8062 0.2328599 0.1535375 -0.9603138 
2.1352 0.0452 14.085 0.308198 0.495864 0.81187 
1.8362 -1.177 13.8092 0.8197294 -0.5304811 -0.2159474 
1.2584 -1.2956 14.1872 0.4637264 -0.3872071 0.7968868 
0.9642 -0.06680001 13.804 -0.3320142 0.7612575 -0.5570042 
0.9348 -0.028 13.9374 -0.4875609 0.8532124 0.1852376 
1.129 -0.6842 13.8792 -0.1498162 0.02773351 -0.9883248 
1.1402 -0.6594 14.2806 0.04296749 0.2457656 0.9683765 
0.6336 -0.4694 13.9894 -0.6312558 0.7288148 -0.2652263 
-1.8908 -2.0258 13.3904 -0.4417934 0.8444068 -0.3029778 
-1.1874 -2.3872 13.538 0.5005868 0.3427678 -0.7949359 
-2.113 -3.1382 12.7016 -0.2852724 -0.6062576 -0.7423418 
-1.4126 -2.5506 13.9046 -0.5471258 -0.3959017 0.7375062 
-1.1378 -3.0222 13.488 0.714745 -0.6993001 -0.01090838 
-0.3078 -0.7774 14.0354 -0.9153785 0.3074923 -0.2598671 
3.5752 -2.837 13.5086 -0.3574784 -0.4963909 0.7910786 
3.4108 -2.8168 13.3424 -0.9745221 -0.1610495 0.1561085 
4.1006 -3.6274 12.8744 -0.6995758 -0.6221237 -0.3515051 
3.7124 -1.9076 13.7998 -0.02925646 -0.1265908 0.9915236 
4.467 -3.0618 13.3998 0.3145847 -0.4258637 0.8483375 
4.3716 -1.9672 13.5988 0.6867048 0.2205861 0.6926603 
5.0114 -2.6402 13.088 0.9081851 -0.1616711 -0.386086 
4.3536 -1.876 13.2524 0.3325618 0.3793855 -0.8634057 
3.657 -1.836 13.4102 -0.1652471 0.1428489 -0.9758523 
4.4218 -2.9548 13.2288 -0.1123538 0.3581544 -0.9268776 
3.8076 -0.8452 13.4122 0.02161532 0.1286037 -0.9914604 
2.4392 0.07300001 14.0896 -0.3844724 0.8382047 -0.3867736 
3.8326 -0.8978 13.6034 0.8214369 -0.1425313 0.5522012 
2.4544 0.058 14.1996 -0.0429774 0.3399157 0.9394735 
2.4294 -1.133 13.8582 -0.6756588 -0.4742117 0.5644541 
2.2574 -1.0936 13.5908 -0.8103613 -0.06239359 -0.582599 
2.7952 -1.5212 13.6814 -0.4147087 -0.5521885 0.7232597 
3.2572 -2.614 13.4032 -0.2242394 -0.9601051 -0.1670776 
3.1298 -0.9906 13.862 0.1414419 -0.2120823 0.9669619 
2.7662 -1.4668 13.3838 -0.5468715 -0.2845209 -0.7873877 
3.0994 -0.9388 13.6432 0.02541964 0.01101041 -0.9996163 
2.7558 -0.4264 13.8462 -0.1362971 0.3335853 -0.9328151 
2.814 -0.4938 14.1086 0.1761703 -0.2263358 0.9579855 
4.8394 -3.6714 12.6518 0.4506429 -0.7606066 0.4673313 
4.3258 -4.1032 12.2416 0.4461373 -0.1896302 -0.8746439 
5.2896 -2.868 12.98 0.3771642 0.8753752 0.3024326 
5.2414 -3.3616 12.1732 0.7351448 0.5314962 -0.4208016 
4.7462 -3.5342 12.5612 -0.4816701 0.6752159 -0.5586388 
5.03 -4.021 11.1054 0.1406054 0.04780326 -0.988911 
4.3928 -4.0032 12.053 -0.8559504 -0.212485 0.4713798 
4.0872 -1.117 13.4976 0.5851907 0.8088325 0.05780961 
0.4802 0.9584 15.5492 0.7733198 0.6335212 0.02504961 
0.3808 0.926 15.269 0.2048017 0.8345758 -0.5114093 
-0.831 0.9524 15.9864 0.1963197 0.7334727 0.6507506 
-0.8466 0.9464 15.6266 -0.04677769 0.3924665 -0.918576 
-0.4276 0.3196 16.0722 0.1626807 -0.2216053 0.9614708 
-1.1736 -0.2492 15.9782 -0.6359227 -0.3383818 0.6936138 
0.7476 0.1768 15.417 0.4679691 0.04365598 0.8826659 
-0.263 -0.5324 15.8316 0.2807869 -0.7511109 0.5974874 
-0.2988 -0.391 15.5834 -0.4098173 -0.6605541 -0.6290613 
-1.1432 -0.2356 15.6596 -0.5784939 -0.1027284 -0.8091921 
-0.5418 0.322 15.6828 -0.3763463 0.1293422 -0.9174061 
0.6226 0.1936 15.1914 -0.2732061 0.1156151 -0.9549825 
2.4072 -0.0428 13.7132 -0.3262189 -0.04104471 -0.9444028 
2.3918 -0.0454 13.9954 0.8734661 -0.06198996 0.4829226 
1.413 -0.5956 14.2576 -0.04858999 -0.8933318 -0.4467633 
1.1928 -0.5 14.8504 0.3914924 -0.8038405 0.4478552 
1.5828 0.6872 14.2962 -0.0298775 0.7749917 -0.6312648 
1.7166 0.8066 14.4716 0.2786571 0.9569621 -0.0810785 
1.386 0.09 14.5312 -0.6024366 0.1753777 -0.778661 
1.5046 0.0718 14.7302 0.639568 0.05723247 0.7666011 
1.2228 0.6776 14.7002 -0.4273072 0.8868809 -0.1756442 
-1.5914 1.2752 15.6582 -0.03980887 0.9874142 -0.1530635 
-1.319 0.4654 15.609 0.06886154 -0.02645171 -0.9972755 
-2.6302 0.6392 15.4728 -0.8923416 -0.03197725 -0.4502264 
-1.3908 0.4432 16.1096 -0.2340407 -0.003880948 0.9722192 
-1.747 -0.1156 15.6442 -0.008017515 -0.9741137 -0.2259164 
0.5382 0.8732001 15.2034 -0.7833163 0.5644341 0.2604417 
3.3564 1.7824 15.3952 0.5715557 -0.3635267 0.7356442 
3.4908 1.7276 15.1906 0.7084082 -0.6984445 -0.1016517 
3.6218 2.882 15.211 0.9160413 0.01324334 -0.4008652 
2.5864 1.2616 15.2732 0.07209001 -0.5874034 0.8060771 
2.9584 2.547 15.816 0.1344007 0.04185541 0.9900427 
2.1536 1.7572 15.5252 -0.682162 -0.07759304 0.7270724 
2.2628 2.8766 15.5326 -0.5853959 0.7963846 -0.1519316 
2.2018 1.84 15.2002 -0.4304853 0.4068083 -0.805723 
2.5802 1.3102 15.1276 -0.01223734 0.4115331 -0.9113126 
2.8604 2.5428 15.3762 -0.230198 0.1270367 -0.9648164 
1.801 1.0676 14.6388 -0.04967806 0.8204581 -0.5695443 
2.064 -0.1194 13.5708 -0.04153835 0.1736918 -0.9839236 
1.7438 1.0444 14.8968 -0.6857802 0.1062497 0.7200114 
2.014 -0.3562 13.792 -0.3912522 -0.9015515 0.1847343 
2.994 0.1824 14.4558 0.8422201 -0.5245832 -0.1244097 
2.8816 0.335 14.304 0.5913277 0.2209629 -0.7755688 
3.0046 0.5838 14.7522 0.5833258 -0.520431 0.6236045 
3.3762 1.6124 15.2302 0.4860422 0.8402446 0.2403168 
2.3322 0.501 14.7068 -0.06040457 -0.5347506 0.8428482 
2.955 0.7902 14.4704 0.6414087 0.3258236 -0.6945745 
2.3432 0.741 14.4286 0.08233396 0.8108093 -0.5794907 
2.2622 0.3542 14.0716 0.1873872 0.5994123 -0.7781972 
2.1742 0.0534 14.3772 -0.1513245 -0.6512905 0.743587 
3.1682 3.5186 15.2998 0.2411745 0.561784 0.7913493 
3.8296 3.6018 14.8806 -0.09581215 0.8025894 -0.5887873 
2.4202 3.1492 15.4486 -0.9869391 -0.148444 0.06257536 
2.5914 3.84 14.8632 -0.9206982 0.2873842 -0.2640552 
3.1202 3.4002 15.1186 -0.1875917 -0.4449984 -0.8756631 
3.314 4.487 14.1632 -0.09427845 0.5511745 -0.8290466 
3.8262 3.652 14.669 0.6751751 -0.703281 0.2225635 
1.7148 1.2626 14.935 -0.9706327 0.0300689 -0.2386797 
2.2922 -2.0636 15.7126 -0.8826663 -0.05133039 0.4671889 
2.3608 -2.0894 15.514 -0.8472055 0.07514571 -0.5259239 
2.7742 -3.1282 15.47 -0.8164259 -0.370863 -0.4426165 
2.7188 -1.166 15.5606 -0.2803897 0.5261958 0.8028073 
3.1754 -2.4772 15.9276 0.04659552 -0.06499783 0.996797 
3.3478 -1.4444 15.578 0.6242033 0.4294713 0.6526291 
3.8516 -2.4938 15.6546 0.8925079 -0.4437961 -0.08046565 
3.393 -1.5106 15.3132 0.5566906 -0.1041289 -0.8241679 
2.7744 -1.2816 15.2744 0.09435567 -0.3953276 -0.9136811 
3.2024 -2.445 15.605 0.1094082 0.0235174 -0.9937186 
3.2056 -0.6368 14.7514 0.482919 -0.7324762 -0.4798623 
2.2998 0.1262 13.8044 0.04707531 0.09632535 -0.9942361 
3.178 -0.5892 14.848 0.6660351 0.4235261 0.6140218 
2.2642 0.2476 13.9546 -0.05233286 0.9873127 0.1499164 
1.7012 -0.5554 14.711 -0.9986269 0.01642515 0.04974438 
1.861 -0.6832 14.4656 -0.424137 -0.6390553 -0.6416511 
2.0108 -0.902 14.959 -0.7861533 0.1129674 0.6076195 
2.3066 -1.8498 15.4356 -0.219568 -0.9738756 -0.05793358 
2.4998 -0.4444 14.896 -0.1523437 0.6027352 0.7832635 
2.1602 -0.9652 14.7634 -0.2750025 -0.7766433 -0.5667441 
2.5726 -0.6352 14.641 0.3065694 -0.7893357 -0.5319439 
2.4326 -0.3496 14.216 0.1875875 -0.6932126 -0.695893 
2.3806 -0.0884 14.4722 -0.07851141 0.7453392 0.6620464 
3.4848 -3.454 15.5264 0.1446441 -0.5624976 0.8140483 
2.9158 -3.911 15.1344 0.1749101 -0.768268 -0.6157684 
3.974 -2.6942 15.5866 0.7105169 0.7035667 0.01264036 
4.0458 -3.427 15.027 0.94102 0.1615769 -0.2972783 
3.4074 -3.2562 15.1902 -0.1802658 0.4556427 -0.8717189 
3.8092 -4.4544 14.3024 0.2991363 -0.5409878 -0.7860341 
3.0462 -3.8938 14.9532 -0.9844137 0.03725344 0.1718777 
3.3018 -0.848 15.067 0.8302289 0.5102919 -0.2243259 
0.8042001 -0.9338 12.339 -0.9577087 0.0114459 0.2875117 
0.8798 -0.807 12.3808 -0.4000623 0.9155205 0.0420988 
0.796 -1.3682 11.5774 -0.3535414 0.6735857 -0.6490692 
1.3996 -1.1554 13.2334 -0.6579407 -0.2617358 0.7061222 
1.1898 -1.682 12.423 -0.7269681 -0.5533468 0.4066015 
1.8028 -1.6596 13.0848 -0.06405061 -0.7709267 0.6336952 
1.8056 -2.2234 12.657 0.4918135 -0.8540691 -0.1693679 
1.9042 -1.587 12.9504 0.901839 -0.1902968 -0.3879093 
1.6902 -0.9952 12.8512 0.6634966 0.3261662 -0.673341 
1.4074 -1.564 12.2476 0.8205456 0.2858449 -0.4949722 
2.3686 -1.199 13.443 0.8424199 0.01847899 -0.5385047 
2.25 0.0288 14.048 0.7190999 0.6406528 0.2691825 
2.3116 -1.3252 13.5086 -0.1195868 -0.8970272 0.4254894 
2.0596 -0.1148 14.1652 -0.3037836 -0.1260471 0.9443663 
1.1712 0.053 13.4106 -0.8669274 0.4616025 0.1880423 
1.4126 0.1042 13.2564 0.1571071 0.8507809 -0.5014871 
1.2628 -0.3186 13.172 -0.9591553 -0.02116505 0.2820874 
0.8802 -0.7544 12.4536 -0.7143377 0.1837097 -0.6752573 
1.744 -0.6846 13.5606 -0.6110464 -0.2930932 0.7353358 
1.4562 -0.2394 12.9534 -0.02098411 0.600346 -0.7994651 
1.9986 -0.5524 13.2818 0.549289 0.1699581 -0.8181662 
2.1242 -0.2692 13.566 0.6902651 0.4430115 -0.5720795 
1.8884 -0.4238 13.8086 -0.607549 -0.4265201 0.6700485 
1.154 -1.954 11.6216 -0.7052827 -0.7089262 -0.0001831018 
0.671 -1.3028 10.62 0.4917205 -0.4576996 -0.7407578 
1.8306 -2.3478 12.4224 0.7354424 0.008097652 0.6775389 
1.8426 -2.2816 11.4876 0.8413588 -0.5156547 -0.1619125 
1.2696 -1.836 11.6164 0.7016485 0.7033913 -0.1137106 
1.5728 -1.9058 10.1144 0.5158702 -0.06817372 -0.8539498 
0.9382 -1.4356 10.7792 -0.6335027 0.6696873 0.3875479 
2.3348 -1.4458 13.397 0.7960823 -0.479094 0.3697593 
3.652 0.9718 12.571 0.9713952 0.1104672 0.21021 
3.5964 0.717 12.5398 0.4704437 -0.7968004 0.3791991 
3.4828 1.089 11.4952 0.4908378 -0.8085774 -0.3244703 
3.16 1.3024 13.1674 0.5601787 0.5039799 0.6574223 
3.4074 1.6278 12.0618 0.7233303 0.6835415 0.09779744 
2.8158 1.6318 12.7928 -0.1208995 0.9611207 0.2482546 
2.7412 1.9456 11.6198 -0.6408856 0.5540407 -0.5313234 
2.6976 1.4996 12.6968 -0.9455222 -0.02854768 -0.3243038 
2.8684 1.0232 12.8694 -0.6715528 -0.6245636 -0.3986693 
3.0574 1.347 11.9442 -0.7652146 -0.6107959 -0.2034087 
2.2794 1.208 13.3102 -0.4075644 -0.07354499 -0.9102101 
2.1342 0.222 13.916 -0.808624 -0.5677283 0.1543111 
2.3246 1.3158 13.3398 -0.2835193 0.9414092 0.1826624 
2.2128 0.3098 14.083 -0.1898441 -0.03262993 0.9812719 
3.0282 0.313 13.5968 0.7215939 -0.4188804 0.5512181 
2.9924 0.09860001 13.483 0.2294277 -0.9470584 -0.2245961 
3.192 0.5558 13.4006 0.8588555 -0.05863546 0.5088508 
3.6354 0.834 12.5566 0.8317251 -0.2838393 -0.4771463 
2.744 0.882 13.6142 0.5061925 0.5109427 0.6947709 
3.0188 0.3686 13.1502 0.2867187 -0.6240698 -0.7268626 
2.658 0.785 13.4976 -0.3457189 -0.2326987 -0.9090269 
2.3776 0.455 13.526 -0.4226535 -0.351979 -0.8351496 
2.5388 0.6662 13.9166 0.3913228 0.3965488 0.8304309 
3.289 1.503 10.8608 0.6929535 0.6544595 -0.302487 
3.5196 0.8018 10.478 -0.604225 -0.2862275 -0.7436303 
2.6544 1.9818 11.5728 -0.7741985 0.4618464 0.4327985 
2.5642 1.5578 10.5182 -0.9008022 0.3913291 -0.1881944 
3.1168 1.327 11.0046 -0.6628025 -0.7273362 0.1779742 
2.7056 0.9122 9.2986 -0.6245052 -0.3911499 -0.6760141 
3.431 0.6964 10.4158 0.7790535 -0.4286622 0.4575198 
2.3416 1.4488 13.1876 -0.8845021 0.4123406 0.2182458 
2.6366 -1.1202 12.7022 -0.1973641 -0.6645339 0.7207233 
2.433 -0.9863999 12.675 -0.8284326 -0.5074316 0.237092 
2.8582 -1.0416 11.5622 0.2812063 -0.9555324 -0.08877441 
2.5352 -0.8466 11.6302 -0.9738044 0.2240668 -0.03871637 
3.1852 -0.583 12.042 0.9256969 -0.3774239 -0.02522911 
3.5496 0.0382 11.5106 0.8216 -0.2217655 -0.5251606 
3.0092 -0.51 12.995 0.7642473 -0.5789339 0.2841858 
3.5332 0.0852 12.3564 0.9475645 -0.1126795 0.2990395 
3.4252 0.311 12.341 0.157842 0.9831272 -0.09245022 
3.3188 0.183 11.5416 -0.5967164 0.6276553 -0.4999784 
2.9656 -0.375 11.9552 -0.8090221 0.46734 -0.3564779 
2.785 -0.3654 12.8616 -0.8645524 0.5013822 -0.03413319 
2.2462 -0.0448 14.1468 -0.7551351 0.6491741 -0.09134598 
2.3998 -0.1542 14.2478 0.3632807 -0.3067213 0.8797438 
2.8006 0.3744 13.5932 -0.04098064 0.9562872 0.2895434 
3.0816 0.1358 13.4212 0.8720415 0.04184379 0.4876399 
1.9956 -0.679 13.5172 -0.9910614 -0.133394 -0.001824702 
2.1168 -0.9334 13.6192 -0.4357296 -0.8873821 0.1506409 
2.5724 -0.2312 13.4734 -0.7707542 0.4663551 -0.4341094 
2.6746 -0.3046 13.5194 0.6614237 -0.5926867 0.45961 
2.3146 -0.7606 13.2618 -0.2503642 -0.4833299 -0.8388742 
2.4088 -0.9086 10.768 -0.5985501 -0.7397975 -0.3073069 
2.9606 -0.4012 11.2324 -0.8161922 0.5610375 0.1380848 
2.5314 -0.0452 9.6208 -0.3761439 0.5779378 -0.7242263 
3.1168 -0.4954 11.143 0.8397317 -0.4429763 -0.3140426 
3.1842 0.199 10.9744 0.4215744 0.8708595 0.2527426 
2.4738 -0.9512 12.7682 -0.1233358 -0.597435 -0.792376 
3 0 1 2 
3 0 2 3 
3 1 4 5 
3 1 5 2 
3 4 6 7 
3 4 7 5 
3 6 8 9 
3 6 9 7 
3 8 0 3 
3 8 3 9 
3 10 11 12 
3 13 10 12 
3 14 13 12 
3 15 14 12 
3 11 15 12 
3 16 17 18 
3 17 19 18 
3 19 20 18 
3 20 21 18 
3 21 16 18 
3 22 23 24 
3 22 24 25 
3 23 26 27 
3 23 27 24 
3 26 28 29 
3 26 29 27 
3 28 30 31 
3 28 31 29 
3 30 22 25 
3 30 25 31 
3 25 24 17 
3 25 17 16 
3 24 27 19 
3 24 19 17 
3 27 29 20 
3 27 20 19 
3 29 31 21 
3 29 21 20 
3 31 25 16 
3 31 16 21 
3 32 33 4 
3 32 4 1 
3 33 34 6 
3 33 6 4 
3 34 35 8 
3 34 8 6 
3 35 36 0 
3 35 0 8 
3 36 32 1 
3 36 1 0 
3 9 3 37 
3 9 37 38 
3 7 9 38 
3 7 38 39 
3 5 7 39 
3 5 39 40 
3 2 5 40 
3 2 40 41 
3 3 2 41 
3 3 41 37 
3 38 37 42 
3 38 42 43 
3 39 38 43 
3 39 43 44 
3 40 39 44 
3 40 44 45 
3 41 40 45 
3 41 45 46 
3 37 41 46 
3 37 46 42 
3 43 42 47 
3 43 47 48 
3 44 43 48 
3 44 48 49 
3 45 44 49 
3 45 49 50 
3 46 45 50 
3 46 50 51 
3 42 46 51 
3 42 51 47 
3 52 53 54 
3 52 54 55 
3 56 52 55 
3 56 55 57 
3 58 56 57 
3 58 57 59 
3 60 58 59 
3 60 59 61 
3 53 60 61 
3 53 61 54 
3 55 54 11 
3 55 11 10 
3 57 55 10 
3 57 10 13 
3 59 57 13 
3 59 13 14 
3 61 59 14 
3 61 14 15 
3 54 61 15 
3 54 15 11 
3 62 63 64 
3 64 63 65 
3 66 67 68 
3 69 68 67 
3 69 67 70 
3 70 67 71 
3 72 73 71 
3 73 70 71 
3 74 75 76 
3 76 75 77 
3 74 78 75 
3 75 78 79 
3 66 68 64 
3 68 62 64 
3 72 65 73 
3 63 73 65 
3 76 70 80 
3 80 70 73 
3 76 77 70 
3 70 77 69 
3 77 81 69 
3 69 81 68 
3 74 76 80 
3 78 82 79 
3 78 74 82 
3 82 74 80 
3 83 84 85 
3 64 65 83 
3 66 64 86 
3 86 64 83 
3 84 87 85 
3 86 83 85 
3 87 86 85 
3 72 84 65 
3 65 84 83 
3 79 82 75 
3 75 82 81 
3 77 75 81 
3 87 66 86 
3 72 87 84 
3 82 88 81 
3 81 88 68 
3 82 80 88 
3 88 80 73 
3 68 73 62 
3 62 73 63 
3 66 72 67 
3 67 72 71 
3 66 87 72 
3 68 88 73 
3 89 90 91 
3 92 93 94 
3 94 93 95 
3 96 94 95 
3 97 96 98 
3 96 95 98 
3 99 100 101 
3 101 100 102 
3 102 100 103 
3 103 100 104 
3 91 93 89 
3 92 89 93 
3 98 91 97 
3 90 97 91 
3 105 106 107 
3 107 106 92 
3 108 106 105 
3 108 109 106 
3 106 109 97 
3 110 99 109 
3 102 111 101 
3 103 111 102 
3 104 108 103 
3 103 108 105 
3 104 110 108 
3 108 110 109 
3 93 91 112 
3 112 91 113 
3 93 112 114 
3 114 112 115 
3 116 115 117 
3 112 118 117 
3 115 112 117 
3 98 116 91 
3 91 116 113 
3 98 114 116 
3 116 114 115 
3 100 110 104 
3 99 110 100 
3 103 105 111 
3 111 105 107 
3 101 111 107 
3 118 116 117 
3 107 92 119 
3 119 92 94 
3 96 119 94 
3 109 119 97 
3 97 119 96 
3 92 106 97 
3 107 109 101 
3 101 109 99 
3 93 114 98 
3 112 113 116 
3 112 116 118 
3 93 98 95 
3 89 92 90 
3 90 92 97 
3 107 119 109 
3 120 121 122 
3 122 121 123 
3 124 125 126 
3 127 126 125 
3 127 125 128 
3 128 125 129 
3 130 131 129 
3 131 128 129 
3 132 133 134 
3 134 133 135 
3 132 136 133 
3 133 136 137 
3 124 126 122 
3 126 120 122 
3 130 123 131 
3 121 131 123 
3 134 128 138 
3 138 128 131 
3 134 135 128 
3 128 135 127 
3 135 139 127 
3 127 139 126 
3 132 134 138 
3 136 140 137 
3 136 132 140 
3 140 132 138 
3 141 142 143 
3 122 123 141 
3 124 122 144 
3 144 122 141 
3 142 145 143 
3 144 141 143 
3 145 144 143 
3 130 142 123 
3 123 142 141 
3 137 140 133 
3 133 140 139 
3 135 133 139 
3 145 124 144 
3 130 145 142 
3 140 146 139 
3 139 146 126 
3 140 138 146 
3 146 138 131 
3 126 131 120 
3 120 131 121 
3 124 130 125 
3 125 130 129 
3 124 145 130 
3 126 146 131 
3 147 148 149 
3 150 151 152 
3 152 151 153 
3 154 152 153 
3 155 154 156 
3 154 153 156 
3 157 158 159 
3 159 158 160 
3 160 158 161 
3 161 158 162 
3 149 151 147 
3 150 147 151 
3 156 149 155 
3 148 155 149 
3 163 164 165 
3 165 164 150 
3 166 164 163 
3 166 167 164 
3 164 167 155 
3 168 157 167 
3 160 169 159 
3 161 169 160 
3 162 166 161 
3 161 166 163 
3 162 168 166 
3 166 168 167 
3 151 149 170 
3 170 149 171 
3 151 170 172 
3 172 170 173 
3 174 173 175 
3 170 176 175 
3 173 170 175 
3 156 174 149 
3 149 174 171 
3 156 172 174 
3 174 172 173 
3 158 168 162 
3 157 168 158 
3 161 163 169 
3 169 163 165 
3 159 169 165 
3 176 174 175 
3 165 150 177 
3 177 150 152 
3 154 177 152 
3 167 177 155 
3 155 177 154 
3 150 164 155 
3 165 167 159 
3 159 167 157 
3 151 172 156 
3 170 171 174 
3 170 174 176 
3 151 156 153 
3 147 150 148 
3 148 150 155 
3 165 177 167 
3 178 179 180 
3 180 179 181 
3 182 183 184 
3 185 184 183 
3 185 183 186 
3 186 183 187 
3 188 189 187 
3 189 186 187 
3 190 191 192 
3 192 191 193 
3 190 194 191 
3 191 194 195 
3 182 184 180 
3 184 178 180 
3 188 181 189 
3 179 189 181 
3 192 186 196 
3 196 186 189 
3 192 193 186 
3 186 193 185 
3 193 197 185 
3 185 197 184 
3 190 192 196 
3 194 198 195 
3 194 190 198 
3 198 190 196 
3 199 200 201 
3 180 181 199 
3 182 180 202 
3 202 180 199 
3 200 203 201 
3 202 199 201 
3 203 202 201 
3 188 200 181 
3 181 200 199 
3 195 198 191 
3 191 198 197 
3 193 191 197 
3 203 182 202 
3 188 203 200 
3 198 204 197 
3 197 204 184 
3 198 196 204 
3 204 196 189 
3 184 189 178 
3 178 189 179 
3 182 188 183 
3 183 188 187 
3 182 203 188 
3 184 204 189 
3 205 206 207 
3 207 206 208 
3 209 210 211 
3 212 211 210 
3 212 210 213 
3 213 210 214 
3 215 216 214 
3 216 213 214 
3 217 218 219 
3 219 218 220 
3 217 221 218 
3 218 221 222 
3 209 211 207 
3 211 205 207 
3 215 208 216 
3 206 216 208 
3 219 213 223 
3 223 213 216 
3 219 220 213 
3 213 220 212 
3 220 224 212 
3 212 224 211 
3 217 219 223 
3 221 225 222 
3 221 217 225 
3 225 217 223 
3 226 227 228 
3 207 208 226 
3 209 207 229 
3 229 207 226 
3 227 230 228 
3 229 226 228 
3 230 229 228 
3 215 227 208 
3 208 227 226 
3 222 225 218 
3 218 225 224 
3 220 218 224 
3 230 209 229 
3 215 230 227 
3 225 231 224 
3 224 231 211 
3 225 223 231 
3 231 223 216 
3 211 216 205 
3 205 216 206 
3 209 215 210 
3 210 215 214 
3 209 230 215 
3 211 231 216 
3 232 233 234 
3 235 236 237 
3 237 236 238 
3 239 237 238 
3 240 239 241 
3 239 238 241 
3 242 243 244 
3 244 243 245 
3 245 243 246 
3 246 243 247 
3 234 236 232 
3 235 232 236 
3 241 234 240 
3 233 240 234 
3 248 249 250 
3 250 249 235 
3 251 249 248 
3 251 252 249 
3 249 252 240 
3 253 242 252 
3 245 254 244 
3 246 254 245 
3 247 251 246 
3 246 251 248 
3 247 253 251 
3 251 253 252 
3 236 234 255 
3 255 234 256 
3 236 255 257 
3 257 255 258 
3 259 258 260 
3 255 261 260 
3 258 255 260 
3 241 259 234 
3 234 259 256 
3 241 257 259 
3 259 257 258 
3 243 253 247 
3 242 253 243 
3 246 248 254 
3 254 248 250 
3 244 254 250 
3 261 259 260 
3 250 235 262 
3 262 235 237 
3 239 262 237 
3 252 262 240 
3 240 262 239 
3 235 249 240 
3 250 252 244 
3 244 252 242 
3 236 257 241 
3 255 256 259 
3 255 259 261 
3 236 241 238 
3 232 235 233 
3 233 235 240 
3 250 262 252 
3 263 264 265 
3 265 264 266 
3 267 268 269 
3 270 269 268 
3 270 268 271 
3 271 268 272 
3 273 274 272 
3 274 271 272 
3 275 276 277 
3 277 276 278 
3 275 279 276 
3 276 279 280 
3 267 269 265 
3 269 263 265 
3 273 266 274 
3 264 274 266 
3 277 271 281 
3 281 271 274 
3 277 278 271 
3 271 278 270 
3 278 282 270 
3 270 282 269 
3 275 277 281 
3 279 283 280 
3 279 275 283 
3 283 275 281 
3 284 285 286 
3 265 266 284 
3 267 265 287 
3 287 265 284 
3 285 288 286 
3 287 284 286 
3 288 287 286 
3 273 285 266 
3 266 285 284 
3 280 283 276 
3 276 283 282 
3 278 276 282 
3 288 267 287 
3 273 288 285 
3 283 289 282 
3 282 289 269 
3 283 281 289 
3 289 281 274 
3 269 274 263 
3 263 274 264 
3 267 273 268 
3 268 273 272 
3 267 288 273 
3 269 289 274 
3 290 291 292 
3 293 294 295 
3 295 294 296 
3 297 295 296 
3 298 297 299 
3 297 296 299 
3 300 301 302 
3 302 301 303 
3 303 301 304 
3 304 301 305 
3 292 294 290 
3 293 290 294 
3 299 292 298 
3 291 298 292 
3 306 307 308 
3 308 307 293 
3 309 307 306 
3 309 310 307 
3 307 310 298 
3 311 300 310 
3 303 312 302 
3 304 312 303 
3 305 309 304 
3 304 309 306 
3 305 311 309 
3 309 311 310 
3 294 292 313 
3 313 292 314 
3 294 313 315 
3 315 313 316 
3 317 316 318 
3 313 319 318 
3 316 313 318 
3 299 317 292 
3 292 317 314 
3 299 315 317 
3 317 315 316 
3 301 311 305 
3 300 311 301 
3 304 306 312 
3 312 306 308 
3 302 312 308 
3 319 317 318 
3 308 293 320 
3 320 293 295 
3 297 320 295 
3 310 320 298 
3 298 320 297 
3 293 307 298 
3 308 310 302 
3 302 310 300 
3 294 315 299 
3 313 314 317 
3 313 317 319 
3 294 299 296 
3 290 293 291 
3 291 293 298 
3 308 320 310 
3 321 322 323 
3 324 325 326 
3 326 325 327 
3 328 326 327 
3 329 328 330 
3 328 327 330 
3 331 332 333 
3 333 332 334 
3 334 332 335 
3 335 332 336 
3 323 325 321 
3 324 321 325 
3 330 323 329 
3 322 329 323 
3 337 338 339 
3 339 338 324 
3 340 338 337 
3 340 341 338 
3 338 341 329 
3 342 331 341 
3 334 343 333 
3 335 343 334 
3 336 340 335 
3 335 340 337 
3 336 342 340 
3 340 342 341 
3 325 323 344 
3 344 323 345 
3 325 344 346 
3 346 344 347 
3 348 347 349 
3 344 350 349 
3 347 344 349 
3 330 348 323 
3 323 348 345 
3 330 346 348 
3 348 346 347 
3 332 342 336 
3 331 342 332 
3 335 337 343 
3 343 337 339 
3 333 343 339 
3 350 348 349 
3 339 324 351 
3 351 324 326 
3 328 351 326 
3 341 351 329 
3 329 351 328 
3 324 338 329 
3 339 341 333 
3 333 341 331 
3 325 346 330 
3 344 345 348 
3 344 348 350 
3 325 330 327 
3 321 324 322 
3 322 324 329 
3 339 351 341 
3 352 353 354 
3 355 356 357 
3 357 356 358 
3 359 357 358 
3 360 359 361 
3 359 358 361 
3 362 363 364 
3 364 363 365 
3 365 363 366 
3 366 363 367 
3 354 356 352 
3 355 352 356 
3 361 354 360 
3 353 360 354 
3 368 369 370 
3 370 369 355 
3 371 369 368 
3 371 372 369 
3 369 372 360 
3 373 362 372 
3 365 374 364 
3 366 374 365 
3 367 371 366 
3 366 371 368 
3 367 373 371 
3 371 373 372 
3 356 354 375 
3 375 354 376 
3 356 375 377 
3 377 375 378 
3 379 378 380 
3 375 381 380 
3 378 375 380 
3 361 379 354 
3 354 379 376 
3 361 377 379 
3 379 377 378 
3 363 373 367 
3 362 373 363 
3 366 368 374 
3 374 368 370 
3 364 374 370 
3 381 379 380 
3 370 355 382 
3 382 355 357 
3 359 382 357 
3 372 382 360 
3 360 382 359 
3 355 369 360 
3 370 372 364 
3 364 372 362 
3 356 377 361 
3 375 376 379 
3 375 379 381 
3 356 361 358 
3 352 355 353 
3 353 355 360 
3 370 382 372 
3 383 384 385 
3 386 387 388 
3 388 387 389 
3 390 388 389 
3 391 390 392 
3 390 389 392 
3 393 394 395 
3 395 394 396 
3 396 394 397 
3 397 394 398 
3 385 387 383 
3 386 383 387 
3 392 385 391 
3 384 391 385 
3 399 400 401 
3 401 400 386 
3 402 400 399 
3 402 403 400 
3 400 403 391 
3 404 393 403 
3 396 405 395 
3 397 405 396 
3 398 402 397 
3 397 402 399 
3 398 404 402 
3 402 404 403 
3 387 385 406 
3 406 385 407 
3 387 406 408 
3 408 406 409 
3 410 409 411 
3 406 412 411 
3 409 406 411 
3 392 410 385 
3 385 410 407 
3 392 408 410 
3 410 408 409 
3 394 404 398 
3 393 404 394 
3 397 399 405 
3 405 399 401 
3 395 405 401 
3 412 410 411 
3 401 386 413 
3 413 386 388 
3 390 413 388 
3 403 413 391 
3 391 413 390 
3 386 400 391 
3 401 403 395 
3 395 403 393 
3 387 408 392 
3 406 407 410 
3 406 410 412 
3 387 392 389 
3 383 386 384 
3 384 386 391 
3 401 413 403 
3 414 415 416 
3 416 415 417 
3 418 419 420 
3 421 420 419 
3 421 419 422 
3 422 419 423 
3 424 425 423 
3 425 422 423 
3 426 427 428 
3 428 427 429 
3 426 430 427 
3 427 430 431 
3 418 420 416 
3 420 414 416 
3 424 417 425 
3 415 425 417 
3 428 422 432 
3 432 422 425 
3 428 429 422 
3 422 429 421 
3 429 433 421 
3 421 433 420 
3 426 428 432 
3 430 434 431 
3 430 426 434 
3 434 426 432 
3 435 436 437 
3 416 417 435 
3 418 416 438 
3 438 416 435 
3 436 439 437 
3 438 435 437 
3 439 438 437 
3 424 436 417 
3 417 436 435 
3 431 434 427 
3 427 434 433 
3 429 427 433 
3 439 418 438 
3 424 439 436 
3 434 440 433 
3 433 440 420 
3 434 432 440 
3 440 432 425 
3 420 425 414 
3 414 425 415 
3 418 424 419 
3 419 424 423 
3 418 439 424 
3 420 440 425 
