ply
format ascii 1.0
comment VCGLIB generated
element vertex 436
property float x
property float y
property float z
property float nx
property float ny
property float nz
element face 806
property list uchar int vertex_indices
end_header
0.068 0.2032 2.3442 0.1131848 0.9930181 0.03323149 
-0.1346 0.0444 2.7384 -0.9114661 0.4100186 0.03338171 
-0.0728 0.1448 11.9808 -0.9181377 0.3962611 0.0006374681 
0.1832 0.203 12.2946 0.09189926 0.9957684 0.0001870346 
0.007999999 -0.2068 2.845 -0.6660057 -0.7454214 0.02799072 
-0.0728 -0.1208 11.8978 -0.6192277 -0.7852107 0.001108555 
0.2986 -0.2032 2.5036 0.4868315 -0.873009 0.02916203 
0.1832 -0.203 11.8718 0.4864356 -0.8737134 0.00231363 
0.3356 0.0812 2.389 0.9695626 0.2434702 0.02589597 
0.3414 -0.012 12.2254 0.9769511 0.2134496 0.00241295 
-0.0672 0.1334 -2.0238 -0.6263065 0.2589549 -0.7353112 
0.1862 0.2156 -2.0236 0.05429188 0.6850881 -0.7264343 
0.1126 0 -2.0236 0.000924934 5.820766e-12 -0.9999996 
-0.0672 -0.1334 -2.0238 -0.4399616 -0.5191748 -0.7327287 
0.1862 -0.2156 -2.0236 0.3639824 -0.5882571 -0.7221291 
0.343 0 -2.0234 0.6763469 0.1636931 -0.718164 
0.1034 0.2416 32.8294 0.1457091 0.6897656 0.7092195 
-0.1288 0.0618 32.8294 -0.6031203 0.3468365 0.7182968 
0.111 -0.007999999 32.8294 0 0 1 
-0.0296 -0.2144 32.8294 -0.5138892 -0.465633 0.7204886 
0.2638 -0.2056 32.8294 0.2872975 -0.6396555 0.7129523 
0.346 0.0764 32.8294 0.7043856 0.07575548 0.7057635 
0.1092 0.1594 31.4244 -0.08157124 0.3375028 -0.9377835 
-0.0454 0.0396 31.424 -0.3220752 0.02063775 -0.9464892 
-0.4126 0.1286 31.551 -0.8194373 0.1532082 -0.5523131 
0.0708 0.503 31.551 -0.09839181 0.8338732 -0.5431157 
0.0208 -0.1444 31.424 -0.1109937 -0.3119051 -0.9436077 
-0.206 -0.4466 31.551 -0.387339 -0.7342858 -0.557488 
0.2162 -0.1384 31.4244 0.2902941 -0.2181273 -0.9317456 
0.405 -0.428 31.551 0.5799969 -0.5985809 -0.5525437 
0.2708 0.0494 31.4244 0.3112766 0.2050162 -0.9279414 
0.576 0.159 31.551 0.7601756 0.3567018 -0.5430442 
-0.2112 0.2268 0.4636 -0.8160369 0.433928 0.381825 
-0.2112 -0.2268 0.4636 -0.6702635 -0.6406385 0.3746054 
0.2202 -0.367 0.464 0.4105907 -0.8392717 0.3564242 
0.4868 0 0.4642 0.9301135 0.1410906 0.3390906 
0.2202 0.367 0.464 0.1847224 0.9201317 0.3453047 
0.0578 0.2088 27.2282 0.07159379 0.9974089 0.007059742 
0.3122 0.0774 27.1112 0.9820379 0.1886141 0.005125231 
0.2498 -0.1346 26.9324 0.5327498 -0.8462589 0.004866397 
0.053 -0.2122 27.1488 -0.5850565 -0.8109522 0.008085987 
-0.1024 0.0298 27.2506 -0.9353889 0.3535497 0.00708845 
0.169 0.1728 30.0802 0.1057941 0.9943037 0.01295556 
0.2946 0 30.0804 0.9848581 0.1730494 0.01041078 
0.169 -0.1728 29.7524 0.5083779 -0.8610718 0.01035365 
-0.034 -0.1068 29.7522 -0.6399024 -0.7684095 0.008474508 
-0.034 0.1068 30.08 -0.9227275 0.3852902 0.01119611 
0.1092 0.1594 31.4244 0.3700953 0.9288899 0.01388861 
0.2708 0.0494 31.4244 0.9962391 -0.08596905 0.0108183 
0.2162 -0.1384 31.4244 0.2392036 -0.9709561 0.005096471 
0.0208 -0.1444 31.424 -0.8357615 -0.5490803 0.0036757 
-0.0454 0.0396 31.424 -0.7731395 0.6341256 0.01182869 
0.2938 0.6942 -0.0004 0.3224191 0.9225627 0.2119526 
-0.5224 0.429 -0.0009999999 -0.7752099 0.5906388 0.2240436 
-0.5224 -0.429 -0.0009999999 -0.7981823 -0.5630762 0.2141266 
0.2938 -0.6942 -0.0004 0.2950736 -0.9353161 0.1952318 
0.798 0 0 0.9809524 -0.01335526 0.1937883 
1.882 -1.2988 34.3024 -0.8691817 -0.4275533 0.2484379 
1.9088 -1.3634 34.0468 -0.4347155 -0.8494762 -0.2990193 
3.1458 -1.552 34.734 -0.2379979 -0.5961893 0.7667564 
3.151 -1.5424 34.3806 -0.04760439 -0.4612443 -0.8859952 
2.883 -0.8362 34.7354 0.07466144 0.3318193 0.9403838 
3.5682 -0.454 34.4616 0.5390039 0.2790941 0.7947209 
1.683 -0.519 34.186 -0.3801861 0.1512267 0.9124632 
2.8562 -0.078 34.3522 -0.09102992 0.7381501 0.6684669 
2.9148 -0.0564 34.085 0.5233487 0.728223 -0.4424902 
3.6742 -0.4698 34.2298 0.7561918 -0.316459 -0.572737 
2.906 -0.8825999 34.475 0.3880513 -0.2909931 -0.8744937 
1.9022 -0.6772 33.7746 0.2324037 -0.3482003 -0.9081548 
0.049 -0.167 32.593 0.1136918 -0.09963766 -0.9885072 
0.0058 -0.1236 32.797 -0.8347417 0.2523068 0.4894361 
1.1488 0.3442 32.8664 0.06853943 0.841603 -0.5357301 
1.3636 0.1512 33.5206 -0.2550874 0.8152093 0.5199656 
0.7284 -1.117 33.0204 -0.3846341 -0.8664815 -0.3182237 
0.575 -1.0512 33.3236 -0.5955563 -0.6744176 0.436433 
1.1002 -0.46 33.177 0.4223819 -0.4048303 -0.8109907 
0.9158 -0.337 33.5266 -0.5747167 0.175171 0.7993847 
1.0902 -1.0374 33.5134 -0.1009744 -0.9694118 0.2237071 
3.8112 -1.9914 34.3866 -0.1399404 -0.9859838 -0.0908444 
3.7002 -1.189 34.2912 -0.1785022 -0.024755 -0.9836282 
5.0416 -1.6644 34.0414 0.8895463 -0.1904345 -0.4152614 
3.7668 -1.158 34.5984 0.3315634 0.06795108 0.9409827 
4.219 -0.7148 34.2124 0.12304 0.9604799 -0.2496789 
1.7804 -1.3056 34.0072 0.3370092 -0.9045758 0.2610888 
3.2206 0.1652 32.3522 0.3381181 -0.4905364 0.8031502 
3.153 0.0002 32.1682 -0.1663783 -0.9775886 0.1289918 
4.0754 0.6074 31.8346 0.4002627 -0.8564582 -0.3259894 
2.3602 0.5892 32.5186 0.09161147 -0.03053972 0.9953263 
3.715 0.933 32.2742 0.428542 0.07850544 0.9001048 
2.663 1.1246 32.3816 -0.01237203 0.6583328 0.7526254 
3.7184 1.6158 32.0376 0.4479081 0.7739231 -0.4476845 
2.6082 1.1318 32.2318 -0.1661494 0.4721648 -0.8657106 
2.312 0.5774 32.3112 -0.09191867 0.01176112 -0.9956971 
3.6452 0.9177999 32.1918 -0.3929148 0.05746295 -0.9177778 
1.4404 1.0858 32.1432 -0.1017156 0.1496634 -0.9834911 
0.049 0.0146 32.7662 -0.8412336 -0.1490499 -0.5197214 
1.4936 1.0678 32.4076 0.4165203 0.6521936 0.6333675 
-0.011 0.0104 33.0046 -0.1774982 -0.07133753 0.9815322 
1.2044 -0.3254 32.5436 0.2197184 -0.808999 0.5452014 
1.1628 -0.3876 32.4018 -0.1968637 -0.8663928 -0.4589207 
1.705 -0.121 32.4176 0.2588988 -0.6681256 0.6975526 
2.889 -0.0156 32.311 0.9446021 -0.3258245 -0.03956574 
1.3328 0.3408 32.7026 0.1500661 -0.003198833 0.9886708 
1.6764 -0.1762 32.0846 0.1069405 -0.718061 -0.6877152 
1.2614 0.3346 32.3454 0.1121334 0.08299471 -0.9902212 
0.6486 0.1596 32.5092 -0.3435103 -0.08541571 -0.9352565 
0.7162 0.1814 32.7684 0.2289505 -0.02278812 0.9731713 
4.4798 1.1218 31.6048 0.8205466 0.1481881 0.5520357 
4.696 0.536 31.2008 0.3738587 0.2234535 -0.9001656 
3.8794 1.6538 31.8992 -0.6583644 0.6605303 0.36091 
4.3104 1.6678 31.1086 -0.2824289 0.9016973 -0.3273775 
4.2788 1.069 31.4716 -0.78884 -0.2109052 -0.5772786 
4.9178 1.2392 30.1114 0.09755995 0.261478 -0.9602663 
4.6844 0.489 30.9638 -0.1384221 -0.8765329 0.4610093 
1.769 1.1988 32.3134 -0.392836 0.9190611 0.0317304 
2.19 1.489 32.8952 0.1756419 -0.9654864 0.1923172 
2.0664 1.534 32.6542 0.3814103 -0.734373 -0.5614467 
2.8138 2.6692 32.5558 0.8289158 -0.3436271 0.4413829 
2.7046 2.5874 32.3418 0.003388117 -0.4425658 -0.8967296 
2.252 2.7034 33.0112 0.2262571 0.289848 0.929944 
1.9778 3.4324 32.6732 0.260237 0.9352333 0.2400318 
1.385 1.6838 32.9712 0.2968321 -0.09064227 0.9506181 
1.4046 2.945 33.0766 -0.3166598 0.369331 0.8736826 
1.3372 2.8758 32.8066 -0.6620733 0.5744789 -0.4812827 
1.8976 3.3412 32.559 -0.1524813 0.3097441 -0.9385138 
2.1114 2.6734 32.6028 -0.1028886 0.006629454 -0.9946708 
1.3698 1.6834 32.7342 -0.1462145 -0.1381262 -0.9795624 
-0.091 0.0244 32.652 -0.3766756 -0.1257592 -0.9177691 
-0.1112 -0.0582 32.9092 -0.09714674 -0.5446884 0.8329928 
0.0008 1.1872 32.662 -0.9163656 0.3419619 -0.2081732 
0.467 1.48 32.8982 -0.5502288 0.2903929 0.7828923 
1.0474 0.3058 32.334 0.4895108 -0.8382372 -0.2402866 
1.0126 0.3704 32.5994 0.5814183 -0.6348978 0.5087804 
0.6876 0.9378 32.5592 0.02274737 0.03128987 -0.9992515 
0.7248 0.899 33.0004 0.1535163 -0.2086277 0.9658712 
1.2852 0.8002 32.6404 0.7788717 -0.6271576 -0.005661831 
3.178 3.0044 31.9266 0.7432994 -0.5840412 -0.326193 
2.5426 3.213 32.2312 -0.4535981 -0.3686479 -0.8113862 
3.1134 4.1436 31.2212 0.1386144 0.4047576 -0.9038569 
2.7082 3.3726 32.4946 0.554868 0.4594524 0.6935596 
2.1878 3.8412 32.0966 -0.8888772 0.4572386 0.02881345 
1.9912 1.3734 32.648 0.95249 0.1886969 -0.2390736 
-1.3326 -2.6246 33.8256 -0.8851869 0.4474739 0.1273236 
-1.1892 -2.7246 33.625 -0.5587955 0.3321013 -0.7599055 
-1.2978 -3.8304 33.83 -0.6140137 -0.2896723 -0.7342188 
-0.4314 -2.1038 33.6528 -0.2067129 0.6203014 0.7566347 
-0.7824 -3.3468 34.3834 -0.2236157 0.1196132 0.9673101 
-0.0854 -2.5564 33.9294 0.4499069 0.2751326 0.8496386 
-0.1076 -3.7226 34.2904 0.5872552 -0.7321395 0.3451129 
0.0514 -2.6702 33.7032 0.6328947 -0.4858731 -0.6028031 
-0.3988 -2.1542 33.505 0.1361298 -0.4255888 -0.8946187 
-0.657 -3.3896 34.0328 0.302064 -0.2698349 -0.9143011 
0.4338 -1.6784 33.186 0.3388557 -0.5683019 -0.7498065 
0.166 0.1074 32.5198 0.3152276 0.3082275 -0.8975675 
0.4218 -1.674 33.4492 0.1741901 -0.2355577 0.9561226 
0.09980001 0.2336 32.827 -0.1610922 0.6196899 0.7681366 
-0.753 -0.878 32.8666 -0.9461573 0.32273 -0.02513506 
-0.6864 -0.9306 32.728 -0.4708423 -0.07997886 -0.8785846 
-0.7882 -1.399 33.0622 -0.8599388 0.3367258 0.3835636 
-1.2322 -2.6196 33.5584 -0.4312854 -0.8732615 -0.226732 
-0.1922 -1.142 33.2256 -0.2128417 0.4080154 0.8878186 
-0.6536 -1.477 32.9174 -0.3637192 -0.3506406 -0.8629946 
-0.1214 -1.262 32.9646 0.08827625 -0.6407144 -0.7626876 
0.0018 -0.6718 32.6952 0.1580819 -0.3433136 -0.9258218 
-0.0616 -0.5618 33.0022 -0.2671469 0.3321238 0.9046139 
-0.8144 -4.3634 34.037 -0.3182159 -0.4303322 0.8447207 
-1.444 -4.65 33.5894 0.3814375 -0.8653968 -0.3249522 
-0.083 -3.9282 34.2788 0.9248759 0.3534162 0.1403624 
-0.2442 -4.696 33.8174 0.9613597 -0.2703764 -0.05180863 
-0.7756 -4.308 33.9154 0.2788067 0.3069578 -0.9099692 
-0.6958 -5.7112 33.041 0.3860417 -0.6635194 -0.6408696 
-1.3402 -4.7094 33.4338 -0.7378936 0.6737983 0.03884251 
0.4888 -1.9418 33.4884 0.9431576 0.2210822 0.2481464 
-1.3672 1.9904 33.6676 0.9745515 0.2183999 0.05050634 
-1.4578 1.9478 33.4412 0.7006289 0.5343686 -0.4728312 
-2.54 2.6954 33.5998 0.3609053 0.6196005 0.6970242 
-2.4612 2.6928 33.4072 0.3834112 0.2957713 -0.8749374 
-2.5618 2.038 33.8606 -0.3198773 -0.02101636 0.9472259 
-3.2836 1.9092 33.4744 -0.9177595 0.2063787 0.3393012 
-1.5302 1.1674 33.677 0.1400188 -0.08892988 0.9861472 
-2.8418 1.2188 33.647 -0.375933 -0.6224657 0.686448 
-2.791 1.2444 33.3342 -0.6355861 -0.3656109 -0.6799698 
-3.212 1.878 33.3648 -0.3139478 0.233426 -0.9202983 
-2.548 2.0512 33.4524 -0.07249069 0.2901112 -0.9542435 
-1.578 1.2584 33.311 0.09174887 0.2429472 -0.9656909 
-0.014 -0.0568 32.6024 0.1281437 -0.07401299 -0.9889901 
0.003 -0.0902 32.736 0.5651898 -0.4974191 0.6581298 
-1.1694 -0.0132 32.6324 -0.3212485 -0.7871761 -0.5264533 
-1.4262 0.3022 33.173 -0.2039923 -0.7551224 0.6230388 
-0.2698 1.0508 32.7538 0.6578838 0.5043828 -0.5592734 
-0.1508 1.0656 33.0454 0.8250754 0.5183155 0.2249435 
-0.8762 0.7138 32.7728 -0.08208693 0.3909221 -0.9167561 
-0.8376001 0.6092 33.1178 0.3124949 -0.2249233 0.9229066 
-0.63 1.3336 33.0868 0.4581243 0.887145 0.05564093 
-2.8612 3.3118 33.1968 0.610792 0.7874773 0.08253948 
-3.1258 2.6164 33.3572 0.3062409 -0.1366572 -0.9420941 
-3.9524 3.4436 32.6396 -0.4829409 0.3010667 -0.8222694 
-3.209 2.6556 33.5314 -0.4157624 0.2750567 0.8668826 
-3.6546 2.4016 33.0798 -0.542905 -0.8014643 -0.2508171 
-1.25 1.9836 33.3822 -0.2445502 0.9611907 0.1277015 
-2.596 -0.8980001 33.078 0.03436286 0.9867969 0.1582752 
-2.517 -0.9665999 32.8534 -0.2551744 0.8211187 -0.510539 
-3.5338 -1.855 32.8026 -0.6754438 0.4815221 0.558491 
-3.4196 -1.802 32.5764 0.05186218 0.5359772 -0.8426379 
-2.9412 -2.047 33.1654 -0.2656728 -0.3234937 0.9081684 
-2.9354 -2.8684 32.8194 -0.3954032 -0.7293167 0.5583488 
-1.8636 -1.253 33.1678 -0.1479092 0.09164271 0.9847459 
-2.202 -2.4332 33.0798 0.3470402 -0.4821457 0.8044245 
-2.1318 -2.4198 32.888 0.5585875 -0.7352775 -0.3838581 
-2.8316 -2.8408 32.5318 -0.1193463 -0.3168904 -0.9409235 
-2.8526 -2.0234 32.835 -0.0142605 0.02833468 -0.9994968 
-1.8912 -1.259 32.759 0.07332253 0.1836858 -0.9802466 
-0.1134 -0.0254 32.6774 0.3645149 0.0735475 -0.9282886 
-0.131 -0.031 32.7836 0.4090768 0.4005004 0.819912 
-0.4512 -1.092 32.6412 0.8381899 -0.5153556 -0.1784555 
-0.945 -1.2798 32.8924 0.5240065 -0.4090588 0.7470529 
-1.2598 0.0068 32.46 -0.2527444 0.8592818 -0.4446968 
-1.2874 0.057 32.775 -0.3897433 0.8419436 0.3731368 
-1.046 -0.6892 32.6614 -0.08432163 0.0103345 -0.996385 
-1.0354 -0.6656 33.0526 0.07238248 0.1809768 0.9808202 
-1.6198 -0.378 32.7506 -0.7441526 0.6560364 -0.1259095 
-4.1088 -1.9958 32.147 -0.5799492 0.7905664 -0.1966306 
-3.3834 -2.407 32.3556 0.5131397 0.2749654 -0.8130693 
-4.1806 -3.0456 31.626 -0.2970122 -0.6563451 -0.6935379 
-3.5496 -2.5242 32.6234 -0.5595635 -0.3975413 0.7272205 
-3.3212 -3.0144 32.2726 0.6948826 -0.7190909 -0.006822364 
-2.3294 -0.8292 32.84 -0.9693088 0.2009739 -0.141598 
1.3658 -2.8668 32.327 -0.690183 -0.4621431 0.5568402 
1.347 -2.8056 32.1696 -0.980948 -0.05301999 -0.1868954 
2.0142 -3.5424 31.6908 -0.8020065 -0.4046047 -0.4394095 
1.5284 -1.8878 32.434 -0.1469406 -0.06908832 0.9867296 
2.346 -3.1414 32.3316 0.2452681 -0.4272464 0.8702322 
2.267 -1.9414 32.4544 0.6563545 0.3086652 0.6884217 
2.853 -2.8134 31.917 0.8682563 -0.07619485 -0.4902298 
2.1594 -1.8978 32.0688 0.2797271 0.3870701 -0.8785951 
1.4958 -1.8482 32.294 -0.2233396 0.1357926 -0.9652357 
2.2536 -2.9178 31.9188 -0.1368136 0.3737312 -0.9173914 
1.694 -0.8522 32.1166 0.07636619 0.09110171 -0.9929092 
0.2244 0.1388 32.8516 -0.4580753 0.8145636 -0.3558835 
1.764 -0.942 32.41 0.7062235 -0.2013986 0.6787392 
0.2792 0.0536 32.9816 0.02155132 0.1351334 0.990593 
0.2196 -1.1688 32.676 -0.782334 -0.4802985 0.3965689 
0.2308 -1.0776 32.4732 -0.7571719 -0.06436063 -0.6500373 
0.6306 -1.5166 32.4522 -0.4965166 -0.5852642 0.6410438 
1.2184 -2.5854 32.2184 0.02232108 -0.8495976 -0.5269589 
0.9636 -1.004 32.6836 0.1246577 -0.199999 0.9718338 
0.651 -1.4428 32.2806 -0.4652638 -0.2487872 -0.8494908 
0.9242 -0.9488 32.454 0.02249143 -0.1116678 -0.993491 
0.551 -0.3998 32.487 -0.2151925 0.2044509 -0.9549304 
0.622 -0.4808 32.8098 0.1616007 -0.2098125 0.9642946 
2.7288 -3.7828 31.4972 0.4737476 -0.7559808 0.4517259 
2.0922 -4.2144 30.9324 0.158592 -0.2243985 -0.9615061 
2.9676 -2.9838 31.7416 0.5996902 0.797621 0.06459426 
3.0102 -3.406 30.9814 0.7018277 0.6097493 -0.3682984 
2.5398 -3.5006 31.3092 -0.4610454 0.6773522 -0.5732636 
2.86 -4.0324 29.8688 0.2023702 0.2291627 -0.9521192 
2.1964 -4.0204 30.831 -0.9044347 -0.2591885 0.33885 
1.8832 -1.154 32.2872 0.5095756 0.8601852 -0.02035448 
-1.7422 0.9006 34.2886 0.7386654 0.6740245 -0.008031923 
-1.8158 0.862 34.1052 0.1128715 0.8133966 -0.570654 
-3.0262 0.868 34.6826 0.2433607 0.7815732 0.5743857 
-3.0264 0.8416 34.5266 -0.008640044 0.4627507 -0.8864464 
-2.6136 0.3186 34.8064 0.2207239 -0.1522717 0.9633765 
-3.3154 -0.2444 34.733 -0.5118001 -0.3499184 0.7846132 
-1.4644 0.1742 34.1478 0.4349265 0.05729124 0.8986416 
-2.4578 -0.4358 34.5048 0.3059916 -0.5663689 0.765242 
-2.5152 -0.51 34.2822 -0.4418918 -0.7959538 -0.4137502 
-3.2442 -0.2224 34.4842 -0.6152549 -0.02410181 -0.7879598 
-2.7426 0.3126 34.4198 -0.3740634 0.215691 -0.9019723 
-1.5506 0.1876 33.975 -0.3150112 0.2408025 -0.9180316 
0.188 -0.0432 32.5812 -0.1926562 0.01969159 -0.9810687 
0.2312 -0.0526 32.7782 0.9037246 -0.007701254 0.4280451 
-0.774 -0.7118 32.9798 0.07480539 -0.8985892 -0.4323677 
-0.9902 -0.496 33.6202 0.429866 -0.6960602 0.5750785 
-0.5976 0.697 33.0628 0.08311119 0.8297299 -0.5519429 
-0.4944 0.7442 33.2228 0.4185959 0.9017461 0.107849 
-0.855 0.1066 33.219 -0.5822539 0.2414136 -0.7763376 
-0.6266 0.0606 33.573 0.6091152 0.04163871 0.7919879 
-0.9516 0.6916 33.4806 -0.09869372 0.9905781 -0.09494508 
-3.7694 1.2818 34.4374 0.224889 0.9523951 -0.2058358 
-3.4976 0.459 34.424 0.09522855 0.05984632 -0.9936549 
-4.9266 0.6466 34.2212 -0.8598043 0.01293514 -0.5104599 
-3.57 0.4362 34.9172 -0.1625664 0.04444627 0.985696 
-3.9412 -0.1786 34.4122 0.02360842 -0.9658264 -0.2581125 
-1.6024 0.8026 33.968 -0.7276025 0.6158477 0.3022021 
1.3026 1.694 34.2684 0.8530985 -0.4296011 0.2960841 
1.2118 1.7742 34.0518 0.615274 -0.4751304 -0.6290382 
1.2742 2.8584 34.04 0.7990885 -0.05890764 -0.5983206 
0.411 1.2594 34.0498 0.03639632 -0.6015553 0.7980016 
0.786 2.544 34.622 0.1013519 0.01360972 0.9947575 
0.0496 1.7628 34.2226 -0.6544513 -0.1303182 0.7447891 
0.1834 2.93 34.3066 -0.57583 0.8165658 0.04050021 
-0.0176 1.871 33.9328 -0.5168424 0.3572332 -0.7779835 
0.4056 1.3092 33.9024 0.1108622 0.3873346 -0.9152494 
0.6866 2.537 34.1608 -0.1649783 0.09153012 -0.9820409 
-0.435 1.1934 33.3928 0.1458506 0.8347433 -0.5309721 
-0.1038 -0.1174 32.3876 -0.07949782 -0.01520907 -0.9967191 
-0.436 1.044 33.6866 -0.6277928 -0.08342199 0.7738972 
-0.1598 -0.3578 32.574 -0.3388866 -0.8915905 0.3003701 
0.8118 0.1842 33.2332 0.7685767 -0.6223592 0.1481857 
0.7952 0.333 33.0076 0.6667518 0.1072755 -0.7375188 
0.7878 0.612 33.5028 0.57543 -0.592621 0.5636317 
1.139 1.4156 33.9974 0.608102 0.6753271 0.4173072 
0.1478 0.453 33.5426 -0.09488582 -0.6034424 0.7917411 
0.835 0.826 33.191 0.7211422 0.3954034 -0.5688674 
0.1682 0.694 33.2466 0.09354379 0.8560469 -0.5083632 
0.0866 0.347 32.855 0.1697985 0.6270756 -0.7602267 
0.0254 0.1282 33.0884 -0.1631106 -0.6944553 0.7008044 
1.0262 3.5846 34.1844 0.2835436 0.5370499 0.7944687 
1.6622 3.6008 33.6578 0.1485294 0.6433362 -0.7510377 
0.2076 3.1494 34.2368 -0.9829187 -0.1799754 0.03846841 
0.4096 3.8378 33.6428 -0.9253737 0.2491327 -0.2856863 
0.9406 3.3778 33.8682 -0.1706015 -0.456919 -0.872995 
1.154 4.631 32.8076 -0.04718425 0.4124753 -0.909746 
1.6014 3.6586 33.4634 0.7676943 -0.6333858 0.09730288 
-0.261 1.2372 33.748 -0.9983119 -0.04801636 -0.03267568 
0.1016 -2.0676 34.5056 -0.9066396 -0.05338227 0.4185151 
0.1944 -2.0932 34.3 -0.8476163 0.04937237 -0.5283076 
0.6086 -3.1258 34.2534 -0.7583484 -0.4427297 -0.478433 
0.5472 -1.1772 34.3296 -0.2456319 0.5342004 0.808885 
1.0012 -2.4836 34.7274 0.06788141 -0.02230706 0.997444 
1.1402 -1.4764 34.3182 0.6625213 0.4032804 0.6312135 
1.6094 -2.342 34.4726 0.9654109 -0.2351216 -0.1126919 
1.1418 -1.5028 34.172 0.7295976 -0.1149598 -0.6741451 
0.6294 -1.3872 33.8864 0.1953087 -0.3913884 -0.8992606 
1.0404 -2.451 34.3522 0.3180116 -0.01644489 -0.9479442 
1.0992 -0.6872 33.513 0.3629594 -0.8027847 -0.4730721 
0.1236 0.137 32.5178 0.02157473 0.07920697 -0.9966247 
1.0038 -0.5942 33.6302 0.5879089 0.4029759 0.7014083 
0.057 0.378 32.713 -0.05749332 0.9732425 0.2224716 
-0.4682 -0.5616 33.4894 -0.9605451 0.1302829 0.2457221 
-0.4098 -0.7524 33.164 -0.4698837 -0.5820593 -0.6636387 
-0.1982 -0.9022 33.7642 -0.7122262 0.1883537 0.6762076 
0.0942 -1.965 34.2608 -0.3902829 -0.8987269 0.1999229 
0.3252 -0.4508 33.6758 -0.1382879 0.5992227 0.7885484 
-0.07759999 -1.1122 33.4264 -0.3733973 -0.756716 -0.5366147 
0.4148 -0.6734 33.3892 0.3090529 -0.7139927 -0.6282523 
0.2474 -0.2974 33.0432 0.2137185 -0.6293399 -0.7471651 
0.2038 -0.0826 33.2622 -0.08117053 0.7105712 0.6989277 
1.3194 -3.4956 34.3602 0.1225736 -0.5798185 0.8054727 
0.752 -3.8968 33.9242 0.3338381 -0.6586519 -0.6743366 
1.9154 -2.646 34.3784 0.6607728 0.7473108 -0.07004282 
1.8542 -3.435 33.8142 0.8780774 0.2031529 -0.4332537 
1.2666 -3.3256 34.102 -0.1756686 0.4269777 -0.8870348 
1.6632 -4.5324 33.0124 0.1454761 -0.2795311 -0.9490517 
0.9048 -3.887 33.74 -0.9790391 0.107269 0.1731355 
1.1944 -0.8190001 33.8288 0.9056522 0.3690917 -0.2087232 
-1.4126 -0.8764 31.3888 -0.9143121 0.2721569 0.2999399 
-1.296 -0.8068 31.2968 -0.06494241 0.9967753 -0.04713219 
-1.3388 -1.3862 30.7366 -0.3646596 0.6642607 -0.652519 
-0.7732 -1.1594 32.0122 -0.5546885 -0.1143182 0.8241675 
-1.0742 -1.7588 31.372 -0.6984969 -0.5730734 0.4285895 
-0.3738 -1.7056 31.9136 0.09883016 -0.7541004 0.6492804 
-0.4268 -2.1434 31.441 0.5812596 -0.7391239 -0.3403427 
-0.294 -1.5876 31.7602 0.8783612 -0.01721066 -0.4776874 
-0.5914 -1.0646 31.8142 0.5562702 0.3668163 -0.7456604 
-0.7644 -1.5676 31.178 0.7471693 0.4452737 -0.4934261 
0.2902 -1.2674 32.1566 0.8589032 0.08841515 -0.5044482 
-0.009000001 -0.062 32.7962 0.69449 0.6733504 0.2535408 
0.1378 -1.4012 32.3004 -0.1191149 -0.9146145 0.3863833 
-0.1184 -0.112 32.9864 -0.06441435 0.1626507 0.9845788 
-0.9122 0.0098 32.1656 -0.8007334 0.5791687 0.1529366 
-0.762 0.0956 32.0396 0.08045238 0.8931105 -0.4425845 
-0.9222 -0.3214 31.9618 -0.9801621 0.03347452 0.19535 
-1.2064 -0.6948 31.5166 -0.6930202 -0.09060965 -0.7152013 
-0.4388 -0.6952 32.3514 -0.6443532 -0.4015112 0.6508439 
-0.7208 -0.2528 31.7742 -0.06807938 0.5599031 -0.8257565 
-0.182 -0.5596 32.0694 0.4392171 0.06908355 -0.8957208 
-0.059 -0.2796 32.356 0.6781183 0.4955872 -0.5427237 
-0.384 -0.492 32.6926 -0.6698076 -0.4062433 0.6215498 
-1.0178 -1.956 30.6856 -0.6998132 -0.7087045 -0.08943933 
-1.3788 -1.3412 30.1752 0.1943898 -0.1534894 -0.9688414 
-0.3156 -2.38 31.2922 0.8301442 -0.2409999 0.5027721 
-0.4966 -2.1708 30.6016 0.783427 -0.5574369 -0.2747841 
-0.8392 -1.7658 30.678 0.6838704 0.7185491 -0.1265245 
-0.5862 -1.9148 29.4034 0.5825227 -0.2399592 -0.7765867 
-1.2236 -1.4552 30.0622 -0.6441341 0.6736633 0.3623108 
0.0756 -1.4172 32.1404 0.8688633 -0.3934281 0.3004844 
1.4142 0.9756 31.3572 0.9547074 0.1737895 0.2415182 
1.4008 0.7926 31.3522 0.553565 -0.725645 0.4086625 
1.286 1.1084 30.5026 0.6167262 -0.7436476 -0.2581415 
0.9202 1.2442 31.8864 0.6050628 0.4016819 0.6874232 
1.2134 1.6018 30.9424 0.7192955 0.6928151 0.05119742 
0.64 1.7338 31.6322 -0.06321826 0.9246504 0.3755329 
0.5724 1.8964 30.8554 -0.5503259 0.5119556 -0.659578 
0.4494 1.4902 31.4738 -0.9125258 -0.1563816 -0.3779436 
0.7244 1.0516 31.7016 -0.6169388 -0.618463 -0.4867135 
0.9614 1.3868 30.9038 -0.7964361 -0.5692187 -0.204156 
0.002 1.2628 31.9688 -0.2620613 -0.1887394 -0.9464151 
-0.129 0.135 32.7062 -0.740782 -0.6566424 0.1416432 
0.1516 1.382 32.1126 0.1504166 0.9130731 0.3790413 
0.0234 0.2958 32.9198 0.06554945 0.203923 0.97679 
0.9252 0.284 32.4218 0.8500336 -0.1970555 0.4884793 
0.8232 0.0646 32.2558 0.1683605 -0.8009424 -0.5745834 
0.8856 0.5646 32.1172 0.8660727 0.1356549 0.481161 
1.3364 0.8428 31.4858 0.8624424 -0.3311676 -0.3827808 
0.528 0.8282 32.3248 0.5221687 0.417555 0.7436315 
0.84 0.4658 32.0268 0.3263096 -0.5412661 -0.7749537 
0.4366 0.7486 32.2026 -0.3218616 -0.3268823 -0.888568 
0.2232 0.4786 32.3658 -0.3507234 -0.3930048 -0.8500237 
0.3206 0.6012 32.577 0.4572197 0.498197 0.7367156 
1.0306 1.4168 29.9928 0.6935601 0.6160409 -0.3734542 
1.3086 0.8138 29.8506 -0.1617992 -0.5868167 -0.7933897 
0.576 1.871 30.544 -0.6647051 0.576115 0.4756666 
0.393 1.551 29.7084 -0.8037229 0.5682478 -0.1764198 
0.8356 1.1882 30.1534 -0.605154 -0.744791 0.2812029 
0.4484 0.84 28.3548 -0.4585386 -0.2084089 -0.8638912 
1.2102 0.747 29.5556 0.8175933 -0.4357693 0.3763593 
0.2032 1.4252 31.9608 -0.8952323 0.2766386 0.3493281 
0.456 -1.0046 31.4716 -0.05195056 -0.805087 0.5908774 
0.3276 -0.9722 31.4854 -0.64401 -0.7325073 0.2206446 
0.6476 -0.9115999 30.609 0.2625281 -0.957092 -0.1226939 
0.4676 -0.8416 30.649 -0.9737775 0.2264242 0.02212643 
1.0332 -0.6018 30.976 0.8750458 -0.4676292 -0.1249706 
1.3466 0.031 30.5452 0.8393891 -0.231664 -0.4916886 
0.9184 -0.5822 31.8372 0.7353213 -0.6380512 0.2284585 
1.3214 0.0752 31.2156 0.9522588 -0.06920623 0.2973445 
1.2502 0.3438 31.2114 0.3021359 0.9435686 -0.1356181 
1.1234 0.2264 30.4932 -0.6307069 0.4679095 -0.6190876 
0.8898 -0.4872 30.9632 -0.8265039 0.4835816 -0.2881668 
0.7018 -0.4198 31.7266 -0.8850077 0.4351645 -0.1655087 
-0.0182 0.0058 33.0016 -0.7969982 0.5982059 -0.08332861 
0.2282 -0.1622 33.0436 0.3527713 -0.3393062 0.8720228 
0.6256 0.3694 32.3746 0.1138088 0.9377536 0.3281244 
0.8814 0.1358 32.1878 0.8572646 0.105754 0.5038983 
-0.0932 -0.6702 32.315 -0.9832467 -0.1772592 -0.04248549 
-0.0436 -0.8318 32.3696 -0.5801558 -0.8075493 0.1062234 
0.3498 -0.2074 32.2242 -0.7421614 0.4260989 -0.5173357 
0.6088 -0.3898 32.3746 0.6297444 -0.5675947 0.5303379 
0.1684 -0.7192 32.0586 -0.6829485 -0.581847 -0.4416284 
0.3036 -0.8627999 30.01 -0.5059732 -0.8468456 -0.1638399 
0.763 -0.3922 30.3402 -0.7872214 0.5496207 0.2796419 
0.3446 -0.0392 28.9446 -0.4568928 0.411271 -0.7887365 
0.9064 -0.481 30.2542 0.7810196 -0.504805 -0.3676689 
1.0138 0.2056 30.077 0.450768 0.8112113 0.3724841 
0.3036 -0.9458 31.5938 -0.2675892 -0.5717889 -0.7755343 
3 0 1 2 
3 0 2 3 
3 1 4 5 
3 1 5 2 
3 4 6 7 
3 4 7 5 
3 6 8 9 
3 6 9 7 
3 8 0 3 
3 8 3 9 
3 10 11 12 
3 13 10 12 
3 14 13 12 
3 15 14 12 
3 11 15 12 
3 16 17 18 
3 17 19 18 
3 19 20 18 
3 20 21 18 
3 21 16 18 
3 22 23 24 
3 22 24 25 
3 23 26 27 
3 23 27 24 
3 26 28 29 
3 26 29 27 
3 28 30 31 
3 28 31 29 
3 30 22 25 
3 30 25 31 
3 25 24 17 
3 25 17 16 
3 24 27 19 
3 24 19 17 
3 27 29 20 
3 27 20 19 
3 29 31 21 
3 29 21 20 
3 31 25 16 
3 31 16 21 
3 32 33 4 
3 32 4 1 
3 33 34 6 
3 33 6 4 
3 34 35 8 
3 34 8 6 
3 35 36 0 
3 35 0 8 
3 36 32 1 
3 36 1 0 
3 9 3 37 
3 9 37 38 
3 7 9 38 
3 7 38 39 
3 5 7 39 
3 5 39 40 
3 2 5 40 
3 2 40 41 
3 3 2 41 
3 3 41 37 
3 38 37 42 
3 38 42 43 
3 39 38 43 
3 39 43 44 
3 40 39 44 
3 40 44 45 
3 41 40 45 
3 41 45 46 
3 37 41 46 
3 37 46 42 
3 43 42 47 
3 43 47 48 
3 44 43 48 
3 44 48 49 
3 45 44 49 
3 45 49 50 
3 46 45 50 
3 46 50 51 
3 42 46 51 
3 42 51 47 
3 32 36 52 
3 32 52 53 
3 33 32 53 
3 33 53 54 
3 34 33 54 
3 34 54 55 
3 35 34 55 
3 35 55 56 
3 36 35 56 
3 36 56 52 
3 53 52 11 
3 53 11 10 
3 54 53 10 
3 54 10 13 
3 55 54 13 
3 55 13 14 
3 56 55 14 
3 56 14 15 
3 52 56 15 
3 52 15 11 
3 57 58 59 
3 59 58 60 
3 61 62 63 
3 64 63 62 
3 64 62 65 
3 65 62 66 
3 67 68 66 
3 68 65 66 
3 69 70 71 
3 71 70 72 
3 69 73 70 
3 70 73 74 
3 61 63 59 
3 63 57 59 
3 67 60 68 
3 58 68 60 
3 71 65 75 
3 75 65 68 
3 71 72 65 
3 65 72 64 
3 72 76 64 
3 64 76 63 
3 69 71 75 
3 73 77 74 
3 73 69 77 
3 77 69 75 
3 78 79 80 
3 59 60 78 
3 61 59 81 
3 81 59 78 
3 79 82 80 
3 81 78 80 
3 82 81 80 
3 67 79 60 
3 60 79 78 
3 74 77 70 
3 70 77 76 
3 72 70 76 
3 82 61 81 
3 67 82 79 
3 77 83 76 
3 76 83 63 
3 77 75 83 
3 83 75 68 
3 63 68 57 
3 57 68 58 
3 61 67 62 
3 62 67 66 
3 61 82 67 
3 63 83 68 
3 84 85 86 
3 87 88 89 
3 89 88 90 
3 91 89 90 
3 92 91 93 
3 91 90 93 
3 94 95 96 
3 96 95 97 
3 97 95 98 
3 98 95 99 
3 86 88 84 
3 87 84 88 
3 93 86 92 
3 85 92 86 
3 100 101 102 
3 102 101 87 
3 103 101 100 
3 103 104 101 
3 101 104 92 
3 105 94 104 
3 97 106 96 
3 98 106 97 
3 99 103 98 
3 98 103 100 
3 99 105 103 
3 103 105 104 
3 88 86 107 
3 107 86 108 
3 88 107 109 
3 109 107 110 
3 111 110 112 
3 107 113 112 
3 110 107 112 
3 93 111 86 
3 86 111 108 
3 93 109 111 
3 111 109 110 
3 95 105 99 
3 94 105 95 
3 98 100 106 
3 106 100 102 
3 96 106 102 
3 113 111 112 
3 102 87 114 
3 114 87 89 
3 91 114 89 
3 104 114 92 
3 92 114 91 
3 87 101 92 
3 102 104 96 
3 96 104 94 
3 88 109 93 
3 107 108 111 
3 107 111 113 
3 88 93 90 
3 84 87 85 
3 85 87 92 
3 102 114 104 
3 115 116 117 
3 117 116 118 
3 119 120 121 
3 122 121 120 
3 122 120 123 
3 123 120 124 
3 125 126 124 
3 126 123 124 
3 127 128 129 
3 129 128 130 
3 127 131 128 
3 128 131 132 
3 119 121 117 
3 121 115 117 
3 125 118 126 
3 116 126 118 
3 129 123 133 
3 133 123 126 
3 129 130 123 
3 123 130 122 
3 130 134 122 
3 122 134 121 
3 127 129 133 
3 131 135 132 
3 131 127 135 
3 135 127 133 
3 136 137 138 
3 117 118 136 
3 119 117 139 
3 139 117 136 
3 137 140 138 
3 139 136 138 
3 140 139 138 
3 125 137 118 
3 118 137 136 
3 132 135 128 
3 128 135 134 
3 130 128 134 
3 140 119 139 
3 125 140 137 
3 135 141 134 
3 134 141 121 
3 135 133 141 
3 141 133 126 
3 121 126 115 
3 115 126 116 
3 119 125 120 
3 120 125 124 
3 119 140 125 
3 121 141 126 
3 142 143 144 
3 145 146 147 
3 147 146 148 
3 149 147 148 
3 150 149 151 
3 149 148 151 
3 152 153 154 
3 154 153 155 
3 155 153 156 
3 156 153 157 
3 144 146 142 
3 145 142 146 
3 151 144 150 
3 143 150 144 
3 158 159 160 
3 160 159 145 
3 161 159 158 
3 161 162 159 
3 159 162 150 
3 163 152 162 
3 155 164 154 
3 156 164 155 
3 157 161 156 
3 156 161 158 
3 157 163 161 
3 161 163 162 
3 146 144 165 
3 165 144 166 
3 146 165 167 
3 167 165 168 
3 169 168 170 
3 165 171 170 
3 168 165 170 
3 151 169 144 
3 144 169 166 
3 151 167 169 
3 169 167 168 
3 153 163 157 
3 152 163 153 
3 156 158 164 
3 164 158 160 
3 154 164 160 
3 171 169 170 
3 160 145 172 
3 172 145 147 
3 149 172 147 
3 162 172 150 
3 150 172 149 
3 145 159 150 
3 160 162 154 
3 154 162 152 
3 146 167 151 
3 165 166 169 
3 165 169 171 
3 146 151 148 
3 142 145 143 
3 143 145 150 
3 160 172 162 
3 173 174 175 
3 175 174 176 
3 177 178 179 
3 180 179 178 
3 180 178 181 
3 181 178 182 
3 183 184 182 
3 184 181 182 
3 185 186 187 
3 187 186 188 
3 185 189 186 
3 186 189 190 
3 177 179 175 
3 179 173 175 
3 183 176 184 
3 174 184 176 
3 187 181 191 
3 191 181 184 
3 187 188 181 
3 181 188 180 
3 188 192 180 
3 180 192 179 
3 185 187 191 
3 189 193 190 
3 189 185 193 
3 193 185 191 
3 194 195 196 
3 175 176 194 
3 177 175 197 
3 197 175 194 
3 195 198 196 
3 197 194 196 
3 198 197 196 
3 183 195 176 
3 176 195 194 
3 190 193 186 
3 186 193 192 
3 188 186 192 
3 198 177 197 
3 183 198 195 
3 193 199 192 
3 192 199 179 
3 193 191 199 
3 199 191 184 
3 179 184 173 
3 173 184 174 
3 177 183 178 
3 178 183 182 
3 177 198 183 
3 179 199 184 
3 200 201 202 
3 202 201 203 
3 204 205 206 
3 207 206 205 
3 207 205 208 
3 208 205 209 
3 210 211 209 
3 211 208 209 
3 212 213 214 
3 214 213 215 
3 212 216 213 
3 213 216 217 
3 204 206 202 
3 206 200 202 
3 210 203 211 
3 201 211 203 
3 214 208 218 
3 218 208 211 
3 214 215 208 
3 208 215 207 
3 215 219 207 
3 207 219 206 
3 212 214 218 
3 216 220 217 
3 216 212 220 
3 220 212 218 
3 221 222 223 
3 202 203 221 
3 204 202 224 
3 224 202 221 
3 222 225 223 
3 224 221 223 
3 225 224 223 
3 210 222 203 
3 203 222 221 
3 217 220 213 
3 213 220 219 
3 215 213 219 
3 225 204 224 
3 210 225 222 
3 220 226 219 
3 219 226 206 
3 220 218 226 
3 226 218 211 
3 206 211 200 
3 200 211 201 
3 204 210 205 
3 205 210 209 
3 204 225 210 
3 206 226 211 
3 227 228 229 
3 230 231 232 
3 232 231 233 
3 234 232 233 
3 235 234 236 
3 234 233 236 
3 237 238 239 
3 239 238 240 
3 240 238 241 
3 241 238 242 
3 229 231 227 
3 230 227 231 
3 236 229 235 
3 228 235 229 
3 243 244 245 
3 245 244 230 
3 246 244 243 
3 246 247 244 
3 244 247 235 
3 248 237 247 
3 240 249 239 
3 241 249 240 
3 242 246 241 
3 241 246 243 
3 242 248 246 
3 246 248 247 
3 231 229 250 
3 250 229 251 
3 231 250 252 
3 252 250 253 
3 254 253 255 
3 250 256 255 
3 253 250 255 
3 236 254 229 
3 229 254 251 
3 236 252 254 
3 254 252 253 
3 238 248 242 
3 237 248 238 
3 241 243 249 
3 249 243 245 
3 239 249 245 
3 256 254 255 
3 245 230 257 
3 257 230 232 
3 234 257 232 
3 247 257 235 
3 235 257 234 
3 230 244 235 
3 245 247 239 
3 239 247 237 
3 231 252 236 
3 250 251 254 
3 250 254 256 
3 231 236 233 
3 227 230 228 
3 228 230 235 
3 245 257 247 
3 258 259 260 
3 260 259 261 
3 262 263 264 
3 265 264 263 
3 265 263 266 
3 266 263 267 
3 268 269 267 
3 269 266 267 
3 270 271 272 
3 272 271 273 
3 270 274 271 
3 271 274 275 
3 262 264 260 
3 264 258 260 
3 268 261 269 
3 259 269 261 
3 272 266 276 
3 276 266 269 
3 272 273 266 
3 266 273 265 
3 273 277 265 
3 265 277 264 
3 270 272 276 
3 274 278 275 
3 274 270 278 
3 278 270 276 
3 279 280 281 
3 260 261 279 
3 262 260 282 
3 282 260 279 
3 280 283 281 
3 282 279 281 
3 283 282 281 
3 268 280 261 
3 261 280 279 
3 275 278 271 
3 271 278 277 
3 273 271 277 
3 283 262 282 
3 268 283 280 
3 278 284 277 
3 277 284 264 
3 278 276 284 
3 284 276 269 
3 264 269 258 
3 258 269 259 
3 262 268 263 
3 263 268 267 
3 262 283 268 
3 264 284 269 
3 285 286 287 
3 288 289 290 
3 290 289 291 
3 292 290 291 
3 293 292 294 
3 292 291 294 
3 295 296 297 
3 297 296 298 
3 298 296 299 
3 299 296 300 
3 287 289 285 
3 288 285 289 
3 294 287 293 
3 286 293 287 
3 301 302 303 
3 303 302 288 
3 304 302 301 
3 304 305 302 
3 302 305 293 
3 306 295 305 
3 298 307 297 
3 299 307 298 
3 300 304 299 
3 299 304 301 
3 300 306 304 
3 304 306 305 
3 289 287 308 
3 308 287 309 
3 289 308 310 
3 310 308 311 
3 312 311 313 
3 308 314 313 
3 311 308 313 
3 294 312 287 
3 287 312 309 
3 294 310 312 
3 312 310 311 
3 296 306 300 
3 295 306 296 
3 299 301 307 
3 307 301 303 
3 297 307 303 
3 314 312 313 
3 303 288 315 
3 315 288 290 
3 292 315 290 
3 305 315 293 
3 293 315 292 
3 288 302 293 
3 303 305 297 
3 297 305 295 
3 289 310 294 
3 308 309 312 
3 308 312 314 
3 289 294 291 
3 285 288 286 
3 286 288 293 
3 303 315 305 
3 316 317 318 
3 319 320 321 
3 321 320 322 
3 323 321 322 
3 324 323 325 
3 323 322 325 
3 326 327 328 
3 328 327 329 
3 329 327 330 
3 330 327 331 
3 318 320 316 
3 319 316 320 
3 325 318 324 
3 317 324 318 
3 332 333 334 
3 334 333 319 
3 335 333 332 
3 335 336 333 
3 333 336 324 
3 337 326 336 
3 329 338 328 
3 330 338 329 
3 331 335 330 
3 330 335 332 
3 331 337 335 
3 335 337 336 
3 320 318 339 
3 339 318 340 
3 320 339 341 
3 341 339 342 
3 343 342 344 
3 339 345 344 
3 342 339 344 
3 325 343 318 
3 318 343 340 
3 325 341 343 
3 343 341 342 
3 327 337 331 
3 326 337 327 
3 330 332 338 
3 338 332 334 
3 328 338 334 
3 345 343 344 
3 334 319 346 
3 346 319 321 
3 323 346 321 
3 336 346 324 
3 324 346 323 
3 319 333 324 
3 334 336 328 
3 328 336 326 
3 320 341 325 
3 339 340 343 
3 339 343 345 
3 320 325 322 
3 316 319 317 
3 317 319 324 
3 334 346 336 
3 347 348 349 
3 350 351 352 
3 352 351 353 
3 354 352 353 
3 355 354 356 
3 354 353 356 
3 357 358 359 
3 359 358 360 
3 360 358 361 
3 361 358 362 
3 349 351 347 
3 350 347 351 
3 356 349 355 
3 348 355 349 
3 363 364 365 
3 365 364 350 
3 366 364 363 
3 366 367 364 
3 364 367 355 
3 368 357 367 
3 360 369 359 
3 361 369 360 
3 362 366 361 
3 361 366 363 
3 362 368 366 
3 366 368 367 
3 351 349 370 
3 370 349 371 
3 351 370 372 
3 372 370 373 
3 374 373 375 
3 370 376 375 
3 373 370 375 
3 356 374 349 
3 349 374 371 
3 356 372 374 
3 374 372 373 
3 358 368 362 
3 357 368 358 
3 361 363 369 
3 369 363 365 
3 359 369 365 
3 376 374 375 
3 365 350 377 
3 377 350 352 
3 354 377 352 
3 367 377 355 
3 355 377 354 
3 350 364 355 
3 365 367 359 
3 359 367 357 
3 351 372 356 
3 370 371 374 
3 370 374 376 
3 351 356 353 
3 347 350 348 
3 348 350 355 
3 365 377 367 
3 378 379 380 
3 381 382 383 
3 383 382 384 
3 385 383 384 
3 386 385 387 
3 385 384 387 
3 388 389 390 
3 390 389 391 
3 391 389 392 
3 392 389 393 
3 380 382 378 
3 381 378 382 
3 387 380 386 
3 379 386 380 
3 394 395 396 
3 396 395 381 
3 397 395 394 
3 397 398 395 
3 395 398 386 
3 399 388 398 
3 391 400 390 
3 392 400 391 
3 393 397 392 
3 392 397 394 
3 393 399 397 
3 397 399 398 
3 382 380 401 
3 401 380 402 
3 382 401 403 
3 403 401 404 
3 405 404 406 
3 401 407 406 
3 404 401 406 
3 387 405 380 
3 380 405 402 
3 387 403 405 
3 405 403 404 
3 389 399 393 
3 388 399 389 
3 392 394 400 
3 400 394 396 
3 390 400 396 
3 407 405 406 
3 396 381 408 
3 408 381 383 
3 385 408 383 
3 398 408 386 
3 386 408 385 
3 381 395 386 
3 396 398 390 
3 390 398 388 
3 382 403 387 
3 401 402 405 
3 401 405 407 
3 382 387 384 
3 378 381 379 
3 379 381 386 
3 396 408 398 
3 409 410 411 
3 411 410 412 
3 413 414 415 
3 416 415 414 
3 416 414 417 
3 417 414 418 
3 419 420 418 
3 420 417 418 
3 421 422 423 
3 423 422 424 
3 421 425 422 
3 422 425 426 
3 413 415 411 
3 415 409 411 
3 419 412 420 
3 410 420 412 
3 423 417 427 
3 427 417 420 
3 423 424 417 
3 417 424 416 
3 424 428 416 
3 416 428 415 
3 421 423 427 
3 425 429 426 
3 425 421 429 
3 429 421 427 
3 430 431 432 
3 411 412 430 
3 413 411 433 
3 433 411 430 
3 431 434 432 
3 433 430 432 
3 434 433 432 
3 419 431 412 
3 412 431 430 
3 426 429 422 
3 422 429 428 
3 424 422 428 
3 434 413 433 
3 419 434 431 
3 429 435 428 
3 428 435 415 
3 429 427 435 
3 435 427 420 
3 415 420 409 
3 409 420 410 
3 413 419 414 
3 414 419 418 
3 413 434 419 
3 415 435 420 
