ply
format ascii 1.0
comment VCGLIB generated
element vertex 414
property float x
property float y
property float z
property float nx
property float ny
property float nz
element face 756
property list uchar int vertex_indices
end_header
0.183 0.191 1.8532 0.165227 0.9858208 0.02928237 
0.07600001 0.0416 2.1702 -0.777512 0.4543743 0.4347634 
1.2488 0.1362 3.4964 -0.5469354 0.4593688 0.6998872 
1.4304 0.1908 3.181 0.1286778 0.9886259 -0.07785159 
0.2276 -0.1944 2.222 -0.604867 -0.7395069 0.2954072 
1.2112 -0.1136 3.4864 -0.446765 -0.7655222 0.4630086 
0.4162 -0.191 1.9442 0.3779598 -0.9134229 -0.1510137 
1.2588 -0.1908 3.2036 0.2598075 -0.9005319 -0.3486292 
0.4304 0.0764 1.8556 0.9235808 0.1869048 -0.3347614 
1.4322 -0.0112 2.9982 0.6629808 0.117157 -0.7394125 
-0.2248 0.1876 -1.8762 -0.6244198 0.2588756 -0.7369419 
0.1332 0.3034 -1.8798 0.04895211 0.6780079 -0.7334228 
0.0244 0 -1.8784 -0.00989138 -0.0005214708 -0.999951 
-0.2274 -0.1876 -1.876 -0.4433341 -0.5110398 -0.7364056 
0.1262 -0.3034 -1.8794 0.3531808 -0.5867005 -0.728729 
0.3482 0 -1.8818 0.6694985 0.1567089 -0.7260951 
7.0242 0.227 9.8704 0.05232705 0.7294669 0.6820118 
6.782 0.058 9.8368 -0.6218849 0.3308344 0.7097942 
7.030601 -0.0076 9.8706 -0.1289166 0.000700184 0.9916552 
6.8818 -0.2016 9.851399 -0.5515973 -0.4438598 0.7062074 
7.1888 -0.1932 9.8912 0.2117491 -0.6906207 0.691524 
7.2738 0.0718 9.9008 0.709853 0.07556623 0.7002847 
6.901 0.1498 8.178 0.09377208 0.463663 -0.8810354 
6.7464 0.0372 8.1414 -0.1782443 0.02612372 -0.9836395 
6.2886 0.121 8.224401 -0.7865846 0.2224278 -0.57603 
6.81 0.4728 8.342401 0.03662782 0.8956469 -0.443255 
6.814 -0.1356 8.157 0.05952407 -0.4271089 -0.9022388 
6.5096 -0.4198 8.2764 -0.2785695 -0.7900599 -0.5460811 
7.0134 -0.13 8.202 0.5155573 -0.2967519 -0.8038276 
7.1724 -0.4022 8.412 0.6326569 -0.6139593 -0.4720163 
7.0666 0.0464 8.214 0.5431528 0.2908725 -0.7876409 
7.36 0.1494 8.442 0.8199688 0.3477235 -0.4546864 
-0.3494 0.2694 0.4424 -0.9559998 0.1353242 0.2602917 
-0.353 -0.2694 0.4426 -0.4623637 -0.8678614 0.1817594 
0.1548 -0.4358 0.4378 0.7129887 -0.7011477 0.006242568 
0.474 0 0.4344 0.8827403 0.4698576 0.001847574 
0.165 0.4358 0.4372 -0.126741 0.981173 0.1457263 
3.9248 0.1964 4.9112 0.01835982 0.9992552 -0.0339404 
4.0538 0.0728 4.7186 0.5328032 0.2437263 -0.8103815 
3.8626 -0.1264 4.6472 0.3350945 -0.7884908 -0.515746 
3.8852 -0.1996 4.8478 -0.2684405 -0.8482701 0.4564838 
3.8342 0.028 4.9812 -0.5250595 0.2602547 0.8102963 
7.0602 0.1624 6.9996 0.027822 0.9960181 -0.08469886 
7.248 0 6.9256 0.8161816 0.331694 -0.4731032 
6.8792 -0.1624 6.6972 0.4070354 -0.8937009 -0.1887349 
6.5966 -0.1004 6.8166 -0.4433889 -0.8475538 0.2916484 
6.794 0.1004 7.1194 -0.7820154 0.4942378 0.3797117 
6.901 0.1498 8.178 0.3039068 0.9513666 0.0504211 
7.0666 0.0464 8.214 0.9646248 -0.2612103 0.03561239 
7.0134 -0.13 8.202 0.208728 -0.9779676 0.003482216 
6.814 -0.1356 8.157 -0.9372452 -0.3460066 0.04302227 
6.7464 0.0372 8.1414 -0.6765102 0.7363626 0.01019696 
-0.3494 0.2694 0.4424 -0.4824955 0.5858638 0.6511234 
0.165 0.4358 0.4372 0.4329928 0.6654401 0.6080351 
0.2468 0.7774 0.0052 0.3325319 0.9130287 0.2362226 
-0.6706 0.4806 0.0142 -0.7649575 0.5939488 0.2491281 
-0.353 -0.2694 0.4426 -0.6900845 -0.2870518 0.6643679 
-0.6772 -0.4806 0.0148 -0.796955 -0.5539448 0.240848 
0.1548 -0.4358 0.4378 0.07253077 -0.7760131 0.6265325 
0.229 -0.7774 0.006 0.2904034 -0.9318292 0.2176238 
0.474 0 0.4344 0.7862082 -0.1942443 0.5866395 
0.798 0 0 0.9761279 -0.02473421 0.2157841 
9.6888 0.0708 9.3978 0.3397179 -0.5982688 0.7257177 
9.6442 -0.0092 9.2842 -0.131141 -0.989338 0.06334291 
10.4416 0.3688 8.9496 0.2944267 -0.9124702 -0.2840972 
8.985801 0.4864 9.7222 0.05342203 -0.05668298 0.9969619 
10.1208 0.7878 9.4274 0.446745 0.06444852 0.892337 
9.188 1.0632 9.5082 -0.08979839 0.8191763 0.5664685 
10.0516 1.4086 9.1516 0.2506278 0.7895297 -0.560204 
9.1588 0.9778 9.332 -0.205776 0.551856 -0.808153 
8.906401 0.471 9.183599 -0.1482538 0.02811592 -0.9885496 
9.9642 0.7958 9.123 -0.3615704 0.1306236 -0.9231491 
8.1054 0.8914 9.2914 0.1476388 0.0570291 -0.9873958 
6.72 -0.0108 9.485001 -0.7965512 -0.1425957 -0.587514 
8.145 0.9028 9.3856 0.2779998 0.7743818 0.568374 
6.9184 0.0172 9.8348 -0.1642371 0.08561661 0.9826983 
8.0412 -0.4418 9.6094 0.2379959 -0.7954658 0.557308 
7.9352 -0.4374 9.341801 -0.1732321 -0.6508424 -0.7391853 
8.4116 -0.1268 9.414801 0.2869241 -0.659791 0.6945146 
9.5972 -0.0726 9.306801 0.6353867 -0.769712 0.0618638 
8.1278 0.3004 9.786 0.01472765 -0.08049055 0.9966466 
8.381001 -0.2254 9.0902 0.1473169 -0.5977694 -0.7880162 
8.020801 0.2772 9.4016 0.04859752 0.1332752 -0.9898869 
7.498 0.147 9.5192 -0.1762518 0.005176324 -0.9843314 
7.5544 0.1572 9.6702 0.1090873 0.0799622 0.9908109 
10.8152 0.9514 8.8566 0.8350827 0.1557852 0.5276058 
10.9492 0.3164 8.4142 0.3800075 -0.003395193 -0.9249772 
10.1678 1.5172 9.0432 -0.6700885 0.7210984 0.176064 
10.5538 1.4598 8.3672 -0.2642545 0.8725697 -0.4108427 
10.5152 0.8788 8.6616 -0.7581347 -0.2105585 -0.6171685 
11.0676 1.0284 7.5578 0.08890543 0.158163 -0.9834024 
10.8898 0.3566 8.2674 -0.121835 -0.9254802 0.3586679 
8.488 0.9944 9.375199 -0.4424343 0.8875666 -0.1283646 
8.8776 1.1688 9.8392 0.2343495 -0.8588374 0.4554982 
8.7902 1.0858 9.529201 0.5261007 -0.7749602 -0.3502213 
9.313 2.1892 9.5176 0.7721101 -0.2422621 0.587499 
9.2712 2.109 9.3758 -0.04026307 -0.4343577 -0.8998402 
8.819201 2.22 9.8226 0.2717026 0.25381 0.9283093 
8.6092 3.0104 9.691999 0.3986959 0.8202883 0.4100838 
8.154 1.3822 10.0126 0.2678533 -0.0915281 0.9591023 
8.067801 2.525 10.0358 -0.4398905 0.3373377 0.8322858 
8.007 2.457 9.766601 -0.6757057 0.5860319 -0.4472008 
8.4816 2.9208 9.4448 -0.1084882 0.2876668 -0.9515662 
8.7458 2.2094 9.63 -0.0708422 -0.03629193 -0.9968271 
8.1168 1.3994 9.7374 -0.1659491 -0.1078112 -0.9802232 
6.699 -0.0124 9.3644 -0.2962288 -0.04718972 -0.9539506 
6.803 -0.0114 9.6766 -0.2121417 -0.4850265 0.8483779 
6.8088 1.0448 9.4902 -0.9193603 0.3860284 -0.0758867 
7.2846 1.2776 9.7874 -0.53112 0.210965 0.8206128 
7.8362 0.2414 9.341 0.3760656 -0.7299445 -0.5707502 
7.9278 0.196 9.576799 0.5240421 -0.8295621 0.19289 
7.4884 0.7904 9.4632 0.113856 0.1222447 -0.9859477 
7.5482 0.7702 9.7806 0.02152187 -0.241093 0.9702634 
8.1994 0.559 9.5612 0.9126001 -0.3757443 -0.1611746 
9.7924 2.387 8.955 0.7468429 -0.6594324 -0.0858768 
9.0892 2.6578 9.2872 -0.479974 -0.3707095 -0.7951096 
9.532801 3.3712 8.5248 0.09272955 0.5829879 -0.8071719 
9.222401 2.7832 9.495601 0.504223 0.4280428 0.7500257 
8.7588 3.2164 9.1926 -0.919006 0.3797812 0.1058027 
8.698 1.0906 9.6242 0.9269591 0.3326985 -0.173374 
5.9256 -2.0402 10.7462 -0.8498305 0.3234364 0.4161454 
5.911 -2.072 10.5232 -0.7431565 0.424836 -0.5169458 
6.0426 -2.974 10.846 -0.8165563 -0.2583109 -0.5162474 
6.644 -1.4856 10.8502 -0.1749157 0.5570135 0.8118746 
6.3932 -2.601 11.3304 -0.2617676 0.1181986 0.9578657 
7.0176 -1.9756 10.8832 0.5238669 0.173358 0.8339727 
7.0508 -2.9366 11.2208 0.6175703 -0.6834518 0.3892308 
7.1188 -2.0402 10.7472 0.6895397 -0.5530201 -0.4676578 
6.719 -1.6864 10.4222 0.2374312 -0.4928349 -0.8371023 
6.4856 -2.6274 11.018 0.346168 -0.2634316 -0.9004285 
7.521 -1.2924 10.2874 0.4207453 -0.5965487 -0.6834494 
7.0876 0.2382 9.5924 0.4682319 0.557787 -0.6852974 
7.4868 -1.2428 10.5316 0.4166264 -0.06993986 0.9063834 
7.063 0.3192 9.8976 -0.07780005 0.7776272 0.6238935 
6.1954 -0.565 9.8112 -0.8635522 0.4119401 0.2908314 
6.1428 -0.6086 9.5322 -0.5634726 0.09451442 -0.8207104 
6.2222 -0.993 10.0442 -0.8321245 0.3460127 0.4334101 
5.91 -2.0046 10.5292 -0.8470437 -0.5207282 0.1065796 
6.8436 -0.7412 10.4216 -0.2782645 0.5119717 0.8126832 
6.238 -1.146 9.6926 -0.5498573 -0.4676011 -0.6921027 
6.8932 -0.9006 10.0138 0.1762134 -0.698094 -0.6939839 
6.9634 -0.429 9.7028 0.3197018 -0.3617676 -0.8757368 
6.9312 -0.2842 10.1602 -0.2889737 0.4581535 0.8405888 
6.3396 -3.4948 11.0892 -0.3649053 -0.4267431 0.8274869 
5.7 -3.7266 10.5478 0.1156985 -0.834844 -0.5381908 
7.1472 -3.0926 11.2356 0.8871267 0.4486839 0.108116 
7.0016 -3.7674 10.8138 0.9296772 -0.3482945 -0.1199637 
6.4256 -3.38 10.8302 0.2574173 0.3372316 -0.9055446 
6.4632 -4.4298 10.2454 0.0742944 -0.6858603 -0.723931 
5.9438 -3.7258 10.5002 -0.8201535 0.5614693 -0.1100029 
7.5718 -1.4542 10.557 0.9713706 0.04355276 0.2335431 
5.8662 1.6906 10.3786 0.9307818 -0.04073859 0.3632982 
5.8928 1.715 10.0746 0.8104835 0.5485228 -0.2055219 
4.8658 2.2706 10.3036 0.1970168 0.5397481 0.8184476 
4.9554 2.3116 9.978 0.3968442 0.4162587 -0.818073 
4.7972 1.681 10.3412 -0.3432145 -0.1516928 0.9269267 
4.0336 1.5014 10.0042 -0.7335913 0.1922542 0.6518298 
5.6156 0.9772 10.2458 0.07746989 -0.1328658 0.9881018 
4.4088 0.9104 10.2154 -0.3739124 -0.6209916 0.6888824 
4.4236 0.9726 9.8896 -0.6786767 -0.5055407 -0.5327537 
3.9254 1.5086 9.723001 -0.5292595 0.3441962 -0.7755085 
4.7314 1.684 10.0324 -0.03110637 0.3847221 -0.9225082 
5.4876 1.1004 9.7568 0.1524778 0.254552 -0.9549627 
6.8512 -0.067 9.337999 0.2611233 -0.04624556 -0.9641971 
6.9414 -0.1332 9.570399 0.5403584 -0.4976681 0.6784831 
5.6644 -0.0918 9.182401 -0.2626495 -0.7992284 -0.5406008 
5.5842 0.1996 9.7804 -0.2412717 -0.7577478 0.6063054 
6.7508 1.0084 9.4358 0.7914806 0.5364708 -0.292844 
6.7438 0.8824 9.7498 0.6839722 0.3786404 0.6235492 
6.0314 0.6038 9.3526 0.06388624 0.4813701 -0.8741862 
6.159 0.5008 9.7982 0.2413731 -0.2823679 0.9284436 
6.3412 1.0598 9.832 0.5122866 0.7189429 0.4697697 
4.54 2.7534 9.8898 0.3982235 0.9172251 0.01078313 
4.2552 2.1314 9.8286 0.3830382 -0.1062696 -0.9175993 
3.33 2.8938 9.096001 -0.2749896 0.7447028 -0.6081105 
4.217 2.1756 10.105 -0.4872638 0.2044097 0.848994 
3.4894 1.8238 9.4686 -0.3254456 -0.9297949 -0.1719494 
5.9222 1.5434 10.0886 0.2385197 0.9157538 0.3232698 
4.499 -0.7574 9.4606 -0.1223502 0.8581371 0.4986292 
4.463 -0.6488 9.223 -0.260436 0.9645751 0.04204759 
3.6272 -1.4804 9.2044 -0.6214412 0.442647 0.6464322 
3.592 -1.3574 8.7894 0.2646026 0.4510575 -0.8523689 
4.306 -1.6746 9.6306 -0.240111 -0.3613819 0.9009716 
4.393 -2.3518 9.3912 -0.5267824 -0.6482559 0.549786 
5.2572 -1.0208 9.8712 -0.274435 0.1598936 0.9482191 
5.084 -2.1252 9.8324 0.2295521 -0.4789641 0.8472893 
5.1164 -2.1234 9.4924 0.4283578 -0.786644 -0.4446357 
4.359 -2.417 9.0742 -0.2621671 -0.395392 -0.8803031 
4.312 -1.6506 9.4508 0.1897658 -0.1675849 -0.9674215 
5.1968 -1.036 9.531 0.1629706 0.09446484 -0.9820982 
6.8424 0.0544 9.355 0.4256755 0.0565554 -0.9031067 
6.9106 0.07759999 9.7346 0.1718129 0.5491132 0.8178967 
6.631001 -1.0628 9.3666 0.8041156 -0.5146075 -0.2976191 
6.1262 -1.1278 9.728001 0.4161 -0.3926568 0.8201715 
5.5182 0.0862 8.9718 -0.2228348 0.9741347 -0.03750123 
5.6276 0.015 9.2764 -0.3506237 0.7762048 0.5239934 
5.839 -0.5704 9.237 -0.0435624 -0.07559166 -0.9961868 
5.944 -0.5516 9.6866 -0.09379386 0.2896454 0.9525273 
5.2526 -0.2364 9.2712 -0.5749262 0.8112836 0.1062022 
2.9588 -1.625 8.3948 -0.6436842 0.7592609 -0.09588294 
3.699 -1.9758 8.7144 0.6310586 0.2141808 -0.7455815 
2.636 -2.6136 7.6012 0.05656223 -0.6691722 -0.7409516 
3.6154 -2.1468 9.2814 -0.5457371 -0.3851731 0.7441859 
3.8198 -2.4996 8.747001 0.7565296 -0.6393049 -0.1376667 
4.4352 -0.552 9.2376 -0.9873689 -0.07121319 -0.1415318 
8.108601 -2.379 9.3814 -0.4480364 -0.5268199 0.7223048 
7.9458 -2.3494 9.1916 -0.9871941 -0.1321277 0.08938812 
8.695601 -2.8986 8.8908 -0.7557194 -0.5419528 -0.3676619 
8.315599 -1.5544 9.5996 -0.06450432 -0.07626025 0.9949993 
8.9932 -2.5746 9.4266 0.2494329 -0.4261634 0.8695792 
8.9418 -1.5594 9.4794 0.6764911 0.3058311 0.6699457 
9.4168 -2.1554 9.018001 0.9232658 -0.06469317 -0.3786756 
8.9138 -1.4838 9.1262 0.3542313 0.4506975 -0.8193852 
8.2514 -1.4964 9.261801 -0.1335706 0.1567392 -0.9785661 
8.9042 -2.371 9.0414 -0.1476014 0.3331306 -0.9312561 
8.4582 -0.6318 9.2486 0.1855867 0.2395211 -0.9529886 
7.1862 0.091 9.7436 -0.3457093 0.8436511 -0.4107772 
8.5154 -0.6872 9.4448 0.8407856 0.0005868889 0.5413679 
7.215 0.09980001 9.9276 -0.09552297 0.399319 0.9118222 
7.018 -1.0328 9.6206 -0.7122977 -0.4839377 0.5083664 
6.9692 -0.9232001 9.295401 -0.7733349 0.1091355 -0.6245338 
7.447 -1.2632 9.4046 -0.4227922 -0.5911186 0.6868957 
7.8872 -2.154 9.259 -0.1624959 -0.9859699 -0.03818876 
7.8458 -0.8258 9.7564 0.04211941 -0.1921972 0.9804521 
7.3272 -1.2422 9.0516 -0.4806444 -0.369261 -0.7953787 
7.7494 -0.7558 9.377601 0.1707694 -0.01965163 -0.9851151 
7.4358 -0.3248 9.4802 -0.08364329 0.3830787 -0.9199209 
7.5444 -0.3984 9.8326 0.1204629 -0.1903641 0.9742947 
9.3314 -3.1486 8.7528 0.4518188 -0.7739491 0.4436921 
8.6856 -3.5164 8.2482 0.04777057 -0.2227669 -0.9737006 
9.7168 -2.2742 8.941 0.4972184 0.8668287 0.0371724 
9.5816 -2.7528 8.2902 0.6753276 0.5403143 -0.5019892 
9.148 -2.8656 8.569201 -0.4678142 0.6686946 -0.5779252 
9.4016 -3.2902 7.4104 0.2129972 0.2185999 -0.9522848 
8.7508 -3.356 8.1612 -0.9042869 -0.1964904 0.3790207 
8.628799 -0.9304 9.372601 0.5662757 0.8236997 0.02916428 
5.5846 0.8112 11.0612 0.8258172 0.4990064 0.2627138 
5.555 0.9118 10.7688 0.3479414 0.8973578 -0.2714514 
4.5668 0.8448 11.495 0.2079384 0.5813 0.7866715 
4.5186 0.8634 11.1066 -0.1672578 0.3289146 -0.9294299 
4.8534 0.266 11.4256 0.09947714 -0.2900842 0.9518169 
4.328 -0.2732 11.3922 -0.7008727 -0.1908372 0.6872835 
5.8004 0.1406 10.9424 0.4898264 0.04038123 0.8708844 
5.0026 -0.5522 11.3496 0.3548309 -0.6020668 0.7152697 
4.8718 -0.5916 10.9662 -0.5408422 -0.6738904 -0.5033502 
4.3638 -0.2588 11.2366 -0.7043656 0.02026107 -0.7095482 
4.737 0.2524 11.1424 -0.5241876 0.09272078 -0.8465401 
5.6958 0.1556 10.7556 -0.3370312 0.1815263 -0.9238281 
7.1038 -0.0424 9.4386 -0.3765525 -0.07314967 -0.9235027 
7.1564 -0.048 9.749 0.8816719 -0.00463319 0.4718401 
6.2772 -0.5234 9.9358 0.004706725 -0.8969627 -0.4420811 
6.1058 -0.4382 10.4044 0.4819839 -0.7203186 0.4988314 
6.4482 0.6532 9.951 0.3435972 0.8680511 -0.3583688 
6.5186 0.6368 10.08 0.6117346 0.7706428 0.1785791 
6.2718 0.0716 10.1448 -0.6375523 0.2210234 -0.7380216 
6.3792 0.0572 10.319 0.6606103 -0.02852779 0.7501869 
6.1886 0.7278 10.3422 0.06209138 0.9793684 0.1923072 
3.8798 1.1892 11.1548 -0.1552875 0.9816971 -0.1102566 
4.1116 0.37 11.2776 -0.0003383697 -0.003664862 -0.9999933 
3.0432 0.5144 10.9748 -0.8675183 -0.1498956 -0.474282 
4.1036 0.3686 11.4238 -0.2517816 -0.08327293 0.9641948 
3.7664 -0.1046 11.155 0.01045415 -0.9854086 -0.169884 
5.671 0.7668 10.782 -0.7826223 0.5013871 0.3689354 
7.5198 2.113 10.082 0.7482093 0.2801487 0.6014146 
7.537 1.9932 9.847 0.8435148 -0.5058787 -0.1804705 
7.1514 2.7408 9.2946 0.8993009 0.0723025 -0.4313124 
6.8774 1.473 10.2098 0.05696931 -0.04592149 0.9973192 
6.7238 2.6348 9.9506 -0.08592959 0.6085681 0.7888352 
6.3376 1.7404 10.0348 -0.6714884 0.1331819 0.7289485 
6.0416 2.5032 9.4992 -0.7819127 0.5351728 -0.3196916 
6.243 1.6602 9.7508 -0.4609386 -0.2461477 -0.8526118 
6.8438 1.4262 9.970799 0.02858333 -0.1365796 -0.9902166 
6.6826 2.4174 9.6492 0.02938631 -0.5993535 -0.7999449 
6.149 0.8279999 9.7154 -0.09643763 0.2378817 -0.9664947 
6.9868 -0.2462 9.6778 0.01922566 -0.6760616 -0.7365942 
6.1554 0.9018 10.002 -0.7312737 0.100016 0.6747115 
7.0314 -0.3704 9.9276 -0.0802312 -0.7682267 0.6351304 
7.6374 0.5652 10.0662 0.8294657 -0.06778245 0.5544298 
7.7344 0.5344 9.775599 0.6771561 -0.02492069 -0.7354174 
7.424201 0.9334 10.0302 0.6167169 0.1137087 0.7789292 
7.5052 1.8258 9.937401 0.4477248 0.8933246 0.03890732 
6.953 0.6636 10.1926 0.06453115 -0.05292457 0.9965113 
7.4794 0.9552 9.685 0.6896681 0.2452941 -0.6813139 
6.8598 0.6934 9.7562 -0.08691977 0.2795488 -0.956189 
6.9618 0.2376 9.8408 0.03299828 0.008428348 -0.9994198 
6.9904 0.204 10.1048 -0.007514478 -0.1725921 0.9849647 
6.568 3.1736 9.0618 -0.06817096 0.9506617 0.3026471 
7.2538 3.1452 8.580999 0.2858084 0.4964584 -0.81966 
5.7606 2.618 9.29 -0.7718328 -0.5546694 0.3108311 
5.9828 2.8874 8.4362 -0.9504843 -0.1951436 -0.2418647 
6.5504 2.7392 8.8036 0.1388279 -0.9243233 -0.3554622 
6.1588 3.1986 7.171999 -0.3880344 -0.1255179 -0.9130577 
7.1812 3.0448 8.4334 0.9058033 -0.3100755 0.2887447 
6.1074 1.0562 9.9092 -0.9193529 -0.372573 0.1264099 
8.3918 -1.824 10.1988 -0.3023061 -0.8243306 0.4786335 
8.3324 -1.726 9.9334 -0.8612952 -0.3102986 -0.4023497 
9.23 -1.915 9.603601 -0.1648247 -0.6496915 -0.7421144 
8.2668 -0.9706 10.5536 -0.2708016 -0.1941725 0.9428486 
9.2702 -1.5076 10.193 0.4057021 -0.4810854 0.7771503 
8.8826 -0.6864 10.529 0.5103855 0.4226964 0.7488888 
9.6662 -1.0148 10.0886 0.773275 0.3185046 -0.5482707 
8.8068 -0.7028 10.2786 0.3361506 0.577684 -0.7438306 
8.3294 -0.8562 10.0962 0.1106632 0.3089086 -0.9446318 
9.2056 -1.3974 10.0324 -0.09074108 0.5687905 -0.8174616 
8.2318 -0.044 10.1694 0.5511222 -0.2324405 -0.8013961 
6.8498 0.1564 9.5592 -0.1477158 0.3618637 -0.9204535 
8.2912 -0.069 10.3728 0.3377149 0.5827924 0.7391223 
6.8082 0.153 9.807799 -0.6208252 0.4332857 0.6533296 
7.037 -0.9506 9.9944 -0.7469273 -0.6586563 0.09094819 
7.1782 -0.7944 9.803801 -0.1365846 -0.2361899 -0.9620598 
7.5668 -0.9611999 10.0418 -0.4882135 -0.6587687 0.5724258 
8.2718 -1.5354 10.059 -0.0117527 -0.9917896 -0.1273391 
7.6134 -0.4566 10.42 -0.4599708 -0.105458 0.8816493 
7.5784 -0.9778 9.737599 0.05152465 -0.4374261 -0.897777 
7.667 -0.4306 10.1214 0.4984189 0.001926267 -0.8669342 
7.3124 -0.1792 9.8862 0.3938683 -0.05959838 -0.9172328 
7.2786 -0.182 10.0708 -0.4277233 0.1229161 0.8955135 
9.7986 -1.6704 9.5102 0.661705 -0.6213379 0.4196256 
9.578 -2.1344 9.0748 0.5846087 0.1005749 -0.8050574 
9.852799 -1.0224 9.959001 9.663632e-05 0.8814938 0.4721956 
10.073 -1.2458 9.2604 0.5524871 0.8240749 -0.1251338 
9.6946 -1.5836 9.4366 -0.6456435 0.5476316 -0.5322068 
10.312 -1.6184 8.1704 0.3797112 0.337097 -0.8615016 
9.6356 -2.0082 8.92 -0.7520905 -0.5852821 0.3029932 
8.445 -0.1734 10.332 0.2899982 0.9543761 -0.07118475 
5.1978 -0.6776 7.6154 -0.957073 -0.1287423 0.2596861 
5.2422 -0.5158 7.4684 -0.3504372 0.9318234 0.09433383 
5.4052 -1.1414 6.739799 -0.5417551 0.7370714 -0.4040138 
5.9584 -0.9858 8.686 -0.7005944 -0.1192133 0.703531 
5.8124 -1.473 7.7838 -0.6661758 -0.6506515 0.3645031 
6.4716 -1.5238 8.7948 -0.1155436 -0.8252737 0.5527868 
6.4104 -1.9076 8.0566 0.3475568 -0.8917643 -0.2897597 
6.642 -1.3944 8.4438 0.9197879 -0.09313646 -0.3812032 
6.1758 -0.8446 8.3044 0.6796892 0.4975421 -0.5389568 
6.0226 -1.3858 7.5882 0.8564018 0.3817191 -0.3476587 
7.1894 -1.1454 9.059401 0.7718155 0.1247656 -0.6234856 
6.8386 -0.0894 9.5924 0.6817964 0.7120912 0.1675704 
7.055799 -1.3202 9.2376 -0.1017371 -0.9278913 0.3587024 
6.7886 -0.1194 9.724 -0.1178996 0.2735491 0.9546049 
5.7824 0.0532 8.685 -0.8574264 0.4812116 0.1823605 
5.8706 0.1434 8.5614 0.07497582 0.8588156 -0.5067686 
5.8316 -0.2496 8.4398 -0.9603917 0.02094732 0.2778649 
5.3718 -0.3638 7.7962 -0.6390919 0.6967619 -0.3257061 
6.3958 -0.5732 9.0402 -0.7015175 -0.3146445 0.639431 
5.881 -0.2262 8.3944 0.02766568 0.5903736 -0.8066559 
6.4826 -0.5118 8.9128 0.5844326 0.1916894 -0.7884756 
6.7092 -0.2678 9.174 0.665574 0.3958474 -0.6327055 
6.5146 -0.41 9.4298 -0.7013674 -0.4049215 0.5866194 
5.6236 -1.8408 6.8526 -0.6680638 -0.7438194 0.0205824 
5.439 -1.2006 5.996 0.05257107 -0.1281847 -0.990356 
6.388 -2.0008 7.464 0.8131796 -0.2630534 0.5191742 
6.2968 -2.0304 6.74 0.7830203 -0.6178463 -0.07172981 
5.9838 -1.4778 6.7506 0.6822821 0.7275265 -0.07208541 
6.383399 -1.7798 5.4784 0.5624501 -0.4103536 -0.717816 
5.466 -1.3388 6.0152 -0.6465558 0.7606654 0.05791171 
6.9742 -1.2558 9.042 0.8153192 0.001434467 0.5790099 
8.3262 0.7716 8.4756 0.8840052 -0.2957949 0.3619949 
8.0556 0.685 8.316 -0.07476144 -0.957531 0.2784694 
8.0252 0.8058 7.3864 0.2521669 -0.9613294 -0.1107149 
7.6262 1.0768 8.776401 0.4809495 0.5389716 0.691518 
7.8578 1.4342 7.927 0.6166365 0.7844344 0.06649957 
7.2956 1.5432 8.4998 -0.1709493 0.9413093 0.2910553 
7.1672 1.6108 7.581 -0.6067434 0.3663281 -0.7054546 
7.175 1.32 8.3314 -0.867991 -0.3425218 -0.359542 
7.4758 0.9738 8.631599 -0.5352678 -0.6499914 -0.5394439 
7.5644 1.2098 7.808 -0.7092689 -0.6921874 -0.13347 
6.6084 1.1698 8.6014 -0.4565107 -0.422019 -0.7832612 
6.8198 0.228 9.4254 -0.6454595 -0.7165058 0.2645778 
6.8616 1.3234 8.867599 -0.2519644 0.8249722 0.5059 
6.9334 0.3174 9.5008 -0.3083146 -0.006156337 0.9512646 
7.8492 0.2026 9.3676 0.6777124 -0.5522423 0.4855247 
7.6166 0.142 9.1468 -0.0520748 -0.9418494 -0.3319762 
7.6902 0.473 9.008 0.940359 -0.006364892 0.3401242 
8.041 0.689 8.4316 0.8007945 0.02756754 -0.5983046 
7.4386 0.8392 9.3512 0.5655978 0.4587467 0.6853106 
7.5892 0.3062 8.783 0.2146711 -0.7816604 -0.5855967 
7.1088 0.6262 8.862 -0.2679729 -0.3470312 -0.8987546 
7.0148 0.4464 9.1226 -0.3957275 -0.7009685 -0.5933321 
7.216 0.6002 9.5088 0.1976368 0.3823978 0.9026138 
7.8198 1.3134 6.983 0.7407267 0.6414369 -0.1997063 
8.106 0.6336 7.042 0.1504683 -0.625442 -0.765625 
7.171 1.6148 7.359 -0.811667 0.5369013 0.2300734 
7.445 1.3382 6.6082 -0.6893322 0.5035741 -0.5208015 
7.5986 1.022 7.0838 -0.6698852 -0.7395 0.06628484 
7.7896 0.7792 5.7624 -0.2819066 -0.05149161 -0.9580592 
8.1014 0.625 6.7498 0.682003 -0.3957289 0.6150371 
6.8432 1.295 8.7234 -0.9055001 0.4234432 0.02766611 
7.2548 -0.7944 8.3252 -0.3174797 -0.7789582 0.5407688 
7.1318 -0.749 8.296 -0.871517 -0.4892592 -0.03291713 
7.6292 -0.83 7.4988 0.1789661 -0.9795205 -0.09225391 
7.5488 -0.6176 7.4882 -0.9165068 0.2104634 -0.3401769 
7.7068 -0.5226 7.9622 0.9623174 -0.2577098 0.0867815 
7.9986 0.085 7.6984 0.7520019 -0.07334372 -0.6550678 
7.7094 -0.531 8.8622 0.6784803 -0.7014389 0.2182841 
8.270599 0.1682 8.3572 0.9032097 0.2663482 0.3365574 
7.9312 0.1698 8.2524 -0.03444026 0.9960729 -0.08156308 
7.8946 0.186 7.6538 -0.2492197 0.7231526 -0.6441582 
7.5432 -0.3364 7.8448 -0.6720545 0.3395772 -0.6580502 
7.187 -0.2622 8.466599 -0.8724431 0.470387 -0.1325865 
7.0148 -0.0594 9.770599 -0.7625694 0.643008 0.07091208 
7.1472 -0.1378 9.8736 0.237084 -0.4981869 0.834027 
7.5116 0.442 9.3478 -0.06086666 0.9475282 0.3138241 
7.7556 0.1454 9.2058 0.8525165 0.1656595 0.4957545 
6.6628 -0.639 9.102799 -0.8042363 -0.4765954 0.3550506 
6.76 -0.669 9.145201 -0.09438703 -0.9207078 0.3786665 
7.1692 -0.1882 9.1136 -0.7644288 0.592038 -0.2552245 
7.3464 -0.2854 9.2382 0.5421118 -0.6807457 0.492646 
6.882 -0.7006 8.856199 -0.4460631 -0.891349 -0.08077488 
7.5914 -0.6944 6.8094 -0.8160061 -0.438226 -0.376951 
7.781 -0.3308 7.2962 -0.8998632 0.4086933 -0.1523681 
7.8112 -0.0968 6.2616 -0.2777852 0.2118904 -0.9369834 
7.9362 -0.4592 7.2448 0.9084991 -0.417029 -0.02675769 
7.9966 0.2808 7.1884 0.2440542 0.8650422 0.4383372 
6.946 -0.8544 8.4228 -0.5950689 -0.760618 -0.2595253 
3 0 1 2 
3 0 2 3 
3 1 4 5 
3 1 5 2 
3 4 6 7 
3 4 7 5 
3 6 8 9 
3 6 9 7 
3 8 0 3 
3 8 3 9 
3 10 11 12 
3 13 10 12 
3 14 13 12 
3 15 14 12 
3 11 15 12 
3 16 17 18 
3 17 19 18 
3 19 20 18 
3 20 21 18 
3 21 16 18 
3 22 23 24 
3 22 24 25 
3 23 26 27 
3 23 27 24 
3 26 28 29 
3 26 29 27 
3 28 30 31 
3 28 31 29 
3 30 22 25 
3 30 25 31 
3 25 24 17 
3 25 17 16 
3 24 27 19 
3 24 19 17 
3 27 29 20 
3 27 20 19 
3 29 31 21 
3 29 21 20 
3 31 25 16 
3 31 16 21 
3 32 33 4 
3 32 4 1 
3 33 34 6 
3 33 6 4 
3 34 35 8 
3 34 8 6 
3 35 36 0 
3 35 0 8 
3 36 32 1 
3 36 1 0 
3 9 3 37 
3 9 37 38 
3 7 9 38 
3 7 38 39 
3 5 7 39 
3 5 39 40 
3 2 5 40 
3 2 40 41 
3 3 2 41 
3 3 41 37 
3 38 37 42 
3 38 42 43 
3 39 38 43 
3 39 43 44 
3 40 39 44 
3 40 44 45 
3 41 40 45 
3 41 45 46 
3 37 41 46 
3 37 46 42 
3 43 42 47 
3 43 47 48 
3 44 43 48 
3 44 48 49 
3 45 44 49 
3 45 49 50 
3 46 45 50 
3 46 50 51 
3 42 46 51 
3 42 51 47 
3 52 53 54 
3 52 54 55 
3 56 52 55 
3 56 55 57 
3 58 56 57 
3 58 57 59 
3 60 58 59 
3 60 59 61 
3 53 60 61 
3 53 61 54 
3 55 54 11 
3 55 11 10 
3 57 55 10 
3 57 10 13 
3 59 57 13 
3 59 13 14 
3 61 59 14 
3 61 14 15 
3 54 61 15 
3 54 15 11 
3 62 63 64 
3 65 66 67 
3 67 66 68 
3 69 67 68 
3 70 69 71 
3 69 68 71 
3 72 73 74 
3 74 73 75 
3 75 73 76 
3 76 73 77 
3 64 66 62 
3 65 62 66 
3 71 64 70 
3 63 70 64 
3 78 79 80 
3 80 79 65 
3 81 79 78 
3 81 82 79 
3 79 82 70 
3 83 72 82 
3 75 84 74 
3 76 84 75 
3 77 81 76 
3 76 81 78 
3 77 83 81 
3 81 83 82 
3 66 64 85 
3 85 64 86 
3 66 85 87 
3 87 85 88 
3 89 88 90 
3 85 91 90 
3 88 85 90 
3 71 89 64 
3 64 89 86 
3 71 87 89 
3 89 87 88 
3 73 83 77 
3 72 83 73 
3 76 78 84 
3 84 78 80 
3 74 84 80 
3 91 89 90 
3 80 65 92 
3 92 65 67 
3 69 92 67 
3 82 92 70 
3 70 92 69 
3 65 79 70 
3 80 82 74 
3 74 82 72 
3 66 87 71 
3 85 86 89 
3 85 89 91 
3 66 71 68 
3 62 65 63 
3 63 65 70 
3 80 92 82 
3 93 94 95 
3 95 94 96 
3 97 98 99 
3 100 99 98 
3 100 98 101 
3 101 98 102 
3 103 104 102 
3 104 101 102 
3 105 106 107 
3 107 106 108 
3 105 109 106 
3 106 109 110 
3 97 99 95 
3 99 93 95 
3 103 96 104 
3 94 104 96 
3 107 101 111 
3 111 101 104 
3 107 108 101 
3 101 108 100 
3 108 112 100 
3 100 112 99 
3 105 107 111 
3 109 113 110 
3 109 105 113 
3 113 105 111 
3 114 115 116 
3 95 96 114 
3 97 95 117 
3 117 95 114 
3 115 118 116 
3 117 114 116 
3 118 117 116 
3 103 115 96 
3 96 115 114 
3 110 113 106 
3 106 113 112 
3 108 106 112 
3 118 97 117 
3 103 118 115 
3 113 119 112 
3 112 119 99 
3 113 111 119 
3 119 111 104 
3 99 104 93 
3 93 104 94 
3 97 103 98 
3 98 103 102 
3 97 118 103 
3 99 119 104 
3 120 121 122 
3 123 124 125 
3 125 124 126 
3 127 125 126 
3 128 127 129 
3 127 126 129 
3 130 131 132 
3 132 131 133 
3 133 131 134 
3 134 131 135 
3 122 124 120 
3 123 120 124 
3 129 122 128 
3 121 128 122 
3 136 137 138 
3 138 137 123 
3 139 137 136 
3 139 140 137 
3 137 140 128 
3 141 130 140 
3 133 142 132 
3 134 142 133 
3 135 139 134 
3 134 139 136 
3 135 141 139 
3 139 141 140 
3 124 122 143 
3 143 122 144 
3 124 143 145 
3 145 143 146 
3 147 146 148 
3 143 149 148 
3 146 143 148 
3 129 147 122 
3 122 147 144 
3 129 145 147 
3 147 145 146 
3 131 141 135 
3 130 141 131 
3 134 136 142 
3 142 136 138 
3 132 142 138 
3 149 147 148 
3 138 123 150 
3 150 123 125 
3 127 150 125 
3 140 150 128 
3 128 150 127 
3 123 137 128 
3 138 140 132 
3 132 140 130 
3 124 145 129 
3 143 144 147 
3 143 147 149 
3 124 129 126 
3 120 123 121 
3 121 123 128 
3 138 150 140 
3 151 152 153 
3 153 152 154 
3 155 156 157 
3 158 157 156 
3 158 156 159 
3 159 156 160 
3 161 162 160 
3 162 159 160 
3 163 164 165 
3 165 164 166 
3 163 167 164 
3 164 167 168 
3 155 157 153 
3 157 151 153 
3 161 154 162 
3 152 162 154 
3 165 159 169 
3 169 159 162 
3 165 166 159 
3 159 166 158 
3 166 170 158 
3 158 170 157 
3 163 165 169 
3 167 171 168 
3 167 163 171 
3 171 163 169 
3 172 173 174 
3 153 154 172 
3 155 153 175 
3 175 153 172 
3 173 176 174 
3 175 172 174 
3 176 175 174 
3 161 173 154 
3 154 173 172 
3 168 171 164 
3 164 171 170 
3 166 164 170 
3 176 155 175 
3 161 176 173 
3 171 177 170 
3 170 177 157 
3 171 169 177 
3 177 169 162 
3 157 162 151 
3 151 162 152 
3 155 161 156 
3 156 161 160 
3 155 176 161 
3 157 177 162 
3 178 179 180 
3 180 179 181 
3 182 183 184 
3 185 184 183 
3 185 183 186 
3 186 183 187 
3 188 189 187 
3 189 186 187 
3 190 191 192 
3 192 191 193 
3 190 194 191 
3 191 194 195 
3 182 184 180 
3 184 178 180 
3 188 181 189 
3 179 189 181 
3 192 186 196 
3 196 186 189 
3 192 193 186 
3 186 193 185 
3 193 197 185 
3 185 197 184 
3 190 192 196 
3 194 198 195 
3 194 190 198 
3 198 190 196 
3 199 200 201 
3 180 181 199 
3 182 180 202 
3 202 180 199 
3 200 203 201 
3 202 199 201 
3 203 202 201 
3 188 200 181 
3 181 200 199 
3 195 198 191 
3 191 198 197 
3 193 191 197 
3 203 182 202 
3 188 203 200 
3 198 204 197 
3 197 204 184 
3 198 196 204 
3 204 196 189 
3 184 189 178 
3 178 189 179 
3 182 188 183 
3 183 188 187 
3 182 203 188 
3 184 204 189 
3 205 206 207 
3 208 209 210 
3 210 209 211 
3 212 210 211 
3 213 212 214 
3 212 211 214 
3 215 216 217 
3 217 216 218 
3 218 216 219 
3 219 216 220 
3 207 209 205 
3 208 205 209 
3 214 207 213 
3 206 213 207 
3 221 222 223 
3 223 222 208 
3 224 222 221 
3 224 225 222 
3 222 225 213 
3 226 215 225 
3 218 227 217 
3 219 227 218 
3 220 224 219 
3 219 224 221 
3 220 226 224 
3 224 226 225 
3 209 207 228 
3 228 207 229 
3 209 228 230 
3 230 228 231 
3 232 231 233 
3 228 234 233 
3 231 228 233 
3 214 232 207 
3 207 232 229 
3 214 230 232 
3 232 230 231 
3 216 226 220 
3 215 226 216 
3 219 221 227 
3 227 221 223 
3 217 227 223 
3 234 232 233 
3 223 208 235 
3 235 208 210 
3 212 235 210 
3 225 235 213 
3 213 235 212 
3 208 222 213 
3 223 225 217 
3 217 225 215 
3 209 230 214 
3 228 229 232 
3 228 232 234 
3 209 214 211 
3 205 208 206 
3 206 208 213 
3 223 235 225 
3 236 237 238 
3 238 237 239 
3 240 241 242 
3 243 242 241 
3 243 241 244 
3 244 241 245 
3 246 247 245 
3 247 244 245 
3 248 249 250 
3 250 249 251 
3 248 252 249 
3 249 252 253 
3 240 242 238 
3 242 236 238 
3 246 239 247 
3 237 247 239 
3 250 244 254 
3 254 244 247 
3 250 251 244 
3 244 251 243 
3 251 255 243 
3 243 255 242 
3 248 250 254 
3 252 256 253 
3 252 248 256 
3 256 248 254 
3 257 258 259 
3 238 239 257 
3 240 238 260 
3 260 238 257 
3 258 261 259 
3 260 257 259 
3 261 260 259 
3 246 258 239 
3 239 258 257 
3 253 256 249 
3 249 256 255 
3 251 249 255 
3 261 240 260 
3 246 261 258 
3 256 262 255 
3 255 262 242 
3 256 254 262 
3 262 254 247 
3 242 247 236 
3 236 247 237 
3 240 246 241 
3 241 246 245 
3 240 261 246 
3 242 262 247 
3 263 264 265 
3 266 267 268 
3 268 267 269 
3 270 268 269 
3 271 270 272 
3 270 269 272 
3 273 274 275 
3 275 274 276 
3 276 274 277 
3 277 274 278 
3 265 267 263 
3 266 263 267 
3 272 265 271 
3 264 271 265 
3 279 280 281 
3 281 280 266 
3 282 280 279 
3 282 283 280 
3 280 283 271 
3 284 273 283 
3 276 285 275 
3 277 285 276 
3 278 282 277 
3 277 282 279 
3 278 284 282 
3 282 284 283 
3 267 265 286 
3 286 265 287 
3 267 286 288 
3 288 286 289 
3 290 289 291 
3 286 292 291 
3 289 286 291 
3 272 290 265 
3 265 290 287 
3 272 288 290 
3 290 288 289 
3 274 284 278 
3 273 284 274 
3 277 279 285 
3 285 279 281 
3 275 285 281 
3 292 290 291 
3 281 266 293 
3 293 266 268 
3 270 293 268 
3 283 293 271 
3 271 293 270 
3 266 280 271 
3 281 283 275 
3 275 283 273 
3 267 288 272 
3 286 287 290 
3 286 290 292 
3 267 272 269 
3 263 266 264 
3 264 266 271 
3 281 293 283 
3 294 295 296 
3 297 298 299 
3 299 298 300 
3 301 299 300 
3 302 301 303 
3 301 300 303 
3 304 305 306 
3 306 305 307 
3 307 305 308 
3 308 305 309 
3 296 298 294 
3 297 294 298 
3 303 296 302 
3 295 302 296 
3 310 311 312 
3 312 311 297 
3 313 311 310 
3 313 314 311 
3 311 314 302 
3 315 304 314 
3 307 316 306 
3 308 316 307 
3 309 313 308 
3 308 313 310 
3 309 315 313 
3 313 315 314 
3 298 296 317 
3 317 296 318 
3 298 317 319 
3 319 317 320 
3 321 320 322 
3 317 323 322 
3 320 317 322 
3 303 321 296 
3 296 321 318 
3 303 319 321 
3 321 319 320 
3 305 315 309 
3 304 315 305 
3 308 310 316 
3 316 310 312 
3 306 316 312 
3 323 321 322 
3 312 297 324 
3 324 297 299 
3 301 324 299 
3 314 324 302 
3 302 324 301 
3 297 311 302 
3 312 314 306 
3 306 314 304 
3 298 319 303 
3 317 318 321 
3 317 321 323 
3 298 303 300 
3 294 297 295 
3 295 297 302 
3 312 324 314 
3 325 326 327 
3 328 329 330 
3 330 329 331 
3 332 330 331 
3 333 332 334 
3 332 331 334 
3 335 336 337 
3 337 336 338 
3 338 336 339 
3 339 336 340 
3 327 329 325 
3 328 325 329 
3 334 327 333 
3 326 333 327 
3 341 342 343 
3 343 342 328 
3 344 342 341 
3 344 345 342 
3 342 345 333 
3 346 335 345 
3 338 347 337 
3 339 347 338 
3 340 344 339 
3 339 344 341 
3 340 346 344 
3 344 346 345 
3 329 327 348 
3 348 327 349 
3 329 348 350 
3 350 348 351 
3 352 351 353 
3 348 354 353 
3 351 348 353 
3 334 352 327 
3 327 352 349 
3 334 350 352 
3 352 350 351 
3 336 346 340 
3 335 346 336 
3 339 341 347 
3 347 341 343 
3 337 347 343 
3 354 352 353 
3 343 328 355 
3 355 328 330 
3 332 355 330 
3 345 355 333 
3 333 355 332 
3 328 342 333 
3 343 345 337 
3 337 345 335 
3 329 350 334 
3 348 349 352 
3 348 352 354 
3 329 334 331 
3 325 328 326 
3 326 328 333 
3 343 355 345 
3 356 357 358 
3 359 360 361 
3 361 360 362 
3 363 361 362 
3 364 363 365 
3 363 362 365 
3 366 367 368 
3 368 367 369 
3 369 367 370 
3 370 367 371 
3 358 360 356 
3 359 356 360 
3 365 358 364 
3 357 364 358 
3 372 373 374 
3 374 373 359 
3 375 373 372 
3 375 376 373 
3 373 376 364 
3 377 366 376 
3 369 378 368 
3 370 378 369 
3 371 375 370 
3 370 375 372 
3 371 377 375 
3 375 377 376 
3 360 358 379 
3 379 358 380 
3 360 379 381 
3 381 379 382 
3 383 382 384 
3 379 385 384 
3 382 379 384 
3 365 383 358 
3 358 383 380 
3 365 381 383 
3 383 381 382 
3 367 377 371 
3 366 377 367 
3 370 372 378 
3 378 372 374 
3 368 378 374 
3 385 383 384 
3 374 359 386 
3 386 359 361 
3 363 386 361 
3 376 386 364 
3 364 386 363 
3 359 373 364 
3 374 376 368 
3 368 376 366 
3 360 381 365 
3 379 380 383 
3 379 383 385 
3 360 365 362 
3 356 359 357 
3 357 359 364 
3 374 386 376 
3 387 388 389 
3 389 388 390 
3 391 392 393 
3 394 393 392 
3 394 392 395 
3 395 392 396 
3 397 398 396 
3 398 395 396 
3 399 400 401 
3 401 400 402 
3 399 403 400 
3 400 403 404 
3 391 393 389 
3 393 387 389 
3 397 390 398 
3 388 398 390 
3 401 395 405 
3 405 395 398 
3 401 402 395 
3 395 402 394 
3 402 406 394 
3 394 406 393 
3 399 401 405 
3 403 407 404 
3 403 399 407 
3 407 399 405 
3 408 409 410 
3 389 390 408 
3 391 389 411 
3 411 389 408 
3 409 412 410 
3 411 408 410 
3 412 411 410 
3 397 409 390 
3 390 409 408 
3 404 407 400 
3 400 407 406 
3 402 400 406 
3 412 391 411 
3 397 412 409 
3 407 413 406 
3 406 413 393 
3 407 405 413 
3 413 405 398 
3 393 398 387 
3 387 398 388 
3 391 397 392 
3 392 397 396 
3 391 412 397 
3 393 413 398 
