ply
format ascii 1.0
comment VCGLIB generated
element vertex 451
property float x
property float y
property float z
property float nx
property float ny
property float nz
element face 826
property list uchar int vertex_indices
end_header
2.109 0.2584 2.4794 -0.05054823 0.9594968 -0.2771477 
1.9994 0.1224 2.8056 -0.02750342 0.6000585 0.7994832 
3.3452 0.4024 2.575 0.02444361 0.4424334 0.8964682 
3.4736 0.4606 2.302 -0.08288653 0.994308 -0.06694312 
2.0828 -0.1292 2.8466 0.0477235 -0.6636364 0.7465315 
3.3074 0.1368 2.5454 0.1326065 -0.7765765 0.6159095 
2.1022 -0.1412 2.4792 -0.0159408 -0.8351945 -0.5497237 
3.1372 0.0546 2.106 0.001424417 -0.7270576 -0.6865751 
2.1812 0.1192 2.3518 -0.03055703 0.1895966 -0.9813864 
3.3458 0.2456 2.0114 -0.1657356 0.4249569 -0.8899119 
-0.1492 0.164 -1.6138 -0.6057457 0.2507115 -0.7551265 
0.1628 0.2654 -1.6136 0.05298232 0.6647037 -0.7452261 
0.072 0 -1.6136 0.0007515869 5.820765e-12 -0.9999997 
-0.1492 -0.164 -1.6138 -0.425932 -0.5028109 -0.7521723 
0.1628 -0.2654 -1.6136 0.3541279 -0.5714932 -0.7402628 
0.3556 0 -1.6134 0.6583294 0.1592896 -0.7356829 
10.7374 0.2416 5.6848 0.2083591 0.7048061 0.6781112 
10.506 0.0618 5.7012 -0.5305759 0.3285074 0.7813911 
10.7322 -0.007999999 5.6866 0.07769364 0.0080285 0.9969449 
10.5912 -0.2144 5.699 -0.4474316 -0.4329566 0.7825302 
10.876 -0.2054 5.6762 0.3508578 -0.6665781 0.6577024 
10.9694 0.0764 5.6652 0.8167832 0.07269451 0.5723467 
10.3822 0.1594 4.1558 -0.07684842 0.3692063 -0.9261647 
10.2386 0.0396 4.1474 -0.3712541 0.003953116 -0.9285229 
9.9448 0.1286 4.263 -0.8689197 0.186521 -0.4584633 
10.3902 0.503 4.2944 -0.08446208 0.8437625 -0.5300292 
10.3038 -0.1444 4.1524 -0.1059965 -0.3450132 -0.9325936 
10.1506 -0.4466 4.2838 -0.4001627 -0.7585825 -0.5142202 
10.4864 -0.1384 4.1612 0.2944221 -0.2209689 -0.9297787 
10.7098 -0.4278 4.305 0.5510936 -0.568602 -0.6107272 
10.5374 0.0494 4.162 0.3221126 0.1990884 -0.9255309 
10.8806 0.159 4.2988 0.7143748 0.3254286 -0.6194876 
-0.2924 0.257 0.3958 -0.8313969 0.4454814 0.3321528 
-0.2924 -0.257 0.3958 -0.5634081 -0.7871647 0.2508845 
0.1046 -0.2172 1.6952 -0.6839272 -0.6252314 0.3759379 
0.2022 0.1158 1.7046 -0.6655885 0.6034422 0.4391463 
0.1966 -0.416 0.396 0.5220942 -0.852053 0.03772795 
0.3268 -0.2456 1.4052 0.3391066 -0.9326917 -0.1228533 
0.4988 0 0.3964 0.9919091 0.08976859 -0.08976581 
0.5598 0.0122 1.383 0.9304468 -0.128504 -0.3431552 
0.1966 0.416 0.396 0.1061265 0.9849051 0.1367446 
0.4856 0.289 1.4228 0.363366 0.9315472 -0.01360253 
6.497 0.3394 2.2364 -0.01377093 0.9998832 -0.006627326 
6.5784 0.2668 1.923 0.08373276 0.5098701 -0.8561666 
6.454 0.1006 1.8406 0.0883388 -0.6464686 -0.757809 
6.4144 -0.0664 2.1756 -0.04064621 -0.8588152 0.5106706 
6.3882 0.1384 2.3826 -0.07665414 0.2660898 0.9608956 
9.6118 0.4472 2.897 0.04590881 0.9987295 -0.02078062 
9.9332 0.2082 2.8496 0.5525187 0.4800456 -0.6813805 
9.705 -0.1508 2.7938 0.3988262 -0.8203975 -0.4097385 
9.3424 0.0026 2.9678 -0.3029455 -0.8228214 0.4808211 
9.413799 0.4342 3.0644 -0.5240961 0.4340077 0.7327759 
10.3822 0.1594 4.1558 0.3438211 0.9386445 0.02708811 
10.5374 0.0494 4.162 0.899392 0.05256816 -0.4339706 
10.4864 -0.1384 4.1612 0.2275828 -0.9578981 -0.1750355 
10.3038 -0.1444 4.1524 -0.7083328 -0.5200071 0.4773441 
10.2386 0.0396 4.1474 -0.5121642 0.6517496 0.5593839 
-0.2924 0.257 0.3958 -0.4868814 0.581144 0.6520876 
0.1966 0.416 0.396 0.4242068 0.6710677 0.6080435 
0.2672 0.7306 -0.0004 0.3258984 0.9194533 0.2199908 
-0.5916 0.4516 -0.0009999999 -0.7716123 0.592845 0.2305414 
-0.2924 -0.257 0.3958 -0.6900863 -0.2905672 0.6628361 
-0.5916 -0.4516 -0.0009999999 -0.7984908 -0.560414 0.219883 
0.1966 -0.416 0.396 0.0689473 -0.7754061 0.6276876 
0.2672 -0.7306 -0.0004 0.2933017 -0.93452 0.2016096 
0.4988 0 0.3964 0.7835696 -0.1898908 0.5915743 
0.798 0 0 0.9793588 -0.01583543 0.2015084 
12.1244 -1.1462 7.1322 -0.8297257 -0.5426977 -0.1305163 
12.2706 -1.0772 6.8894 -0.2031276 -0.7848183 -0.5854908 
13.2546 -1.2826 7.398 -0.2964677 -0.6490785 0.7005742 
13.2726 -1.2256 7.1696 -0.1458573 -0.5554579 -0.8186527 
13.0478 -0.7038 7.3478 -0.03503061 0.3942578 0.918332 
13.6202 -0.3612 7.1874 0.6111044 0.1685684 0.7733927 
12.0606 -0.4336 6.9414 -0.3847871 0.1694042 0.9073264 
13.0292 0.051 7.1764 -0.1266537 0.768892 0.6267089 
13.0918 0.0009999999 6.8324 0.5298422 0.6545503 -0.5392876 
13.6936 -0.376 6.9886 0.7201638 -0.2199274 -0.6580244 
13.1328 -0.7452 7.0408 0.3112299 -0.3909625 -0.8661896 
12.2202 -0.5478 6.635 0.205091 -0.3759727 -0.9036493 
10.6832 -0.1404 5.5756 0.2360492 -0.1382809 -0.961852 
10.5638 -0.0686 5.7574 -0.8145562 0.2424181 0.5270025 
11.5842 0.1682 5.9556 0.1795111 0.805474 -0.5647897 
11.8176 0.0802 6.3564 -0.2648222 0.837141 0.4786065 
11.2542 -0.866 6.0496 -0.2760164 -0.8840166 -0.3772659 
11.1756 -0.8402 6.2132 -0.5591019 -0.72893 0.395052 
11.5694 -0.3778 6.132 0.4360825 -0.3887974 -0.8115841 
11.4702 -0.3068 6.3312 -0.5760239 0.2108947 0.7897595 
11.5726 -0.821 6.4 -0.09393887 -0.9682735 0.2315643 
13.8016 -1.6948 7.1174 -0.3081645 -0.9380854 -0.1582097 
13.6974 -0.9896 6.9652 -0.1937776 -0.1238618 -0.973195 
14.8602 -1.3874 6.82 0.8664616 -0.1852935 -0.4635845 
13.7994 -0.9362 7.427401 0.2659201 0.08992403 0.9597917 
14.1556 -0.556 6.9652 0.1459416 0.9390427 -0.3112876 
12.1464 -1.1482 6.8278 0.3767871 -0.8822151 0.2823614 
13.316 0.1454 5.4662 0.3055262 -0.4905354 0.8161059 
13.2476 -0.0398 5.2814 -0.1995409 -0.9652088 0.1689834 
14.0738 0.4142 4.9986 0.3672181 -0.8625875 -0.347985 
12.6056 0.5146 5.6146 0.04278402 -0.05624279 0.9975 
13.7418 0.8044 5.4432 0.4059452 0.03818899 0.9130992 
12.842 1.0256 5.5474 -0.02998302 0.7349745 0.6774315 
13.7108 1.3636 5.2044 0.3698606 0.6753291 -0.6380703 
12.8078 0.9622 5.3726 -0.1178218 0.4438221 -0.8883355 
12.5588 0.5002 5.344 -0.1299474 0.05555273 -0.9899635 
13.6564 0.788 5.3178 -0.3583949 0.08024931 -0.9301147 
11.8316 0.8968 5.3364 0.05115608 -0.03573641 -0.998051 
10.5714 0.0216 5.6888 -0.7992706 -0.1309256 -0.5865364 
11.907 0.9436 5.5122 0.4055935 0.6881455 0.6016226 
10.601 0.032 6.0114 -0.1708255 0.009337955 0.985257 
11.6812 -0.3206 5.6736 0.251154 -0.7777805 0.5761762 
11.5952 -0.4402 5.3936 -0.1327702 -0.6913639 -0.7102028 
12.0782 -0.1066 5.5352 0.3300352 -0.6205007 0.7113759 
13.176 0.0418 5.3674 0.9266623 -0.3758945 -0.0003516025 
11.761 0.3124 5.7598 0.1607146 -0.008330315 0.9869658 
12.0478 -0.142 5.2076 0.1393699 -0.5977157 -0.7895011 
11.7044 0.303 5.4816 0.002785953 0.05607584 -0.9984227 
11.217 0.1702 5.6664 -0.2546623 0.01639646 -0.9668911 
11.2626 0.1826 5.822 0.2214432 0.03466666 0.9745569 
14.4404 0.9718 4.9016 0.837344 0.1634364 0.5216739 
14.5264 0.4588 4.5138 0.3391541 0.1738932 -0.9245192 
13.8114 1.5166 5.1028 -0.7398968 0.6243898 0.25038 
14.2196 1.3574 4.4566 -0.3247742 0.8270199 -0.4588679 
14.2198 0.9234 4.767 -0.7846742 -0.2025766 -0.5858748 
14.6952 1.0452 3.646 -0.11108 0.2762274 -0.9546516 
14.5214 0.4022 4.3152 -0.1562244 -0.891264 0.4257256 
12.0782 1.0964 5.4152 -0.4500639 0.8839195 -0.1269988 
12.4624 1.2436 5.8998 0.2041145 -0.8734937 0.4419799 
12.3792 1.1612 5.596 0.4087167 -0.7228455 -0.557176 
13.0144 2.212 5.645 0.8139498 -0.2841355 0.5067078 
12.8622 2.2038 5.4876 -0.07829583 -0.368221 -0.9264356 
12.4702 2.249 5.9118 0.1754252 0.3841402 0.906456 
12.2546 2.8562 5.7074 0.4000701 0.7738164 0.4910724 
11.8058 1.404 6.066 0.3083677 -0.04595365 0.9501566 
11.795 2.4992 6.0814 -0.4918346 0.4360647 0.7536222 
11.7792 2.4032 5.8254 -0.7146977 0.5737896 -0.3999659 
12.18 2.9258 5.4494 -0.09679464 0.4734748 -0.8754727 
12.376 2.2392 5.6458 0.08867782 -0.003483695 -0.9960543 
11.7886 1.4292 5.6934 -0.1816302 -0.1094678 -0.977255 
10.556 0.0604 5.6096 -0.3524218 -0.2230345 -0.9088754 
10.6132 0.095 5.7394 -0.2734343 -0.4937174 0.8255162 
10.6258 1.0578 5.5956 -0.9447852 0.3275947 0.007918654 
11.0898 1.261 5.8432 -0.6577754 0.2811754 0.6987647 
11.484 0.3186 5.4992 0.3762605 -0.694281 -0.6135161 
11.5714 0.248 5.6986 0.5897755 -0.8032948 0.08295967 
11.2306 0.817 5.5272 0.06558589 0.01566352 -0.997724 
11.2734 0.7694 6.0382 0.0234535 -0.2540089 0.9669175 
11.7688 0.6478 5.6606 0.7278977 -0.5992044 -0.3333451 
13.3544 2.46 5.0352 0.5152795 -0.7261393 -0.4552019 
12.7476 2.6962 5.3714 -0.440937 -0.3871777 -0.8097333 
13.2076 3.4588 4.5012 -0.1277051 0.5821207 -0.8030112 
12.8524 2.7958 5.5344 0.4725298 0.5110339 0.7180251 
12.5076 3.1368 5.2484 -0.8779742 0.4756398 0.05411394 
12.3766 1.1556 5.6644 0.9756858 0.008596927 -0.2190051 
9.806 -2.1916 6.529 -0.8520652 0.3763189 0.3638254 
9.7598 -2.189 6.2546 -0.7501159 0.5124882 -0.4179499 
9.795 -3.115 6.6282 -0.7963646 -0.03946102 -0.6035281 
10.3406 -1.687 6.5154 -0.3331422 0.5891028 0.7361889 
10.0544 -2.7178 7.1858 -0.3818097 0.1459314 0.9126474 
10.6928 -2.0404 6.8572 0.5506639 0.2995954 0.7791097 
10.5642 -2.9784 7.0134 0.6023189 -0.7773932 0.1813059 
10.7676 -2.1936 6.5286 0.6526638 -0.4146819 -0.6340889 
10.3804 -1.7384 6.3706 0.2815413 -0.4494979 -0.8477535 
10.2204 -2.779 6.7696 0.395994 -0.227859 -0.889533 
11.0024 -1.3092 6.1392 0.5847508 -0.4498025 -0.6750883 
10.7362 0.0222 5.6264 0.4493427 0.3042094 -0.8399689 
11.0262 -1.3472 6.3374 0.454818 -0.3300028 0.8271872 
10.7504 0.2184 5.7806 -0.2356503 0.7341025 0.6368378 
10.0114 -0.6672 5.7292 -0.9283808 0.3714831 0.01046054 
10.0868 -0.7382 5.526 -0.3544939 0.09213136 -0.9305084 
9.9972 -1.0956 5.9196 -0.8874984 0.3131336 0.3380738 
9.847799 -2.0664 6.3208 -0.4249397 -0.8801667 0.2115015 
10.484 -0.8662 6.246 -0.2541076 0.4377494 0.8624412 
10.1244 -1.271 5.6026 -0.3751211 -0.3497005 -0.8584834 
10.5826 -1.0486 5.8372 0.3543783 -0.6752607 -0.6468687 
10.6442 -0.5264 5.6682 0.4418814 -0.211855 -0.8716984 
10.6052 -0.4464 5.9022 -0.3050888 0.4344432 0.8474549 
10.0204 -3.6168 6.9258 -0.4135524 -0.4162817 0.8097432 
9.6216 -3.8472 6.3684 -0.1793565 -0.7203847 -0.669983 
10.5552 -3.2082 7.003 0.9439813 0.2170698 0.2485558 
10.5978 -3.8736 6.6408 0.9701201 -0.2272252 0.08506207 
10.1616 -3.4616 6.5464 0.3551373 0.3322348 -0.8737834 
10.165 -4.6936 5.9822 0.1613856 -0.6779009 -0.7172204 
9.734401 -3.845 6.273201 -0.856176 0.446894 -0.2593229 
10.9138 -1.571 6.378 0.976583 0.1963251 0.08798897 
9.781199 1.6744 6.377 0.8780139 -0.06780162 0.4738086 
9.847 1.7062 6.0376 0.8449338 0.4700974 -0.2551376 
8.955 2.2998 6.2378 0.2769281 0.5437255 0.7922585 
9.0112 2.2684 5.922 0.5509243 0.1940308 -0.8116862 
8.8262 1.698 6.3022 -0.4554939 -0.1927994 0.8691109 
8.2066 1.5752 5.8314 -0.8060226 0.1884771 0.5610739 
9.523 1.008 6.193 -0.07342897 -0.09615499 0.9926542 
8.5194 0.9928 6.0788 -0.5205151 -0.5170976 0.679466 
8.5886 1.0436 5.7724 -0.5679034 -0.4757651 -0.6716646 
8.0878 1.603 5.5032 -0.2826487 0.4355167 -0.8546548 
8.8404 1.7002 6.0332 0.1057242 0.2098589 -0.9719988 
9.5104 1.0674 5.9398 0.2753723 0.1214381 -0.9536367 
10.7098 -0.1036 5.435 0.1545441 0.05109584 -0.9866638 
10.7114 -0.1356 5.7462 0.5259447 -0.4858905 0.6980634 
9.7354 -0.0238 5.3798 -0.3290359 -0.7531837 -0.5696049 
9.570001 0.2428 5.888 -0.3895238 -0.7784448 0.4922347 
10.4912 0.895 5.6616 0.7007629 0.5880924 -0.40383 
10.5392 0.8716 5.8774 0.6938099 0.556181 0.4574828 
10.0028 0.5604 5.7236 0.05806474 0.413369 -0.9087105 
10.0446 0.483 6.0574 0.2257324 -0.1833464 0.9567806 
10.1382 0.9960001 5.8962 0.5090024 0.8577611 -0.07184955 
8.7548 2.8508 5.74 0.6243782 0.7757905 -0.09111001 
8.4432 2.1426 5.6158 0.4551359 -0.235395 -0.8587436 
7.5924 2.8624 5.0362 -0.5307469 0.3587852 -0.7678416 
8.299 2.2172 6.0506 -0.5634959 0.2106372 0.7988144 
7.884 2.0036 5.4304 -0.4378842 -0.8680974 -0.2338042 
9.851601 1.6798 6.1106 0.08574985 0.9944227 -0.06140544 
8.7836 -0.6842 5.5634 -0.07344969 0.973429 0.2168895 
8.864799 -0.7314 5.3124 -0.137928 0.886148 -0.4423999 
8.211 -1.486 5.1216 -0.8278921 0.3225496 0.4588644 
8.299601 -1.3914 4.8048 0.3133324 0.4807257 -0.8189784 
8.6796 -1.6524 5.5536 -0.488151 -0.3880601 0.7817403 
8.7962 -2.338 5.3512 -0.5158445 -0.8438832 0.1475312 
9.3006 -1.0008 5.8714 -0.4359799 0.08571756 0.895865 
9.2022 -2.0218 5.7726 0.1668235 -0.4433083 0.8807086 
9.2842 -2.0032 5.5324 0.6346815 -0.5810965 -0.5094175 
8.8814 -2.221 5.2578 0.3494995 -0.2829777 -0.8931817 
8.7756 -1.6568 5.2072 0.3877513 -0.07922716 -0.9183528 
9.3278 -1.0136 5.5532 0.4388641 0.1310583 -0.8889443 
10.6428 0.0858 5.5376 0.5268916 -0.05251344 -0.8483086 
10.5104 -0.005 5.7172 0.2410283 0.4142796 0.8776547 
10.265 -0.8748 5.5704 0.8532704 -0.4688205 -0.2283352 
9.972199 -1.0738 5.8792 0.5147216 -0.3442387 0.7852142 
9.6478 0.0678 5.1696 -0.3353446 0.8668287 -0.3689876 
9.6226 0.1472 5.5584 -0.5772663 0.708741 0.405524 
9.8406 -0.5452 5.4794 0.08448798 -0.06075122 -0.9945708 
9.841001 -0.5318 5.7802 -0.2234144 0.3167517 0.9218213 
9.4684 -0.3268 5.455 -0.8889509 0.4140724 -0.1957302 
7.7684 -1.6452 4.3782 -0.7164884 0.6589936 -0.2288489 
8.4058 -1.9862 4.8178 0.6323416 0.2356697 -0.7379728 
7.6254 -2.5756 3.7682 0.07707385 -0.7010076 -0.7089767 
8.3132 -2.0558 4.994 -0.6494415 -0.4378869 0.6216759 
8.5514 -2.4346 4.7446 0.7590162 -0.6507017 0.02194937 
8.943601 -0.6342 5.3418 -0.9294773 0.09221224 -0.357168 
11.7672 -2.3542 5.5002 -0.8261352 -0.4293773 0.3648778 
11.8328 -2.2692 5.3438 -0.9165308 0.04380618 -0.3975579 
12.3342 -2.891 4.9284 -0.8239694 -0.3526451 -0.4435268 
11.9552 -1.5194 5.5824 -0.002312051 -0.08656982 0.9962432 
12.625 -2.543 5.459 0.2499271 -0.4087088 0.8777776 
12.4844 -1.5884 5.4724 0.7065176 0.3212161 0.6305974 
13.167 -2.2892 5.0764 0.8294957 0.1134382 -0.5468716 
12.4276 -1.5626 5.3392 0.3135288 0.3778286 -0.8711748 
11.924 -1.4792 5.4126 -0.1110444 0.0939269 -0.9893669 
12.5474 -2.3662 5.1342 -0.203471 0.4534869 -0.8677265 
11.9992 -0.6506 5.4104 0.1238863 0.2905705 -0.9487998 
10.9066 0.1088 5.8686 -0.3480195 0.6639662 -0.6618394 
12.0644 -0.6928 5.502 0.9161117 -0.03824095 0.3990952 
10.9088 0.1406 6.0544 0.01310127 0.188545 0.9819772 
10.8126 -0.9604 5.749 -0.8645151 -0.4285232 0.2626436 
10.8592 -0.853 5.5452 -0.5823547 0.1020888 -0.8064992 
11.148 -1.2594 5.5972 -0.5790346 -0.5565295 0.5958136 
11.6874 -2.0658 5.373 0.03324046 -0.8979802 -0.4387784 
11.518 -0.8134 5.8808 0.1319057 -0.1330862 0.9822876 
11.186 -1.1626 5.3624 -0.5877756 -0.1674083 -0.7915139 
11.4472 -0.7136 5.3902 -0.005054572 0.03274034 -0.9994511 
11.1722 -0.3266 5.74 -0.2024697 0.3730823 -0.9054368 
11.1934 -0.3506 5.8198 0.1566178 -0.1344893 0.9784598 
12.92 -3.0382 4.7542 0.4498956 -0.7760637 0.4419492 
12.4064 -3.4286 4.3154 -0.009324803 -0.4497041 -0.8931289 
13.2788 -2.3074 4.9924 0.5377244 0.8267602 0.165288 
13.2702 -2.6936 4.3052 0.7945777 0.4516882 -0.4057389 
12.7196 -2.759 4.5502 -0.4957237 0.6785195 -0.5420971 
13.0282 -3.2512 3.527 0.2303672 -0.1538897 -0.9608584 
12.4588 -3.2924 4.2214 -0.8975248 -0.313315 0.3102948 
12.294 -0.8594 5.4132 0.7766064 0.6106696 -0.1548064 
9.336801 0.7254 6.833 0.7738346 0.4695889 0.4250485 
9.3528 0.7994 6.6452 0.4377646 0.8972055 -0.05817702 
8.3582 0.733 7.0792 0.1265376 0.6038043 0.7870252 
8.3932 0.8394 6.7694 0.06369463 0.3389579 -0.938643 
8.638 0.2874 7.2014 -0.01481002 -0.1681617 0.9856482 
8.111401 -0.1906 7.1002 -0.7544557 -0.2754969 0.5957332 
9.5232 0.1658 6.7448 0.4404549 0.06544084 0.8953865 
8.773601 -0.4136 7.0858 0.2949257 -0.5977017 0.7455009 
8.7582 -0.3942 6.7964 -0.4365201 -0.7258718 -0.5315641 
8.1996 -0.1718 6.8784 -0.5912321 0.05852194 -0.8043755 
8.619 0.2868 6.992001 -0.3314294 0.04150254 -0.9425668 
9.4618 0.1898 6.5656 -0.3072819 0.1878325 -0.932897 
10.8094 -0.0148 5.5796 -0.1335953 0.05127134 -0.9897088 
10.9352 -0.0344 5.7724 0.8718113 0.02495359 0.4892058 
10.0704 -0.5396 5.8486 0.01853151 -0.8556994 -0.5171413 
9.8948 -0.3938 6.3726 0.4146514 -0.6760507 0.6091138 
10.2332 0.6254 5.892 0.1785451 0.8730927 -0.4536859 
10.308 0.616 6.0482 0.4615048 0.8256447 0.3245371 
9.9944 0.1156 5.9822 -0.5187019 0.2953282 -0.8023276 
10.1008 0.084 6.2142 0.5763304 0.02840905 0.8167229 
9.9704 0.5552 6.2478 0.05134591 0.976667 0.208531 
7.7708 1.1476 6.7354 -0.03448808 0.9935026 0.1084575 
7.9878 0.3972 6.786 0.2433476 -0.09104458 -0.9656568 
6.888 0.5386 6.4202 -0.8187194 -0.2113343 -0.5338881 
7.9362 0.3934 7.034 -0.3778968 -0.01711331 0.9256896 
7.6682 -0.0334 6.7182 0.07818402 -0.9863433 -0.1449629 
9.4278 0.8452 6.634 -0.6619427 0.694568 0.281793 
11.7994 1.4206 7.017 0.7968772 -0.3917854 0.4598815 
11.708 1.51 6.7604 0.5997007 -0.5033575 -0.6220856 
11.8214 2.4356 6.753201 0.7926549 0.06175316 -0.6065351 
11.038 1.0552 6.8764 -0.0004662748 -0.6428174 0.7660193 
11.319 2.1546 7.1124 0.1283071 0.09778813 0.9869016 
10.7142 1.5162 6.9914 -0.675351 0.001989121 0.7374938 
10.8266 2.6326 6.9868 -0.2870609 0.9407207 -0.1806669 
10.7498 1.6098 6.676001 -0.337052 0.4337549 -0.8356152 
11.0424 1.1644 6.6356 0.06980087 0.3557387 -0.9319752 
11.2878 2.1456 6.9304 -0.1245609 0.03972669 -0.9914164 
10.3998 1.015 6.1812 0.4215756 0.8148385 -0.3978847 
10.563 -0.0038 5.4272 -0.06089763 0.09538516 -0.993576 
10.427 0.8798 6.3248 -0.6516155 0.1049259 0.7512575 
10.4896 -0.2416 5.4794 -0.5352585 -0.8299077 0.1573268 
11.345 0.2178 6.1202 0.7529134 -0.6115081 0.243268 
11.3812 0.3458 5.8824 0.6675656 0.1972567 -0.7179456 
11.2936 0.6028 6.3112 0.4979964 -0.5435016 0.6757259 
11.688 1.4124 6.7678 0.7133918 0.5734602 0.4027601 
10.8192 0.4888 6.297 -0.06939691 -0.6322811 0.7716247 
11.3584 0.7412 6.0946 0.7128565 0.5058081 -0.4857919 
10.8278 0.5576 6.1776 0.109786 0.8209364 -0.5603665 
10.7062 0.2938 5.8112 0.1822563 0.69525 -0.6952771 
10.6696 0.1558 5.975 -0.2349933 -0.6216965 0.7471758 
11.4906 2.9298 6.7604 0.226923 0.5294804 0.8174084 
12.0968 3.0644 6.4354 -0.1088348 0.8170999 -0.5661296 
10.8204 2.6822 6.9396 -0.9541213 -0.2876712 0.08305393 
11.1632 3.1952 6.462 -0.8925322 0.4029678 -0.2024924 
11.4668 2.8362 6.604 -0.216728 -0.4780257 -0.8511877 
11.6352 3.8938 5.7522 -0.4917225 0.6296054 -0.6015033 
12.1158 3.049 6.274 0.6338649 -0.7221543 0.2769631 
10.3322 1.115 6.4386 -0.9575175 -0.07309903 -0.2789567 
10.7766 -1.7216 7.1828 -0.9281177 -0.003556776 0.3722699 
10.8556 -1.7396 7.0346 -0.825012 0.07121862 -0.5606096 
11.171 -2.6024 6.9842 -0.7702982 -0.3661552 -0.5220834 
11.163 -1.022 6.973 -0.2738712 0.4936674 0.8254012 
11.5154 -2.0592 7.3864 -0.02560771 -0.004129746 0.9996636 
11.6754 -1.1966 7.0864 0.5131902 0.4477502 0.7322266 
12.2144 -2.1402 7.1358 0.8738649 -0.485831 0.01811722 
11.7732 -1.272 6.7832 0.5734965 -0.1158746 -0.8109716 
11.1936 -1.1046 6.7724 0.07297441 -0.3955093 -0.9155584 
11.5442 -2.0314 7.0734 0.09301677 -0.06254815 -0.9936979 
11.6054 -0.574 6.3782 0.3418407 -0.7259858 -0.5967325 
10.7782 0.0788 5.577 0.0452862 -0.06338185 -0.9969614 
11.6406 -0.513 6.593 0.7882528 0.406699 0.4617938 
10.7466 0.2572 5.6686 -0.1454364 0.9888044 0.03337887 
10.3356 -0.4906 6.2844 -0.9843254 0.1438357 0.1020528 
10.3904 -0.605 6.0726 -0.4643565 -0.5236716 -0.7142416 
10.487 -0.757 6.585 -0.8291405 0.1907662 0.525485 
10.742 -1.6738 7.0078 -0.01700743 -0.9265363 0.3758209 
10.9454 -0.316 6.5956 -0.1781777 0.5752612 0.7983277 
10.605 -0.9532 6.2658 -0.4025049 -0.6832216 -0.6092603 
11.0328 -0.5806 6.2592 0.3345093 -0.6992731 -0.63176 
10.8802 -0.2312 5.9916 0.2200367 -0.5980261 -0.7706807 
10.859 -0.0552 6.1754 -0.2041092 0.7843099 0.5858306 
11.7844 -2.9206 7.1174 0.1223809 -0.5849168 0.8018075 
11.3242 -3.1772 6.736599 0.1938637 -0.6902274 -0.6971391 
12.2064 -2.221 7.0824 0.6814642 0.7288489 -0.06622531 
12.2388 -2.8366 6.62 0.8665726 0.2325941 -0.4415337 
11.7312 -2.747 6.8546 -0.1800815 0.4233385 -0.8878937 
12.025 -3.6568 6.0504 0.1036234 -0.3179077 -0.942442 
11.4362 -3.2118 6.5662 -0.9894986 0.07447972 0.123876 
11.745 -0.6548 6.6198 0.8254396 0.5429794 -0.1543472 
9.372 0.1098 4.0766 -0.671807 0.6159644 0.4114161 
9.5242 0.0792 4.0238 0.3673429 0.9186385 0.1454733 
9.2832 -0.1402 3.3042 0.07703937 0.9468099 -0.3124355 
9.864799 -0.4912 4.6326 -0.767051 -0.06688646 0.6380902 
9.478 -0.7338 3.792 -0.8508008 -0.432517 0.2984411 
10.0596 -1.0506 4.4826 -0.2316219 -0.8992334 0.3711208 
9.9866 -1.281 3.8718 0.5819632 -0.5572571 -0.5922698 
10.1562 -0.8634 4.348 0.8954975 -0.107791 -0.4318163 
10.086 -0.3482 4.4574 0.7299219 0.4196262 -0.5395626 
9.7876 -0.5558 3.768 0.8672258 0.3115745 -0.3883821 
10.6296 -0.8828 4.882 0.8883145 -0.2123954 -0.4071675 
10.6158 -0.0746 5.769 0.8033546 0.2566009 0.5373802 
10.4996 -0.8584 4.9788 -0.4611556 -0.8855348 0.05624687 
10.5224 -0.1336 5.9174 -0.1665171 -0.2120267 0.9629729 
9.9436 0.4314 5.18 -0.8136368 0.512139 0.2751521 
10.1612 0.5712 5.0956 0.3731066 0.9228117 -0.09596927 
10.0018 0.155 4.842 -0.9761934 0.1052845 0.1896358 
9.79 0.1388 4.4584 -0.7517853 0.4974159 -0.432893 
10.1788 -0.3174 5.1456 -0.8489739 -0.289817 0.4418706 
10.0892 0.2748 4.7422 0.05274945 0.7440367 -0.6660532 
10.4238 -0.1882 4.9752 0.6380359 0.225995 -0.7360954 
10.5874 -0.0774 5.3178 0.8831673 0.3375263 -0.3257169 
10.2714 -0.2598 5.499 -0.8387824 -0.3977773 0.3717758 
9.3552 -0.7228 3.1012 -0.7908316 -0.5645518 -0.2363613 
9.1436 0.0288 2.8928 0.523756 0.4836512 -0.7012569 
10.0234 -1.3476 3.7068 0.69495 -0.6357738 0.3359111 
9.8628 -0.9662001 3.1724 0.7287302 -0.4291676 -0.5336361 
9.6368 -0.5654 3.3012 0.8161281 0.5753736 -0.05366742 
9.691 -0.4744 2.5532 0.5665733 -0.05559372 -0.8221338 
9.2524 -0.071 2.7512 -0.7239559 0.6329822 0.2742653 
10.5102 -1.0068 4.8486 0.7564434 -0.6149543 0.222766 
10.6856 1.4104 4.5242 0.184041 0.9733067 0.1371236 
10.9046 1.2852 4.5558 0.9032925 0.1226717 0.4111135 
10.4526 1.326 3.781 0.9194329 0.1141315 -0.3763206 
10.3094 1.1958 4.9682 -0.3186201 0.7650098 0.5596796 
10.0732 1.3858 4.0506 -0.3492461 0.932878 0.0881238 
9.9368 1.0272 4.5604 -0.8213769 0.4553986 0.3434417 
9.4726 1.0802 3.663 -0.8673139 -0.09715974 -0.488187 
9.9058 0.8832 4.496 -0.3090651 -0.9270702 -0.2121782 
10.3314 0.9536 4.8088 0.2888001 -0.8123669 -0.5066108 
10.09 1.122 4.0276 0.2902866 -0.9433372 -0.1607748 
9.9606 0.4782 4.9858 0.1063009 -0.6030425 -0.7905947 
10.7258 -0.022 5.766 0.3409455 -0.9268214 0.1573474 
9.9394 0.6164 5.0788 -0.8169391 0.4727653 0.330308 
10.685 0.1666 5.9386 -0.2645347 0.2122007 0.9407402 
11.0418 0.813 5.4952 0.6781728 0.5386528 0.4999348 
11.1364 0.6542 5.3708 0.8078219 -0.3761801 -0.4537756 
10.8836 0.9848 5.2768 0.352803 0.7999703 0.4853634 
10.7508 1.3068 4.6106 0.3451921 0.5882214 -0.7313262 
10.4662 0.7554 5.4108 -0.3017713 0.6333446 0.712607 
10.9208 0.757 5.0524 0.8161633 -0.238176 -0.5264501 
10.4716 0.5102 5.1234 0.1979794 -0.587752 -0.7844436 
10.5814 0.416 5.5302 0.3090797 -0.7479513 -0.5874 
10.569 0.481 5.6028 -0.3357432 0.5609612 0.7567028 
9.9546 1.2694 3.3662 -0.2118119 0.890273 -0.4031745 
10.5776 1.2194 3.2908 0.3526831 -0.5173084 -0.7797478 
9.5532 1.0706 3.6328 -0.827738 -0.1971509 0.5253392 
9.5234 0.7622 3.1216 -0.8888897 -0.4501175 -0.08526139 
10.058 1.0476 3.5092 0.2677948 -0.9064007 0.3266861 
10.0118 0.6046 2.6878 0.2169839 -0.6158779 -0.757372 
10.5824 1.1078 3.2812 0.679561 0.5025843 0.5344211 
9.8828 0.6554 4.9286 -0.8997961 -0.3797077 0.2149165 
10.9954 -0.9186 4.7338 -0.3415996 -0.7115533 0.6140046 
10.8572 -0.8044 4.69 -0.9035608 -0.4083437 0.1297435 
11.136 -0.8048 4.0286 0.1092342 -0.9708034 -0.213562 
10.9872 -0.6858 4.043 -0.9690574 0.2111107 0.1279058 
11.62 -0.5588 4.3438 0.8176481 -0.516439 -0.2544453 
11.844 0.055 3.9608 0.8480637 -0.03691986 -0.5286066 
11.4478 -0.4986 5.0666 0.7271046 -0.5856128 0.3582968 
11.7558 0.0876 4.534 0.9188051 -0.01771394 0.3943138 
11.6942 0.337 4.5272 0.2351469 0.9609402 -0.1459443 
11.5778 0.1706 4.0428 -0.6331382 0.5823413 -0.5099165 
11.2982 -0.3466 4.2948 -0.8414519 0.5038274 -0.1952352 
11.1888 -0.3254 4.9182 -0.8623661 0.4934193 -0.1134109 
10.659 0.0164 5.9648 -0.7667529 0.6419348 0.003134554 
10.8262 -0.0996 5.9086 0.4399717 -0.4658244 0.7677451 
11.236 0.5518 5.541 0.3970801 0.647078 0.650859 
11.3482 0.142 5.2998 0.8525199 -0.1445893 0.5022985 
10.4472 -0.571 5.3126 -0.8679864 -0.4835675 0.1129698 
10.5992 -0.7354 5.4306 -0.2020995 -0.9492154 0.2411349 
10.9402 -0.1674 5.3352 -0.7319564 0.465029 -0.4979838 
11.0736 -0.258 5.4188 0.6088232 -0.5366453 0.5842484 
10.7412 -0.6236 5.1478 -0.2464421 -0.7225965 -0.6458488 
10.718 -0.7584 3.5512 -0.731409 -0.6808242 0.03898012 
11.188 -0.3012 3.8762 -0.7740332 0.502322 0.3854158 
10.7474 -0.0108 3.0028 -0.3973056 0.4748747 -0.7852657 
11.3138 -0.3714 3.8402 0.6765466 -0.4242022 -0.6019446 
11.4712 0.2464 3.7258 0.2405165 0.9247203 0.2950325 
10.8592 -0.7726 4.7806 -0.3108347 -0.5037928 -0.8059618 
1.0532 0.2724 2.2366 0.2634104 0.9432662 -0.2021483 
0.8642 0.1194 2.5426 -0.3921712 0.6044515 0.6934264 
0.865 -0.1694 2.5604 -0.4298323 -0.6724259 0.6025676 
0.9768 -0.1888 2.2284 0.2141077 -0.8885282 -0.4058025 
1.1262 0.0704 2.149 0.5473145 -0.01014616 -0.8368655 
3 0 1 2 
3 0 2 3 
3 1 4 5 
3 1 5 2 
3 4 6 7 
3 4 7 5 
3 6 8 9 
3 6 9 7 
3 8 0 3 
3 8 3 9 
3 10 11 12 
3 13 10 12 
3 14 13 12 
3 15 14 12 
3 11 15 12 
3 16 17 18 
3 17 19 18 
3 19 20 18 
3 20 21 18 
3 21 16 18 
3 22 23 24 
3 22 24 25 
3 23 26 27 
3 23 27 24 
3 26 28 29 
3 26 29 27 
3 28 30 31 
3 28 31 29 
3 30 22 25 
3 30 25 31 
3 25 24 17 
3 25 17 16 
3 24 27 19 
3 24 19 17 
3 27 29 20 
3 27 20 19 
3 29 31 21 
3 29 21 20 
3 31 25 16 
3 31 16 21 
3 32 33 34 
3 32 34 35 
3 33 36 37 
3 33 37 34 
3 36 38 39 
3 36 39 37 
3 38 40 41 
3 38 41 39 
3 40 32 35 
3 40 35 41 
3 9 3 42 
3 9 42 43 
3 7 9 43 
3 7 43 44 
3 5 7 44 
3 5 44 45 
3 2 5 45 
3 2 45 46 
3 3 2 46 
3 3 46 42 
3 43 42 47 
3 43 47 48 
3 44 43 48 
3 44 48 49 
3 45 44 49 
3 45 49 50 
3 46 45 50 
3 46 50 51 
3 42 46 51 
3 42 51 47 
3 48 47 52 
3 48 52 53 
3 49 48 53 
3 49 53 54 
3 50 49 54 
3 50 54 55 
3 51 50 55 
3 51 55 56 
3 47 51 56 
3 47 56 52 
3 57 58 59 
3 57 59 60 
3 61 57 60 
3 61 60 62 
3 63 61 62 
3 63 62 64 
3 65 63 64 
3 65 64 66 
3 58 65 66 
3 58 66 59 
3 60 59 11 
3 60 11 10 
3 62 60 10 
3 62 10 13 
3 64 62 13 
3 64 13 14 
3 66 64 14 
3 66 14 15 
3 59 66 15 
3 59 15 11 
3 67 68 69 
3 69 68 70 
3 71 72 73 
3 74 73 72 
3 74 72 75 
3 75 72 76 
3 77 78 76 
3 78 75 76 
3 79 80 81 
3 81 80 82 
3 79 83 80 
3 80 83 84 
3 71 73 69 
3 73 67 69 
3 77 70 78 
3 68 78 70 
3 81 75 85 
3 85 75 78 
3 81 82 75 
3 75 82 74 
3 82 86 74 
3 74 86 73 
3 79 81 85 
3 83 87 84 
3 83 79 87 
3 87 79 85 
3 88 89 90 
3 69 70 88 
3 71 69 91 
3 91 69 88 
3 89 92 90 
3 91 88 90 
3 92 91 90 
3 77 89 70 
3 70 89 88 
3 84 87 80 
3 80 87 86 
3 82 80 86 
3 92 71 91 
3 77 92 89 
3 87 93 86 
3 86 93 73 
3 87 85 93 
3 93 85 78 
3 73 78 67 
3 67 78 68 
3 71 77 72 
3 72 77 76 
3 71 92 77 
3 73 93 78 
3 94 95 96 
3 97 98 99 
3 99 98 100 
3 101 99 100 
3 102 101 103 
3 101 100 103 
3 104 105 106 
3 106 105 107 
3 107 105 108 
3 108 105 109 
3 96 98 94 
3 97 94 98 
3 103 96 102 
3 95 102 96 
3 110 111 112 
3 112 111 97 
3 113 111 110 
3 113 114 111 
3 111 114 102 
3 115 104 114 
3 107 116 106 
3 108 116 107 
3 109 113 108 
3 108 113 110 
3 109 115 113 
3 113 115 114 
3 98 96 117 
3 117 96 118 
3 98 117 119 
3 119 117 120 
3 121 120 122 
3 117 123 122 
3 120 117 122 
3 103 121 96 
3 96 121 118 
3 103 119 121 
3 121 119 120 
3 105 115 109 
3 104 115 105 
3 108 110 116 
3 116 110 112 
3 106 116 112 
3 123 121 122 
3 112 97 124 
3 124 97 99 
3 101 124 99 
3 114 124 102 
3 102 124 101 
3 97 111 102 
3 112 114 106 
3 106 114 104 
3 98 119 103 
3 117 118 121 
3 117 121 123 
3 98 103 100 
3 94 97 95 
3 95 97 102 
3 112 124 114 
3 125 126 127 
3 127 126 128 
3 129 130 131 
3 132 131 130 
3 132 130 133 
3 133 130 134 
3 135 136 134 
3 136 133 134 
3 137 138 139 
3 139 138 140 
3 137 141 138 
3 138 141 142 
3 129 131 127 
3 131 125 127 
3 135 128 136 
3 126 136 128 
3 139 133 143 
3 143 133 136 
3 139 140 133 
3 133 140 132 
3 140 144 132 
3 132 144 131 
3 137 139 143 
3 141 145 142 
3 141 137 145 
3 145 137 143 
3 146 147 148 
3 127 128 146 
3 129 127 149 
3 149 127 146 
3 147 150 148 
3 149 146 148 
3 150 149 148 
3 135 147 128 
3 128 147 146 
3 142 145 138 
3 138 145 144 
3 140 138 144 
3 150 129 149 
3 135 150 147 
3 145 151 144 
3 144 151 131 
3 145 143 151 
3 151 143 136 
3 131 136 125 
3 125 136 126 
3 129 135 130 
3 130 135 134 
3 129 150 135 
3 131 151 136 
3 152 153 154 
3 155 156 157 
3 157 156 158 
3 159 157 158 
3 160 159 161 
3 159 158 161 
3 162 163 164 
3 164 163 165 
3 165 163 166 
3 166 163 167 
3 154 156 152 
3 155 152 156 
3 161 154 160 
3 153 160 154 
3 168 169 170 
3 170 169 155 
3 171 169 168 
3 171 172 169 
3 169 172 160 
3 173 162 172 
3 165 174 164 
3 166 174 165 
3 167 171 166 
3 166 171 168 
3 167 173 171 
3 171 173 172 
3 156 154 175 
3 175 154 176 
3 156 175 177 
3 177 175 178 
3 179 178 180 
3 175 181 180 
3 178 175 180 
3 161 179 154 
3 154 179 176 
3 161 177 179 
3 179 177 178 
3 163 173 167 
3 162 173 163 
3 166 168 174 
3 174 168 170 
3 164 174 170 
3 181 179 180 
3 170 155 182 
3 182 155 157 
3 159 182 157 
3 172 182 160 
3 160 182 159 
3 155 169 160 
3 170 172 164 
3 164 172 162 
3 156 177 161 
3 175 176 179 
3 175 179 181 
3 156 161 158 
3 152 155 153 
3 153 155 160 
3 170 182 172 
3 183 184 185 
3 185 184 186 
3 187 188 189 
3 190 189 188 
3 190 188 191 
3 191 188 192 
3 193 194 192 
3 194 191 192 
3 195 196 197 
3 197 196 198 
3 195 199 196 
3 196 199 200 
3 187 189 185 
3 189 183 185 
3 193 186 194 
3 184 194 186 
3 197 191 201 
3 201 191 194 
3 197 198 191 
3 191 198 190 
3 198 202 190 
3 190 202 189 
3 195 197 201 
3 199 203 200 
3 199 195 203 
3 203 195 201 
3 204 205 206 
3 185 186 204 
3 187 185 207 
3 207 185 204 
3 205 208 206 
3 207 204 206 
3 208 207 206 
3 193 205 186 
3 186 205 204 
3 200 203 196 
3 196 203 202 
3 198 196 202 
3 208 187 207 
3 193 208 205 
3 203 209 202 
3 202 209 189 
3 203 201 209 
3 209 201 194 
3 189 194 183 
3 183 194 184 
3 187 193 188 
3 188 193 192 
3 187 208 193 
3 189 209 194 
3 210 211 212 
3 212 211 213 
3 214 215 216 
3 217 216 215 
3 217 215 218 
3 218 215 219 
3 220 221 219 
3 221 218 219 
3 222 223 224 
3 224 223 225 
3 222 226 223 
3 223 226 227 
3 214 216 212 
3 216 210 212 
3 220 213 221 
3 211 221 213 
3 224 218 228 
3 228 218 221 
3 224 225 218 
3 218 225 217 
3 225 229 217 
3 217 229 216 
3 222 224 228 
3 226 230 227 
3 226 222 230 
3 230 222 228 
3 231 232 233 
3 212 213 231 
3 214 212 234 
3 234 212 231 
3 232 235 233 
3 234 231 233 
3 235 234 233 
3 220 232 213 
3 213 232 231 
3 227 230 223 
3 223 230 229 
3 225 223 229 
3 235 214 234 
3 220 235 232 
3 230 236 229 
3 229 236 216 
3 230 228 236 
3 236 228 221 
3 216 221 210 
3 210 221 211 
3 214 220 215 
3 215 220 219 
3 214 235 220 
3 216 236 221 
3 237 238 239 
3 240 241 242 
3 242 241 243 
3 244 242 243 
3 245 244 246 
3 244 243 246 
3 247 248 249 
3 249 248 250 
3 250 248 251 
3 251 248 252 
3 239 241 237 
3 240 237 241 
3 246 239 245 
3 238 245 239 
3 253 254 255 
3 255 254 240 
3 256 254 253 
3 256 257 254 
3 254 257 245 
3 258 247 257 
3 250 259 249 
3 251 259 250 
3 252 256 251 
3 251 256 253 
3 252 258 256 
3 256 258 257 
3 241 239 260 
3 260 239 261 
3 241 260 262 
3 262 260 263 
3 264 263 265 
3 260 266 265 
3 263 260 265 
3 246 264 239 
3 239 264 261 
3 246 262 264 
3 264 262 263 
3 248 258 252 
3 247 258 248 
3 251 253 259 
3 259 253 255 
3 249 259 255 
3 266 264 265 
3 255 240 267 
3 267 240 242 
3 244 267 242 
3 257 267 245 
3 245 267 244 
3 240 254 245 
3 255 257 249 
3 249 257 247 
3 241 262 246 
3 260 261 264 
3 260 264 266 
3 241 246 243 
3 237 240 238 
3 238 240 245 
3 255 267 257 
3 268 269 270 
3 270 269 271 
3 272 273 274 
3 275 274 273 
3 275 273 276 
3 276 273 277 
3 278 279 277 
3 279 276 277 
3 280 281 282 
3 282 281 283 
3 280 284 281 
3 281 284 285 
3 272 274 270 
3 274 268 270 
3 278 271 279 
3 269 279 271 
3 282 276 286 
3 286 276 279 
3 282 283 276 
3 276 283 275 
3 283 287 275 
3 275 287 274 
3 280 282 286 
3 284 288 285 
3 284 280 288 
3 288 280 286 
3 289 290 291 
3 270 271 289 
3 272 270 292 
3 292 270 289 
3 290 293 291 
3 292 289 291 
3 293 292 291 
3 278 290 271 
3 271 290 289 
3 285 288 281 
3 281 288 287 
3 283 281 287 
3 293 272 292 
3 278 293 290 
3 288 294 287 
3 287 294 274 
3 288 286 294 
3 294 286 279 
3 274 279 268 
3 268 279 269 
3 272 278 273 
3 273 278 277 
3 272 293 278 
3 274 294 279 
3 295 296 297 
3 298 299 300 
3 300 299 301 
3 302 300 301 
3 303 302 304 
3 302 301 304 
3 305 306 307 
3 307 306 308 
3 308 306 309 
3 309 306 310 
3 297 299 295 
3 298 295 299 
3 304 297 303 
3 296 303 297 
3 311 312 313 
3 313 312 298 
3 314 312 311 
3 314 315 312 
3 312 315 303 
3 316 305 315 
3 308 317 307 
3 309 317 308 
3 310 314 309 
3 309 314 311 
3 310 316 314 
3 314 316 315 
3 299 297 318 
3 318 297 319 
3 299 318 320 
3 320 318 321 
3 322 321 323 
3 318 324 323 
3 321 318 323 
3 304 322 297 
3 297 322 319 
3 304 320 322 
3 322 320 321 
3 306 316 310 
3 305 316 306 
3 309 311 317 
3 317 311 313 
3 307 317 313 
3 324 322 323 
3 313 298 325 
3 325 298 300 
3 302 325 300 
3 315 325 303 
3 303 325 302 
3 298 312 303 
3 313 315 307 
3 307 315 305 
3 299 320 304 
3 318 319 322 
3 318 322 324 
3 299 304 301 
3 295 298 296 
3 296 298 303 
3 313 325 315 
3 326 327 328 
3 329 330 331 
3 331 330 332 
3 333 331 332 
3 334 333 335 
3 333 332 335 
3 336 337 338 
3 338 337 339 
3 339 337 340 
3 340 337 341 
3 328 330 326 
3 329 326 330 
3 335 328 334 
3 327 334 328 
3 342 343 344 
3 344 343 329 
3 345 343 342 
3 345 346 343 
3 343 346 334 
3 347 336 346 
3 339 348 338 
3 340 348 339 
3 341 345 340 
3 340 345 342 
3 341 347 345 
3 345 347 346 
3 330 328 349 
3 349 328 350 
3 330 349 351 
3 351 349 352 
3 353 352 354 
3 349 355 354 
3 352 349 354 
3 335 353 328 
3 328 353 350 
3 335 351 353 
3 353 351 352 
3 337 347 341 
3 336 347 337 
3 340 342 348 
3 348 342 344 
3 338 348 344 
3 355 353 354 
3 344 329 356 
3 356 329 331 
3 333 356 331 
3 346 356 334 
3 334 356 333 
3 329 343 334 
3 344 346 338 
3 338 346 336 
3 330 351 335 
3 349 350 353 
3 349 353 355 
3 330 335 332 
3 326 329 327 
3 327 329 334 
3 344 356 346 
3 357 358 359 
3 360 361 362 
3 362 361 363 
3 364 362 363 
3 365 364 366 
3 364 363 366 
3 367 368 369 
3 369 368 370 
3 370 368 371 
3 371 368 372 
3 359 361 357 
3 360 357 361 
3 366 359 365 
3 358 365 359 
3 373 374 375 
3 375 374 360 
3 376 374 373 
3 376 377 374 
3 374 377 365 
3 378 367 377 
3 370 379 369 
3 371 379 370 
3 372 376 371 
3 371 376 373 
3 372 378 376 
3 376 378 377 
3 361 359 380 
3 380 359 381 
3 361 380 382 
3 382 380 383 
3 384 383 385 
3 380 386 385 
3 383 380 385 
3 366 384 359 
3 359 384 381 
3 366 382 384 
3 384 382 383 
3 368 378 372 
3 367 378 368 
3 371 373 379 
3 379 373 375 
3 369 379 375 
3 386 384 385 
3 375 360 387 
3 387 360 362 
3 364 387 362 
3 377 387 365 
3 365 387 364 
3 360 374 365 
3 375 377 369 
3 369 377 367 
3 361 382 366 
3 380 381 384 
3 380 384 386 
3 361 366 363 
3 357 360 358 
3 358 360 365 
3 375 387 377 
3 388 389 390 
3 391 392 393 
3 393 392 394 
3 395 393 394 
3 396 395 397 
3 395 394 397 
3 398 399 400 
3 400 399 401 
3 401 399 402 
3 402 399 403 
3 390 392 388 
3 391 388 392 
3 397 390 396 
3 389 396 390 
3 404 405 406 
3 406 405 391 
3 407 405 404 
3 407 408 405 
3 405 408 396 
3 409 398 408 
3 401 410 400 
3 402 410 401 
3 403 407 402 
3 402 407 404 
3 403 409 407 
3 407 409 408 
3 392 390 411 
3 411 390 412 
3 392 411 413 
3 413 411 414 
3 415 414 416 
3 411 417 416 
3 414 411 416 
3 397 415 390 
3 390 415 412 
3 397 413 415 
3 415 413 414 
3 399 409 403 
3 398 409 399 
3 402 404 410 
3 410 404 406 
3 400 410 406 
3 417 415 416 
3 406 391 418 
3 418 391 393 
3 395 418 393 
3 408 418 396 
3 396 418 395 
3 391 405 396 
3 406 408 400 
3 400 408 398 
3 392 413 397 
3 411 412 415 
3 411 415 417 
3 392 397 394 
3 388 391 389 
3 389 391 396 
3 406 418 408 
3 419 420 421 
3 421 420 422 
3 423 424 425 
3 426 425 424 
3 426 424 427 
3 427 424 428 
3 429 430 428 
3 430 427 428 
3 431 432 433 
3 433 432 434 
3 431 435 432 
3 432 435 436 
3 423 425 421 
3 425 419 421 
3 429 422 430 
3 420 430 422 
3 433 427 437 
3 437 427 430 
3 433 434 427 
3 427 434 426 
3 434 438 426 
3 426 438 425 
3 431 433 437 
3 435 439 436 
3 435 431 439 
3 439 431 437 
3 440 441 442 
3 421 422 440 
3 423 421 443 
3 443 421 440 
3 441 444 442 
3 443 440 442 
3 444 443 442 
3 429 441 422 
3 422 441 440 
3 436 439 432 
3 432 439 438 
3 434 432 438 
3 444 423 443 
3 429 444 441 
3 439 445 438 
3 438 445 425 
3 439 437 445 
3 445 437 430 
3 425 430 419 
3 419 430 420 
3 423 429 424 
3 424 429 428 
3 423 444 429 
3 425 445 430 
3 446 447 1 
3 446 1 0 
3 447 448 4 
3 447 4 1 
3 448 449 6 
3 448 6 4 
3 449 450 8 
3 449 8 6 
3 450 446 0 
3 450 0 8 
3 41 35 447 
3 41 447 446 
3 35 34 448 
3 35 448 447 
3 34 37 449 
3 34 449 448 
3 37 39 450 
3 37 450 449 
3 39 41 446 
3 39 446 450 
