ply
format ascii 1.0
comment VCGLIB generated
element vertex 441
property float x
property float y
property float z
property float nx
property float ny
property float nz
element face 806
property list uchar int vertex_indices
end_header
-0.1516 0.2338 2.937 0.1497232 0.9878968 0.04053489 
-0.3772 0.051 3.373 -0.8845138 0.4409667 0.1522619 
0.94 0.1362 8.3344 -0.8746241 0.4585342 0.1574144 
1.2984 0.1908 8.5582 0.1265165 0.9914342 -0.03243195 
-0.2122 -0.238 3.44 -0.6650629 -0.7408342 0.09410708 
0.9012 -0.1136 8.2582 -0.6213593 -0.7713776 0.137438 
0.106 -0.2338 3.0818 0.4397195 -0.8974678 -0.034617 
1.1348 -0.1908 8.177 0.4092983 -0.9108701 -0.05282581 
0.156 0.0934 2.9792 0.9751975 0.211038 -0.06672964 
1.4176 -0.0112 8.455 0.978896 0.1186078 -0.1664178 
-0.3156 0.1778 -1.827 -0.5948446 0.2471347 -0.764908 
0.0238 0.2876 -1.8302 0.04739393 0.6484689 -0.7597644 
-0.0794 0 -1.829 -0.009307282 -0.000561421 -0.9999565 
-0.3182 -0.1778 -1.8268 -0.4226517 -0.4876972 -0.7638829 
0.0172 -0.2876 -1.8298 0.3392222 -0.5624167 -0.7540662 
0.2278 0 -1.832 0.6430178 0.1504549 -0.750927 
2.212 0.227 27.9002 0.1802702 0.6878928 0.7030691 
1.9942 0.058 27.9104 -0.5788305 0.3572075 0.7330472 
2.2182 -0.0076 27.9 0.04712473 0.0003383139 0.998889 
2.0834 -0.2016 27.9064 -0.4905865 -0.4657449 0.7364826 
2.3618 -0.1932 27.8932 0.320763 -0.6361153 0.701761 
2.44 0.0718 27.8894 0.7263449 0.07265045 0.6834801 
2.2118 0.1498 26.5314 -0.1890202 0.3974315 -0.897953 
2.0674 0.0372 26.5486 -0.4646841 0.02921668 -0.8849944 
1.7168 0.121 26.735 -0.8668227 0.1676276 -0.469595 
2.1696 0.4728 26.6844 -0.1403684 0.8557102 -0.4980529 
2.1262 -0.1356 26.5418 -0.2284266 -0.3710517 -0.9000788 
1.9006 -0.4198 26.7146 -0.4619651 -0.7340939 -0.497689 
2.3106 -0.13 26.5198 0.2706342 -0.2750079 -0.9225659 
2.4782 -0.4022 26.6506 0.5396682 -0.6474117 -0.5381601 
2.3626 0.0464 26.5136 0.2922641 0.2531838 -0.9222146 
2.6422 0.1494 26.6312 0.762686 0.3559057 -0.5400382 
-0.4702 0.2794 0.4606 -0.9865808 0.1542243 0.0536004 
-0.474 -0.2794 0.461 -0.4891871 -0.8705274 0.05364953 
0.0528 -0.452 0.456 0.6958634 -0.7159398 0.05660778 
0.3836 0 0.4526 0.8823465 0.4653876 0.06984967 
0.0632 0.452 0.4556 -0.1149667 0.9912217 0.06528615 
2.0938 0.1964 16.3684 0.08559389 0.9961599 -0.01841848 
2.307 0.0728 16.1978 0.9948991 0.08233454 -0.05828109 
2.1956 -0.1264 16.0432 0.4787971 -0.8776872 -0.02045779 
2.0734 -0.1996 16.2928 -0.5931196 -0.8031269 0.05653756 
1.9524 0.028 16.4238 -0.910588 0.4102868 0.04994213 
2.18 0.1624 24.9942 0.113672 0.9934622 0.01055997 
2.2968 0 24.9736 0.9931688 0.1143258 -0.02335143 
2.1496 -0.1624 24.6416 0.5043338 -0.8633906 -0.01428614 
1.9606 -0.1004 24.676 -0.6683404 -0.7436406 0.01788107 
1.9912 0.1004 25.0278 -0.9115224 0.4099145 0.03312253 
2.2118 0.1498 26.5314 0.3717241 0.9282923 -0.009725223 
2.3626 0.0464 26.5136 0.9936817 -0.1006192 -0.04972407 
2.3106 -0.13 26.5198 0.2345455 -0.972058 -0.009575318 
2.1262 -0.1356 26.5418 -0.8462909 -0.5299698 0.05407162 
2.0674 0.0372 26.5486 -0.765576 0.6410083 0.05478725 
-0.4702 0.2794 0.4606 -0.4356804 0.5327504 0.7255065 
0.0632 0.452 0.4556 0.4003671 0.609076 0.6846406 
0.168 0.8888 0.0056 0.3391041 0.9042618 0.2594591 
-0.881 0.5494 0.0158 -0.7548319 0.5974075 0.2708011 
-0.474 -0.2794 0.461 -0.6220763 -0.2606806 0.7382864 
-0.8884 -0.5494 0.0164 -0.7958467 -0.5460426 0.2616593 
0.0528 -0.452 0.456 0.07021329 -0.7078947 0.7028194 
0.1474 -0.8888 0.0066 0.2854274 -0.9281569 0.2388641 
0.3836 0 0.4526 0.7256768 -0.1792096 0.6642869 
0.798 0 0 0.9705535 -0.03098967 0.2388839 
4.0338 -1.3106 29.3422 -0.8778875 -0.4477374 0.1698371 
4.0974 -1.3366 29.0824 -0.3802015 -0.8646263 -0.3284329 
5.3468 -1.4874 29.6658 -0.2662101 -0.5997493 0.7546079 
5.3332 -1.5126 29.423 -0.05387413 -0.4915186 -0.869199 
5.0598 -0.8338 29.7416 -0.02646674 0.2557121 0.9663906 
5.8956 -0.4244 29.5788 0.6939215 0.3167255 0.6466514 
3.9046 -0.535 29.1288 -0.3809288 0.1411349 0.9137692 
5.032 -0.06 29.3816 -0.117368 0.7917626 0.5994471 
5.0702 -0.0846 29.1368 0.4767984 0.6590916 -0.5816026 
5.7616 -0.464 29.3064 0.5871926 -0.2470987 -0.7708094 
5.1014 -0.882 29.4522 0.3458392 -0.3289563 -0.8787395 
4.083 -0.6778 28.7834 0.2272437 -0.316719 -0.920896 
2.229 -0.1624 27.6196 0.1288031 -0.1660144 -0.9776753 
2.2306 -0.1368 27.8076 -0.818058 0.303229 0.4887057 
3.3034 0.2772 27.9358 0.04198522 0.9045167 -0.4243663 
3.5756 0.0786 28.4632 -0.2348679 0.8569064 0.4588558 
2.8906 -0.9688 28.1502 -0.1007923 -0.8001547 -0.5912642 
2.7208 -1.0772 28.3672 -0.3690093 -0.9294124 -0.004973421 
3.2502 -0.435 28.2388 0.4150213 -0.3847885 -0.8244362 
3.0836 -0.328 28.5568 -0.578352 0.2104627 0.7881716 
3.288 -0.9348 28.5254 0.007431599 -0.9839339 -0.1783786 
5.9896 -2.0432 29.3994 -0.2971344 -0.9547948 0.008832393 
5.886 -1.1772 29.3674 -0.1623917 -0.05586354 -0.9851438 
7.1372 -1.6324 29.0854 0.851985 -0.2004216 -0.4836867 
5.95 -1.1482 29.6494 0.2850538 0.03895058 0.9577198 
6.4134 -0.675 29.2166 0.1132949 0.9480689 -0.2972031 
3.9776 -1.3686 29.047 0.3065781 -0.9264783 0.2182839 
5.4102 0.1106 27.4216 0.1511061 -0.8414899 0.5187116 
5.3524 0.1472 27.2532 -0.2964985 -0.9076263 -0.2971583 
6.3266 0.4654 26.8048 0.1022393 -0.9053412 -0.4121946 
4.5338 0.5944 27.5268 0.02097778 -0.05066258 0.9984955 
5.9524 0.9542 27.4132 0.4003119 0.1507192 0.9038994 
4.8386 1.1254 27.3952 -0.09807777 0.6488756 0.7545471 
5.69 1.6342 27.047 0.2927848 0.9312522 -0.2169021 
4.7766 1.1572 27.2218 -0.2878629 0.4947401 -0.8199799 
4.4874 0.5828 27.3354 -0.1381501 -0.07223843 -0.9877734 
5.7886 0.9458 27.121 -0.4282923 0.0403128 -0.9027407 
3.5978 1.0494 27.212 -0.01201361 0.1873543 -0.9822189 
2.1002 -0.0022 27.7466 -0.9253255 -0.05552984 -0.3750854 
3.6898 1.0992 27.4354 0.3540313 0.6531816 0.6693398 
2.2326 0.025 27.94 -0.1331205 0.06692854 0.9888375 
3.4398 -0.4894 27.6972 0.2601743 -0.8240181 0.5032927 
3.3174 -0.5088 27.3246 -0.1085272 -0.6881663 -0.7173904 
3.894 -0.1518 27.4632 0.3480901 -0.7098554 0.6123223 
5.1642 0.0594 27.2696 0.8614017 -0.2713192 -0.4293868 
3.5186 0.351 27.7702 0.1519704 0.03495672 0.9877667 
3.8352 -0.0984 27.2418 0.2073165 -0.45339 -0.8668664 
3.4426 0.3338 27.4216 0.1565447 0.07029502 -0.9851661 
2.803 0.1568 27.4372 -0.2140013 0.01173504 -0.9767629 
2.8836 0.1836 27.753 0.1669455 0.08536744 0.9822635 
6.7172 1.1392 26.6602 0.8410864 0.1929605 0.5053117 
6.973599 0.4374 26.1114 0.4571958 -0.04313809 -0.8883191 
6.0242 1.7504 26.9298 -0.585807 0.8012349 0.121872 
6.5282 1.5108 26.1874 -0.1659921 0.9250631 -0.3416211 
6.3398 1.034 26.3976 -0.7875498 -0.1733874 -0.5913562 
7.1414 1.2642 25.003 0.06460533 0.5735282 -0.8166344 
6.8508 0.5368 25.989 -0.02641213 -0.9559957 0.2921894 
4.0068 1.0864 27.355 -0.429937 0.8981479 0.09211093 
4.3812 1.4746 27.9304 0.2572175 -0.9588484 0.1202037 
4.243 1.5314 27.6666 0.4425433 -0.752782 -0.4873138 
4.9266 2.6944 27.533 0.8030695 -0.2987116 0.5156071 
4.8836 2.5776 27.3416 0.06773364 -0.4228598 -0.9036602 
4.3996 2.6914 27.9402 0.269029 0.2960116 0.9165155 
4.1654 3.4676 27.697 0.2600988 0.9174676 0.3010015 
3.5856 1.65 28.202 0.286395 -0.03763163 0.9573724 
3.6014 2.9096 28.0276 -0.4191227 0.3968833 0.8165904 
3.497 2.8898 27.8164 -0.6926336 0.6000841 -0.4001969 
4.0734 3.3386 27.5868 -0.1838542 0.3140067 -0.9314491 
4.2726 2.6862 27.5734 -0.05507883 0.06476717 -0.9963792 
3.5528 1.6946 27.6676 -0.1557388 -0.1450265 -0.9770941 
2.1236 0.0688 27.7022 -0.316431 -0.1833114 -0.9307353 
2.079 -0.0306 27.906 -0.1234269 -0.6327523 0.7644543 
2.064 1.2426 27.651 -0.9441101 0.2360928 -0.2300358 
2.6564 1.4782 27.8688 -0.4813765 0.2567213 0.8380757 
3.178 0.3626 27.4638 0.4139276 -0.7220926 -0.554298 
3.2014 0.3608 27.6262 0.6365582 -0.706427 0.3094421 
2.8626 0.9421999 27.5856 0.01011051 -0.007613431 -0.99992 
2.9014 0.9014 28.0366 0.04665737 -0.2268715 0.9728065 
3.4518 0.8118 27.6614 0.7618268 -0.6202668 -0.1867861 
5.417 2.9784 26.903 0.7893071 -0.6031808 -0.114749 
4.7534 3.2506 27.3098 -0.4338996 -0.334255 -0.8366628 
5.286 4.1438 26.245 -0.1108535 0.4352961 -0.8934366 
4.8984 3.3936 27.5378 0.5208591 0.4202259 0.743045 
4.43 3.7842 27.1254 -0.8868125 0.4620456 0.00880153 
4.1898 1.3772 27.66 0.9369121 -0.1555258 -0.3130613 
0.958 -2.6828 28.7996 -0.813891 0.3924288 0.4284636 
0.9526001 -2.7112 28.6044 -0.7499178 0.4342627 -0.4990382 
0.9 -3.8196 28.857 -0.8603359 -0.1580785 -0.4845959 
1.7118 -2.0368 28.7822 -0.2653854 0.5365546 0.8010492 
1.4068 -3.3484 29.3462 -0.2491809 0.09122635 0.9641508 
2.132 -2.5308 29.0116 0.6366496 0.1276218 0.7605196 
2.0224 -3.5238 29.281 0.630549 -0.7742593 -0.0541343 
2.0934 -2.5742 28.8164 0.5993048 -0.53343 -0.5968972 
1.79 -2.2056 28.4254 0.1616703 -0.5249233 -0.8356544 
1.4978 -3.3706 29.0832 0.4631422 -0.2420722 -0.8525845 
2.633 -1.7112 28.192 0.4600748 -0.4537185 -0.7631977 
2.275 -0.0056 27.6754 0.411621 0.4428275 -0.7965375 
2.5768 -1.6358 28.4194 0.3442671 -0.08983633 0.9345639 
2.2528 0.039 27.7804 0.01854773 0.7034862 0.7104669 
1.2986 -0.8206 27.9302 -0.90976 0.3800116 0.1671171 
1.3952 -0.924 27.599 -0.3675297 -0.02364407 -0.9297112 
1.3848 -1.3932 28.081 -0.8360863 0.3836001 0.392187 
0.9446 -2.2594 28.5518 -0.858043 -0.5135742 -0.00196297 
1.9644 -1.0962 28.3492 -0.1761345 0.5161969 0.8381631 
1.4786 -1.5306 27.8206 -0.4682913 -0.3609663 -0.8064779 
2.0808 -1.306 27.9046 0.1188815 -0.6239363 -0.7723799 
2.1622 -0.6376 27.7892 0.2952409 -0.2236272 -0.9288831 
2.1212 -0.572 27.9808 -0.1388504 0.4170315 0.8982235 
1.362 -4.3566 29.0516 -0.3337491 -0.4200464 0.8439032 
0.7202 -4.6544 28.6004 0.1325854 -0.9114675 -0.3894203 
2.1556 -3.9222 29.3186 0.884356 0.4251841 0.1926991 
1.9838 -4.7072 28.8334 0.9262396 -0.3767515 0.01177367 
1.4322 -4.2554 28.7936 0.2594551 0.333757 -0.9062501 
1.4594 -5.5422 28.1642 0.1342059 -0.826645 -0.5464859 
0.891 -4.7086 28.4776 -0.8426874 0.5337772 -0.07042513 
2.5818 -1.9356 28.5078 0.9943869 -0.1012833 0.03060068 
0.765 1.9774 28.6414 0.9225236 0.1739153 0.344534 
0.781 1.9816 28.4172 0.7824488 0.5443777 -0.3023685 
-0.3486 2.7296 28.658 0.3388231 0.6361573 0.6931832 
-0.2828 2.7002 28.4214 0.4401819 0.3131237 -0.8415423 
-0.3964 2.0384 28.9492 -0.351887 0.03081601 0.9355352 
-1.119 1.918 28.4964 -0.9379087 0.187166 0.2920552 
0.6444 1.1732 28.6924 0.1881661 -0.06517204 0.9799725 
-0.6786 1.2106 28.6822 -0.3644649 -0.6400068 0.6764293 
-0.626 1.2382 28.339 -0.6206977 -0.3605991 -0.6962059 
-1.0392 1.8838 28.3802 -0.3235865 0.1856531 -0.9278064 
-0.386 2.062 28.4064 -0.02542484 0.2147547 -0.976337 
0.6002 1.2502 28.3552 0.1534544 0.257019 -0.9541453 
2.2722 -0.1306 27.4824 0.06290266 -0.009210903 -0.9979771 
2.1944 -0.1012 27.7636 0.487213 -0.4432978 0.7524032 
1.0242 0.023 27.6722 -0.395716 -0.8210133 -0.4115169 
0.7556 0.3436 28.144 -0.2070112 -0.7569838 0.6197758 
1.9082 1.0604 27.7666 0.648621 0.6152241 -0.4480962 
2.0202 1.0682 28.0602 0.7381464 0.5966048 0.3149646 
1.3066 0.6946 27.8538 -0.09542696 0.4214731 -0.901806 
1.3354 0.6174 28.125 0.3227676 -0.2626861 0.9092948 
1.4544 1.2194 28.1034 0.3836526 0.923477 0.001020533 
-0.6938 3.299 28.219 0.5778012 0.8156811 -0.02846331 
-0.8972 2.599 28.2454 0.3288813 -0.1225588 -0.9363848 
-1.8398 3.5062 27.604 -0.5736447 0.516373 -0.6358386 
-0.9992 2.6482 28.479 -0.4501361 0.3063542 0.8387637 
-1.5302 2.3616 28.0734 -0.5941928 -0.7661339 -0.2448955 
1.0976 1.8642 28.3964 0.04938043 0.9962189 0.0714804 
-0.4086 -0.9212 28.071 -0.01848738 0.9816163 0.1899674 
-0.342 -0.963 27.8722 -0.1983424 0.7668586 -0.6104 
-1.3792 -1.837 27.8394 -0.6821215 0.5516716 0.4799675 
-1.2368 -1.862 27.665 0.097413 0.521383 -0.8477443 
-0.7654 -2.0414 28.1798 -0.2259302 -0.3386222 0.9133951 
-0.7572 -2.8588 27.8364 -0.4081163 -0.7904281 0.4567982 
0.314 -1.2322 28.2872 -0.130935 0.06865419 0.9890109 
-0.0288 -2.4234 28.0914 0.3154235 -0.4717863 0.8233625 
0.0728 -2.445 27.8806 0.4728153 -0.7554106 -0.4536525 
-0.6358 -2.7566 27.6614 -0.06484312 -0.2293464 -0.9711826 
-0.6742 -2.0228 27.8276 0.04429413 0.07919765 -0.9958744 
0.3094 -1.2538 27.899 0.0579526 0.1632453 -0.9848819 
2.176 0.0574 27.6056 0.2328598 0.1535359 -0.9603141 
2.1352 0.0452 27.8844 0.3082899 0.495839 0.8118504 
1.8362 -1.177 27.6086 0.8197293 -0.5304814 -0.2159476 
1.2584 -1.2956 27.9866 0.463825 -0.3872948 0.7967867 
0.9642 -0.06680001 27.6034 -0.3320151 0.7612586 -0.5570022 
0.9348 -0.028 27.7368 -0.4875609 0.8532118 0.1852405 
1.129 -0.6842 27.6786 -0.1498164 0.02773314 -0.9883248 
1.1402 -0.6596 28.0802 0.04307876 0.2457169 0.9683839 
0.6336 -0.4694 27.7888 -0.6312394 0.7288212 -0.2652478 
-1.8908 -2.0258 27.1898 -0.441785 0.8444083 -0.3029861 
-1.1874 -2.3872 27.3374 0.500586 0.3427688 -0.7949361 
-2.113 -3.1382 26.501 -0.2851821 -0.6061854 -0.7424355 
-1.4126 -2.5506 27.7042 -0.547103 -0.395878 0.7375357 
-1.1378 -3.0222 27.2874 0.71479 -0.6992531 -0.01096839 
-0.3078 -0.7774 27.8348 -0.9153043 0.3076175 -0.2599798 
3.5752 -2.837 27.308 -0.3574707 -0.4963362 0.7911164 
3.4108 -2.8168 27.1418 -0.9745333 -0.1610237 0.1560646 
4.1006 -3.6274 26.674 -0.6995991 -0.6220841 -0.3515289 
3.7124 -1.9076 27.5992 -0.02925711 -0.1265993 0.9915224 
4.467 -3.0618 27.1992 0.3145943 -0.4257888 0.8483716 
4.3716 -1.9672 27.3982 0.6866987 0.2205754 0.6926697 
5.0114 -2.6402 26.8874 0.9082096 -0.1615897 -0.3860622 
4.3536 -1.876 27.052 0.3326578 0.3794155 -0.8633555 
3.657 -1.8362 27.2096 -0.1651804 0.1428231 -0.9758673 
4.4218 -2.9548 27.0282 -0.1123683 0.3581308 -0.9268849 
3.8076 -0.8452 27.2116 0.0217301 0.1285721 -0.9914621 
2.4392 0.07300001 27.889 -0.384472 0.8382056 -0.3867722 
3.8326 -0.8978 27.4028 0.8213669 -0.1425418 0.5523026 
2.4544 0.058 27.999 -0.04297778 0.339917 0.939473 
2.4294 -1.133 27.6576 -0.6756672 -0.4742012 0.5644529 
2.2574 -1.0936 27.3902 -0.8103148 -0.06245178 -0.5826575 
2.7952 -1.5212 27.4808 -0.4147125 -0.5521895 0.7232567 
3.2572 -2.614 27.2026 -0.2244805 -0.9600618 -0.1670027 
3.1298 -0.9906 27.6614 0.1414508 -0.2120735 0.9669625 
2.7662 -1.4668 27.1834 -0.5468585 -0.2845583 -0.7873832 
3.0994 -0.939 27.4426 0.02540145 0.01097593 -0.9996171 
2.7558 -0.4264 27.6456 -0.1362622 0.3335125 -0.9328462 
2.814 -0.4938 27.908 0.1761702 -0.2263357 0.9579855 
4.8394 -3.6714 26.4514 0.4506725 -0.760587 0.4673347 
4.3258 -4.1032 26.041 0.4462779 -0.1894662 -0.8746077 
5.2896 -2.868 26.7794 0.3771296 0.8753911 0.3024298 
5.2414 -3.3616 25.9726 0.7350768 0.5315641 -0.4208346 
4.7462 -3.5342 26.3608 -0.4816932 0.6751971 -0.5586419 
5.03 -4.021 24.9048 0.1404788 0.04793122 -0.9889228 
4.3928 -4.0032 25.8524 -0.8559833 -0.2125516 0.4712901 
4.0872 -1.117 27.297 0.5851614 0.8088768 0.0574838 
0.4802 0.9584 29.3486 0.7732949 0.6335565 0.02492485 
0.3808 0.926 29.0686 0.2047206 0.8345794 -0.5114358 
-0.831 0.9524 29.786 0.1963007 0.7334619 0.6507685 
-0.8466 0.9464 29.4262 -0.0467262 0.3926948 -0.9184811 
-0.4276 0.3196 29.8718 0.1625994 -0.2216942 0.961464 
-1.1736 -0.2492 29.7776 -0.6359664 -0.3385172 0.6935077 
0.7476 0.1768 29.2164 0.4679874 0.04365862 0.8826561 
-0.263 -0.5324 29.631 0.2807477 -0.7511225 0.5974913 
-0.2988 -0.391 29.3828 -0.4098169 -0.6605548 -0.6290609 
-1.1432 -0.2356 29.459 -0.5784941 -0.1027289 -0.8091918 
-0.5418 0.322 29.4822 -0.376323 0.1294869 -0.9173954 
0.6226 0.1936 28.9908 -0.2732077 0.1157161 -0.9549698 
2.4072 -0.0428 27.5126 -0.3262188 -0.04104466 -0.9444028 
2.3918 -0.0454 27.7948 0.8734979 -0.06200538 0.4828633 
1.413 -0.5956 28.057 -0.04858988 -0.8933319 -0.4467629 
1.1928 -0.5 28.6498 0.3914542 -0.8039097 0.4477643 
1.5828 0.6872 28.0956 -0.02987917 0.7749907 -0.6312659 
1.7166 0.8066 28.271 0.2786554 0.9569623 -0.0810815 
1.386 0.09 28.3306 -0.6024363 0.1753775 -0.7786613 
1.5046 0.0718 28.5298 0.6395771 0.05723867 0.7665931 
1.2228 0.6776 28.4996 -0.4271322 0.8869386 -0.1757783 
-1.5914 1.2752 29.4578 -0.03981587 0.9874294 -0.1529641 
-1.319 0.4654 29.4084 0.06890719 -0.02627446 -0.9972771 
-2.6302 0.6392 29.2722 -0.8923988 -0.03188962 -0.4501193 
-1.3908 0.4432 29.909 -0.234148 -0.003984284 0.9721928 
-1.747 -0.1156 29.4436 -0.008086403 -0.9741214 -0.2258807 
0.5382 0.8732001 29.0028 -0.783259 0.5645392 0.2603859 
3.3564 1.7824 29.1946 0.5715547 -0.3635261 0.7356453 
3.4908 1.7276 28.99 0.7084083 -0.6984447 -0.1016496 
3.6218 2.882 29.0104 0.9160416 0.01324369 -0.4008645 
2.5864 1.2616 29.0726 0.0721431 -0.5873924 0.8060803 
2.9584 2.547 29.6154 0.1344231 0.04182323 0.9900411 
2.1536 1.7572 29.3246 -0.6820893 -0.07762079 0.7271376 
2.2628 2.8766 29.3322 -0.5854247 0.7963817 -0.1518364 
2.2018 1.84 28.9996 -0.4305678 0.4068068 -0.8056796 
2.5802 1.3102 28.927 -0.01230014 0.4115157 -0.9113197 
2.8604 2.5428 29.1756 -0.2302444 0.1270754 -0.9648002 
1.801 1.0676 28.4382 -0.04957747 0.820426 -0.5695991 
2.064 -0.1194 27.3702 -0.04143961 0.1736328 -0.9839382 
1.7438 1.0444 28.6962 -0.6857789 0.1062485 0.7200128 
2.014 -0.3562 27.5914 -0.3912877 -0.901529 0.1847687 
2.994 0.1824 28.2554 0.8421874 -0.5246893 -0.1241837 
2.8816 0.335 28.1034 0.5913947 0.2208947 -0.7755371 
3.0046 0.5838 28.5516 0.5832765 -0.5203894 0.6236853 
3.3762 1.6124 29.0296 0.4860438 0.8402442 0.2403146 
2.3322 0.501 28.5062 -0.06037919 -0.534749 0.842851 
2.955 0.7902 28.2698 0.6414329 0.3257603 -0.694582 
2.3432 0.741 28.228 0.08226885 0.8107684 -0.5795571 
2.2622 0.3542 27.8712 0.1873351 0.5993925 -0.778225 
2.1742 0.0534 28.1766 -0.1514057 -0.651226 0.743627 
3.1682 3.5186 29.0992 0.2411743 0.5617837 0.7913495 
3.8296 3.6018 28.68 -0.09581545 0.8025877 -0.588789 
2.4202 3.1492 29.248 -0.986939 -0.1484446 0.06257566 
2.5914 3.84 28.6626 -0.920698 0.2873846 -0.2640551 
3.1202 3.4002 28.918 -0.1875915 -0.4449986 -0.875663 
3.314 4.487 27.9626 -0.09427825 0.5511752 -0.8290461 
3.8262 3.652 28.4684 0.6751753 -0.70328 0.2225659 
1.7148 1.2626 28.7346 -0.9706506 0.03004498 -0.2386102 
2.2922 -2.0636 29.512 -0.8826663 -0.05133008 0.4671889 
2.3608 -2.0894 29.3134 -0.8472057 0.07514525 -0.5259236 
2.7742 -3.1282 29.2694 -0.816426 -0.3708634 -0.4426161 
2.7188 -1.166 29.36 -0.2803906 0.5261958 0.8028071 
3.1754 -2.4772 29.727 0.04659589 -0.06499751 0.996797 
3.3478 -1.4444 29.3774 0.624203 0.4294714 0.6526293 
3.8516 -2.4938 29.454 0.8925083 -0.4437951 -0.08046592 
3.393 -1.5106 29.1126 0.5566916 -0.1041281 -0.8241674 
2.7744 -1.2816 29.0738 0.09435591 -0.3953274 -0.9136811 
3.2024 -2.445 29.4044 0.1094082 0.02351707 -0.9937186 
3.2056 -0.6368 28.551 0.4829386 -0.7325313 -0.4797586 
2.2998 0.1262 27.6038 0.04718054 0.09615116 -0.994248 
3.178 -0.5892 28.6474 0.6659139 0.4235528 0.614135 
2.2642 0.2476 27.754 -0.0523325 0.9873129 0.1499154 
1.7012 -0.5554 28.5104 -0.9986292 0.01641509 0.04970168 
1.861 -0.6832 28.265 -0.423958 -0.639177 -0.6416481 
2.0108 -0.902 28.7584 -0.7861892 0.1129512 0.6075761 
2.3066 -1.8498 29.235 -0.2197058 -0.9738284 -0.05820262 
2.4998 -0.4444 28.6954 -0.1523425 0.6027345 0.7832643 
2.1602 -0.9652 28.563 -0.2749968 -0.7765965 -0.566811 
2.5726 -0.6352 28.4404 0.3064639 -0.789345 -0.5319911 
2.4326 -0.3496 28.0156 0.1876621 -0.6932237 -0.6958621 
2.3806 -0.0884 28.2716 -0.07851073 0.7453392 0.6620465 
3.4848 -3.454 29.3258 0.1446446 -0.5624976 0.8140482 
2.9158 -3.911 28.9338 0.1749108 -0.7682673 -0.615769 
3.974 -2.6942 29.386 0.7105173 0.7035662 0.01263917 
4.0458 -3.427 28.8264 0.9410198 0.1615771 -0.2972785 
3.4074 -3.2562 28.9896 -0.180266 0.4556424 -0.8717191 
3.8092 -4.4544 28.1018 0.2991364 -0.5409881 -0.7860338 
3.0462 -3.8938 28.7526 -0.9844136 0.03725336 0.171878 
3.3018 -0.848 28.8664 0.8302289 0.5102919 -0.2243265 
0.8042001 -0.9338 26.1384 -0.9577084 0.01144656 0.2875129 
0.8798 -0.807 26.1802 -0.4000619 0.9155206 0.04210013 
0.796 -1.3682 25.3768 -0.3535199 0.6735389 -0.6491295 
1.3996 -1.1554 27.0328 -0.6579407 -0.2617348 0.7061225 
1.1898 -1.682 26.2224 -0.726968 -0.5533468 0.4066015 
1.8028 -1.6596 26.8842 -0.06405106 -0.7709265 0.6336955 
1.8056 -2.2234 26.4564 0.4918157 -0.8540671 -0.1693716 
1.9042 -1.587 26.7498 0.9018389 -0.1902966 -0.3879097 
1.6902 -0.9952 26.6506 0.6634966 0.3261663 -0.6733409 
1.4074 -1.564 26.047 0.8205405 0.2858083 -0.4950019 
2.3686 -1.199 27.2424 0.8424206 0.01848035 -0.5385034 
2.25 0.0288 27.8474 0.7190999 0.6406526 0.2691832 
2.3116 -1.3252 27.308 -0.1195833 -0.8970277 0.4254894 
2.0596 -0.1148 27.9646 -0.3037832 -0.1260476 0.9443663 
1.1712 0.053 27.21 -0.866935 0.4616308 0.1879381 
1.4126 0.1042 27.0558 0.1570991 0.8507002 -0.5016264 
1.2628 -0.3186 26.9714 -0.9591739 -0.02109142 0.2820293 
0.8802 -0.7544 26.253 -0.7142735 0.183989 -0.6752493 
1.744 -0.6846 27.36 -0.6110467 -0.2930932 0.7353355 
1.4562 -0.2394 26.753 -0.02096342 0.6003201 -0.799485 
1.9986 -0.5524 27.0812 0.5492495 0.1700538 -0.8181728 
2.1242 -0.2692 27.3654 0.6902329 0.4429995 -0.5721276 
1.8884 -0.4238 27.608 -0.6075489 -0.4265206 0.6700482 
1.154 -1.954 25.421 -0.705286 -0.7089229 -0.0001944478 
0.671 -1.3028 24.4194 0.4924281 -0.4570735 -0.7406743 
1.8306 -2.3478 26.2218 0.7354798 0.008055523 0.6774987 
1.8426 -2.2816 25.287 0.8413531 -0.5156629 -0.1619159 
1.2696 -1.836 25.416 0.7016633 0.7033692 -0.1137563 
1.5728 -1.9058 23.9138 0.5158566 -0.06818676 -0.8539569 
0.9382 -1.4356 24.5786 -0.6339871 0.6693044 0.3874168 
2.3348 -1.4458 27.1964 0.796082 -0.4790937 0.3697605 
3.652 0.9718 26.3704 0.9713965 0.1104577 0.2102093 
3.5964 0.717 26.3392 0.470525 -0.7967439 0.3792167 
3.4828 1.089 25.2948 0.490827 -0.8085837 -0.3244706 
3.16 1.3024 26.9668 0.5601758 0.5039638 0.6574371 
3.4074 1.6278 25.8614 0.7233462 0.6835181 0.09784347 
2.8158 1.6318 26.5922 -0.1209271 0.9611142 0.2482666 
2.7412 1.9456 25.4192 -0.6407528 0.5542464 -0.531269 
2.6976 1.4996 26.4962 -0.9455233 -0.02862335 -0.3242936 
2.8684 1.0232 26.669 -0.671509 -0.6246003 -0.3986855 
3.0574 1.347 25.7436 -0.7651558 -0.6108826 -0.2033696 
2.2794 1.208 27.1096 -0.4075641 -0.07354648 -0.9102102 
2.1342 0.222 27.7154 -0.8086241 -0.5677288 0.1543086 
2.3246 1.3158 27.1392 -0.283518 0.9414093 0.1826637 
2.2128 0.3098 27.8824 -0.1898434 -0.03262943 0.9812721 
3.0282 0.313 27.3962 0.7215958 -0.4188874 0.5512104 
2.9924 0.09860001 27.2824 0.2294706 -0.9470179 -0.2247231 
3.192 0.5558 27.2 0.8588576 -0.05863263 0.5088477 
3.6354 0.834 26.356 0.8315018 -0.2841035 -0.4773783 
2.744 0.882 27.4136 0.5061916 0.5109428 0.6947716 
3.0188 0.3686 26.9498 0.2867491 -0.6240563 -0.7268622 
2.658 0.785 27.297 -0.3456653 -0.232755 -0.9090328 
2.3776 0.455 27.3254 -0.4225811 -0.3519621 -0.8351934 
2.5388 0.6662 27.716 0.3913218 0.396548 0.8304318 
3.289 1.503 24.6602 0.6929545 0.6544676 -0.3024668 
3.5196 0.8018 24.2774 -0.6042349 -0.2862019 -0.7436321 
2.6544 1.9818 25.3724 -0.7743354 0.4615941 0.4328227 
2.5642 1.5578 24.3176 -0.9008101 0.3913175 -0.1881802 
3.1168 1.327 24.804 -0.6628031 -0.7273394 0.1779591 
2.7056 0.9122 23.098 -0.6245049 -0.3911509 -0.6760138 
3.431 0.6964 24.2152 0.7790543 -0.4286615 0.457519 
2.3416 1.4488 26.987 -0.8845207 0.4123048 0.2182382 
2.6366 -1.1202 26.5016 -0.1973636 -0.6645344 0.720723 
2.433 -0.9863999 26.4744 -0.8284318 -0.5074326 0.2370926 
2.8582 -1.0416 25.3616 0.2812061 -0.9555324 -0.08877439 
2.5352 -0.8466 25.4296 -0.9738044 0.2240669 -0.03871648 
3.1852 -0.583 25.8414 0.925697 -0.3774236 -0.02522934 
3.5496 0.0382 25.31 0.8215997 -0.2217647 -0.5251611 
3.0092 -0.51 26.7944 0.7642472 -0.578934 0.2841862 
3.5332 0.0852 26.1558 0.9475699 -0.1127073 0.2990122 
3.4252 0.311 26.1404 0.1577978 0.9831335 -0.09245703 
3.3188 0.183 25.341 -0.5967169 0.6276553 -0.4999778 
2.9656 -0.375 25.7546 -0.8090218 0.4673404 -0.3564781 
2.785 -0.3654 26.661 -0.8645487 0.5013911 -0.03409663 
2.2462 -0.0448 27.9462 -0.7551075 0.6491965 -0.09141437 
2.3998 -0.1542 28.0472 0.3632179 -0.3066895 0.8797809 
2.8006 0.3744 27.3926 -0.04112512 0.9562997 0.2894817 
3.0816 0.1358 27.2208 0.8720276 0.04190122 0.4876599 
1.9956 -0.679 27.3166 -0.9910614 -0.133394 -0.001824972 
2.1168 -0.9334 27.4186 -0.4357293 -0.8873823 0.1506406 
2.5724 -0.2312 27.273 -0.7707357 0.4663765 -0.4341192 
2.6746 -0.3046 27.3188 0.6614 -0.5927252 0.4595943 
2.3146 -0.7606 27.0612 -0.2501718 -0.4831629 -0.8390279 
2.4088 -0.9086 24.5674 -0.5985501 -0.7397975 -0.3073065 
2.9606 -0.4012 25.0318 -0.8161922 0.5610375 0.1380849 
2.5314 -0.0452 23.4202 -0.3761446 0.5779386 -0.7242252 
3.1168 -0.4954 24.9424 0.8397317 -0.4429763 -0.3140424 
3.1842 0.199 24.7738 0.4215752 0.870859 0.2527427 
2.4738 -0.9512 26.5676 -0.1232965 -0.5973968 -0.792411 
3 0 1 2 
3 0 2 3 
3 1 4 5 
3 1 5 2 
3 4 6 7 
3 4 7 5 
3 6 8 9 
3 6 9 7 
3 8 0 3 
3 8 3 9 
3 10 11 12 
3 13 10 12 
3 14 13 12 
3 15 14 12 
3 11 15 12 
3 16 17 18 
3 17 19 18 
3 19 20 18 
3 20 21 18 
3 21 16 18 
3 22 23 24 
3 22 24 25 
3 23 26 27 
3 23 27 24 
3 26 28 29 
3 26 29 27 
3 28 30 31 
3 28 31 29 
3 30 22 25 
3 30 25 31 
3 25 24 17 
3 25 17 16 
3 24 27 19 
3 24 19 17 
3 27 29 20 
3 27 20 19 
3 29 31 21 
3 29 21 20 
3 31 25 16 
3 31 16 21 
3 32 33 4 
3 32 4 1 
3 33 34 6 
3 33 6 4 
3 34 35 8 
3 34 8 6 
3 35 36 0 
3 35 0 8 
3 36 32 1 
3 36 1 0 
3 9 3 37 
3 9 37 38 
3 7 9 38 
3 7 38 39 
3 5 7 39 
3 5 39 40 
3 2 5 40 
3 2 40 41 
3 3 2 41 
3 3 41 37 
3 38 37 42 
3 38 42 43 
3 39 38 43 
3 39 43 44 
3 40 39 44 
3 40 44 45 
3 41 40 45 
3 41 45 46 
3 37 41 46 
3 37 46 42 
3 43 42 47 
3 43 47 48 
3 44 43 48 
3 44 48 49 
3 45 44 49 
3 45 49 50 
3 46 45 50 
3 46 50 51 
3 42 46 51 
3 42 51 47 
3 52 53 54 
3 52 54 55 
3 56 52 55 
3 56 55 57 
3 58 56 57 
3 58 57 59 
3 60 58 59 
3 60 59 61 
3 53 60 61 
3 53 61 54 
3 55 54 11 
3 55 11 10 
3 57 55 10 
3 57 10 13 
3 59 57 13 
3 59 13 14 
3 61 59 14 
3 61 14 15 
3 54 61 15 
3 54 15 11 
3 62 63 64 
3 64 63 65 
3 66 67 68 
3 69 68 67 
3 69 67 70 
3 70 67 71 
3 72 73 71 
3 73 70 71 
3 74 75 76 
3 76 75 77 
3 74 78 75 
3 75 78 79 
3 66 68 64 
3 68 62 64 
3 72 65 73 
3 63 73 65 
3 76 70 80 
3 80 70 73 
3 76 77 70 
3 70 77 69 
3 77 81 69 
3 69 81 68 
3 74 76 80 
3 78 82 79 
3 78 74 82 
3 82 74 80 
3 83 84 85 
3 64 65 83 
3 66 64 86 
3 86 64 83 
3 84 87 85 
3 86 83 85 
3 87 86 85 
3 72 84 65 
3 65 84 83 
3 79 82 75 
3 75 82 81 
3 77 75 81 
3 87 66 86 
3 72 87 84 
3 82 88 81 
3 81 88 68 
3 82 80 88 
3 88 80 73 
3 68 73 62 
3 62 73 63 
3 66 72 67 
3 67 72 71 
3 66 87 72 
3 68 88 73 
3 89 90 91 
3 92 93 94 
3 94 93 95 
3 96 94 95 
3 97 96 98 
3 96 95 98 
3 99 100 101 
3 101 100 102 
3 102 100 103 
3 103 100 104 
3 91 93 89 
3 92 89 93 
3 98 91 97 
3 90 97 91 
3 105 106 107 
3 107 106 92 
3 108 106 105 
3 108 109 106 
3 106 109 97 
3 110 99 109 
3 102 111 101 
3 103 111 102 
3 104 108 103 
3 103 108 105 
3 104 110 108 
3 108 110 109 
3 93 91 112 
3 112 91 113 
3 93 112 114 
3 114 112 115 
3 116 115 117 
3 112 118 117 
3 115 112 117 
3 98 116 91 
3 91 116 113 
3 98 114 116 
3 116 114 115 
3 100 110 104 
3 99 110 100 
3 103 105 111 
3 111 105 107 
3 101 111 107 
3 118 116 117 
3 107 92 119 
3 119 92 94 
3 96 119 94 
3 109 119 97 
3 97 119 96 
3 92 106 97 
3 107 109 101 
3 101 109 99 
3 93 114 98 
3 112 113 116 
3 112 116 118 
3 93 98 95 
3 89 92 90 
3 90 92 97 
3 107 119 109 
3 120 121 122 
3 122 121 123 
3 124 125 126 
3 127 126 125 
3 127 125 128 
3 128 125 129 
3 130 131 129 
3 131 128 129 
3 132 133 134 
3 134 133 135 
3 132 136 133 
3 133 136 137 
3 124 126 122 
3 126 120 122 
3 130 123 131 
3 121 131 123 
3 134 128 138 
3 138 128 131 
3 134 135 128 
3 128 135 127 
3 135 139 127 
3 127 139 126 
3 132 134 138 
3 136 140 137 
3 136 132 140 
3 140 132 138 
3 141 142 143 
3 122 123 141 
3 124 122 144 
3 144 122 141 
3 142 145 143 
3 144 141 143 
3 145 144 143 
3 130 142 123 
3 123 142 141 
3 137 140 133 
3 133 140 139 
3 135 133 139 
3 145 124 144 
3 130 145 142 
3 140 146 139 
3 139 146 126 
3 140 138 146 
3 146 138 131 
3 126 131 120 
3 120 131 121 
3 124 130 125 
3 125 130 129 
3 124 145 130 
3 126 146 131 
3 147 148 149 
3 150 151 152 
3 152 151 153 
3 154 152 153 
3 155 154 156 
3 154 153 156 
3 157 158 159 
3 159 158 160 
3 160 158 161 
3 161 158 162 
3 149 151 147 
3 150 147 151 
3 156 149 155 
3 148 155 149 
3 163 164 165 
3 165 164 150 
3 166 164 163 
3 166 167 164 
3 164 167 155 
3 168 157 167 
3 160 169 159 
3 161 169 160 
3 162 166 161 
3 161 166 163 
3 162 168 166 
3 166 168 167 
3 151 149 170 
3 170 149 171 
3 151 170 172 
3 172 170 173 
3 174 173 175 
3 170 176 175 
3 173 170 175 
3 156 174 149 
3 149 174 171 
3 156 172 174 
3 174 172 173 
3 158 168 162 
3 157 168 158 
3 161 163 169 
3 169 163 165 
3 159 169 165 
3 176 174 175 
3 165 150 177 
3 177 150 152 
3 154 177 152 
3 167 177 155 
3 155 177 154 
3 150 164 155 
3 165 167 159 
3 159 167 157 
3 151 172 156 
3 170 171 174 
3 170 174 176 
3 151 156 153 
3 147 150 148 
3 148 150 155 
3 165 177 167 
3 178 179 180 
3 180 179 181 
3 182 183 184 
3 185 184 183 
3 185 183 186 
3 186 183 187 
3 188 189 187 
3 189 186 187 
3 190 191 192 
3 192 191 193 
3 190 194 191 
3 191 194 195 
3 182 184 180 
3 184 178 180 
3 188 181 189 
3 179 189 181 
3 192 186 196 
3 196 186 189 
3 192 193 186 
3 186 193 185 
3 193 197 185 
3 185 197 184 
3 190 192 196 
3 194 198 195 
3 194 190 198 
3 198 190 196 
3 199 200 201 
3 180 181 199 
3 182 180 202 
3 202 180 199 
3 200 203 201 
3 202 199 201 
3 203 202 201 
3 188 200 181 
3 181 200 199 
3 195 198 191 
3 191 198 197 
3 193 191 197 
3 203 182 202 
3 188 203 200 
3 198 204 197 
3 197 204 184 
3 198 196 204 
3 204 196 189 
3 184 189 178 
3 178 189 179 
3 182 188 183 
3 183 188 187 
3 182 203 188 
3 184 204 189 
3 205 206 207 
3 207 206 208 
3 209 210 211 
3 212 211 210 
3 212 210 213 
3 213 210 214 
3 215 216 214 
3 216 213 214 
3 217 218 219 
3 219 218 220 
3 217 221 218 
3 218 221 222 
3 209 211 207 
3 211 205 207 
3 215 208 216 
3 206 216 208 
3 219 213 223 
3 223 213 216 
3 219 220 213 
3 213 220 212 
3 220 224 212 
3 212 224 211 
3 217 219 223 
3 221 225 222 
3 221 217 225 
3 225 217 223 
3 226 227 228 
3 207 208 226 
3 209 207 229 
3 229 207 226 
3 227 230 228 
3 229 226 228 
3 230 229 228 
3 215 227 208 
3 208 227 226 
3 222 225 218 
3 218 225 224 
3 220 218 224 
3 230 209 229 
3 215 230 227 
3 225 231 224 
3 224 231 211 
3 225 223 231 
3 231 223 216 
3 211 216 205 
3 205 216 206 
3 209 215 210 
3 210 215 214 
3 209 230 215 
3 211 231 216 
3 232 233 234 
3 235 236 237 
3 237 236 238 
3 239 237 238 
3 240 239 241 
3 239 238 241 
3 242 243 244 
3 244 243 245 
3 245 243 246 
3 246 243 247 
3 234 236 232 
3 235 232 236 
3 241 234 240 
3 233 240 234 
3 248 249 250 
3 250 249 235 
3 251 249 248 
3 251 252 249 
3 249 252 240 
3 253 242 252 
3 245 254 244 
3 246 254 245 
3 247 251 246 
3 246 251 248 
3 247 253 251 
3 251 253 252 
3 236 234 255 
3 255 234 256 
3 236 255 257 
3 257 255 258 
3 259 258 260 
3 255 261 260 
3 258 255 260 
3 241 259 234 
3 234 259 256 
3 241 257 259 
3 259 257 258 
3 243 253 247 
3 242 253 243 
3 246 248 254 
3 254 248 250 
3 244 254 250 
3 261 259 260 
3 250 235 262 
3 262 235 237 
3 239 262 237 
3 252 262 240 
3 240 262 239 
3 235 249 240 
3 250 252 244 
3 244 252 242 
3 236 257 241 
3 255 256 259 
3 255 259 261 
3 236 241 238 
3 232 235 233 
3 233 235 240 
3 250 262 252 
3 263 264 265 
3 265 264 266 
3 267 268 269 
3 270 269 268 
3 270 268 271 
3 271 268 272 
3 273 274 272 
3 274 271 272 
3 275 276 277 
3 277 276 278 
3 275 279 276 
3 276 279 280 
3 267 269 265 
3 269 263 265 
3 273 266 274 
3 264 274 266 
3 277 271 281 
3 281 271 274 
3 277 278 271 
3 271 278 270 
3 278 282 270 
3 270 282 269 
3 275 277 281 
3 279 283 280 
3 279 275 283 
3 283 275 281 
3 284 285 286 
3 265 266 284 
3 267 265 287 
3 287 265 284 
3 285 288 286 
3 287 284 286 
3 288 287 286 
3 273 285 266 
3 266 285 284 
3 280 283 276 
3 276 283 282 
3 278 276 282 
3 288 267 287 
3 273 288 285 
3 283 289 282 
3 282 289 269 
3 283 281 289 
3 289 281 274 
3 269 274 263 
3 263 274 264 
3 267 273 268 
3 268 273 272 
3 267 288 273 
3 269 289 274 
3 290 291 292 
3 293 294 295 
3 295 294 296 
3 297 295 296 
3 298 297 299 
3 297 296 299 
3 300 301 302 
3 302 301 303 
3 303 301 304 
3 304 301 305 
3 292 294 290 
3 293 290 294 
3 299 292 298 
3 291 298 292 
3 306 307 308 
3 308 307 293 
3 309 307 306 
3 309 310 307 
3 307 310 298 
3 311 300 310 
3 303 312 302 
3 304 312 303 
3 305 309 304 
3 304 309 306 
3 305 311 309 
3 309 311 310 
3 294 292 313 
3 313 292 314 
3 294 313 315 
3 315 313 316 
3 317 316 318 
3 313 319 318 
3 316 313 318 
3 299 317 292 
3 292 317 314 
3 299 315 317 
3 317 315 316 
3 301 311 305 
3 300 311 301 
3 304 306 312 
3 312 306 308 
3 302 312 308 
3 319 317 318 
3 308 293 320 
3 320 293 295 
3 297 320 295 
3 310 320 298 
3 298 320 297 
3 293 307 298 
3 308 310 302 
3 302 310 300 
3 294 315 299 
3 313 314 317 
3 313 317 319 
3 294 299 296 
3 290 293 291 
3 291 293 298 
3 308 320 310 
3 321 322 323 
3 324 325 326 
3 326 325 327 
3 328 326 327 
3 329 328 330 
3 328 327 330 
3 331 332 333 
3 333 332 334 
3 334 332 335 
3 335 332 336 
3 323 325 321 
3 324 321 325 
3 330 323 329 
3 322 329 323 
3 337 338 339 
3 339 338 324 
3 340 338 337 
3 340 341 338 
3 338 341 329 
3 342 331 341 
3 334 343 333 
3 335 343 334 
3 336 340 335 
3 335 340 337 
3 336 342 340 
3 340 342 341 
3 325 323 344 
3 344 323 345 
3 325 344 346 
3 346 344 347 
3 348 347 349 
3 344 350 349 
3 347 344 349 
3 330 348 323 
3 323 348 345 
3 330 346 348 
3 348 346 347 
3 332 342 336 
3 331 342 332 
3 335 337 343 
3 343 337 339 
3 333 343 339 
3 350 348 349 
3 339 324 351 
3 351 324 326 
3 328 351 326 
3 341 351 329 
3 329 351 328 
3 324 338 329 
3 339 341 333 
3 333 341 331 
3 325 346 330 
3 344 345 348 
3 344 348 350 
3 325 330 327 
3 321 324 322 
3 322 324 329 
3 339 351 341 
3 352 353 354 
3 355 356 357 
3 357 356 358 
3 359 357 358 
3 360 359 361 
3 359 358 361 
3 362 363 364 
3 364 363 365 
3 365 363 366 
3 366 363 367 
3 354 356 352 
3 355 352 356 
3 361 354 360 
3 353 360 354 
3 368 369 370 
3 370 369 355 
3 371 369 368 
3 371 372 369 
3 369 372 360 
3 373 362 372 
3 365 374 364 
3 366 374 365 
3 367 371 366 
3 366 371 368 
3 367 373 371 
3 371 373 372 
3 356 354 375 
3 375 354 376 
3 356 375 377 
3 377 375 378 
3 379 378 380 
3 375 381 380 
3 378 375 380 
3 361 379 354 
3 354 379 376 
3 361 377 379 
3 379 377 378 
3 363 373 367 
3 362 373 363 
3 366 368 374 
3 374 368 370 
3 364 374 370 
3 381 379 380 
3 370 355 382 
3 382 355 357 
3 359 382 357 
3 372 382 360 
3 360 382 359 
3 355 369 360 
3 370 372 364 
3 364 372 362 
3 356 377 361 
3 375 376 379 
3 375 379 381 
3 356 361 358 
3 352 355 353 
3 353 355 360 
3 370 382 372 
3 383 384 385 
3 386 387 388 
3 388 387 389 
3 390 388 389 
3 391 390 392 
3 390 389 392 
3 393 394 395 
3 395 394 396 
3 396 394 397 
3 397 394 398 
3 385 387 383 
3 386 383 387 
3 392 385 391 
3 384 391 385 
3 399 400 401 
3 401 400 386 
3 402 400 399 
3 402 403 400 
3 400 403 391 
3 404 393 403 
3 396 405 395 
3 397 405 396 
3 398 402 397 
3 397 402 399 
3 398 404 402 
3 402 404 403 
3 387 385 406 
3 406 385 407 
3 387 406 408 
3 408 406 409 
3 410 409 411 
3 406 412 411 
3 409 406 411 
3 392 410 385 
3 385 410 407 
3 392 408 410 
3 410 408 409 
3 394 404 398 
3 393 404 394 
3 397 399 405 
3 405 399 401 
3 395 405 401 
3 412 410 411 
3 401 386 413 
3 413 386 388 
3 390 413 388 
3 403 413 391 
3 391 413 390 
3 386 400 391 
3 401 403 395 
3 395 403 393 
3 387 408 392 
3 406 407 410 
3 406 410 412 
3 387 392 389 
3 383 386 384 
3 384 386 391 
3 401 413 403 
3 414 415 416 
3 416 415 417 
3 418 419 420 
3 421 420 419 
3 421 419 422 
3 422 419 423 
3 424 425 423 
3 425 422 423 
3 426 427 428 
3 428 427 429 
3 426 430 427 
3 427 430 431 
3 418 420 416 
3 420 414 416 
3 424 417 425 
3 415 425 417 
3 428 422 432 
3 432 422 425 
3 428 429 422 
3 422 429 421 
3 429 433 421 
3 421 433 420 
3 426 428 432 
3 430 434 431 
3 430 426 434 
3 434 426 432 
3 435 436 437 
3 416 417 435 
3 418 416 438 
3 438 416 435 
3 436 439 437 
3 438 435 437 
3 439 438 437 
3 424 436 417 
3 417 436 435 
3 431 434 427 
3 427 434 433 
3 429 427 433 
3 439 418 438 
3 424 439 436 
3 434 440 433 
3 433 440 420 
3 434 432 440 
3 440 432 425 
3 420 425 414 
3 414 425 415 
3 418 424 419 
3 419 424 423 
3 418 439 424 
3 420 440 425 
