ply
format ascii 1.0
comment VCGLIB generated
element vertex 441
property float x
property float y
property float z
property float nx
property float ny
property float nz
element face 806
property list uchar int vertex_indices
end_header
0.1196 0.2436 2.3442 0.1085725 0.9940453 -0.009275069 
-0.0598 0.1028 2.7384 -0.9105195 0.4066173 0.07494451 
0.2154 0.3706 5.4598 -0.9216166 0.3866196 0.03388496 
0.4962 0.4484 5.7734 0.07942358 0.9953538 -0.0544313 
0.0902 -0.1424 2.845 -0.658631 -0.7457629 0.1002147 
0.2098 0.1004 5.3768 -0.6138192 -0.785241 0.08137961 
0.3598 -0.1552 2.5036 0.4808903 -0.875874 0.03986467 
0.4648 0.0176 5.3508 0.4864005 -0.8733429 0.02620635 
0.39 0.1238 2.389 0.9697778 0.241353 -0.03577686 
0.6506 0.2302 5.7044 0.9765833 0.2078822 -0.0554086 
-0.0672 0.1334 -2.0238 -0.6263065 0.2589549 -0.7353112 
0.1862 0.2156 -2.0236 0.05429188 0.6850881 -0.7264343 
0.1126 0 -2.0236 0.000924934 5.820766e-12 -0.9999996 
-0.0672 -0.1334 -2.0238 -0.4399616 -0.5191748 -0.7327287 
0.1862 -0.2156 -2.0236 0.3639824 -0.5882571 -0.7221291 
0.343 0 -2.0234 0.6763469 0.1636931 -0.718164 
0.5374 0.5816 14.5184 0.1457329 0.6897559 0.7092241 
0.3052 0.4018 14.5184 -0.6030573 0.3468854 0.7183262 
0.545 0.332 14.5184 0 0 1 
0.4044 0.1256 14.5184 -0.5138028 -0.4656393 0.7205461 
0.6978 0.1346 14.5184 0.2875388 -0.6396202 0.7128868 
0.78 0.4164 14.5184 0.7043647 0.07567908 0.7057925 
0.5432 0.4994 13.1134 -0.08162086 0.3375908 -0.9377476 
0.3886 0.3798 13.1132 -0.3221179 0.02061513 -0.9464751 
0.0214 0.4688 13.2402 -0.8194743 0.1531834 -0.5522652 
0.5048 0.8430001 13.2402 -0.09823261 0.8340325 -0.5428997 
0.4548 0.1958 13.1132 -0.1113807 -0.3123477 -0.9434158 
0.228 -0.1066 13.2402 -0.3872172 -0.7344018 -0.5574198 
0.6502 0.2016 13.1134 0.2905109 -0.2185112 -0.9315881 
0.839 -0.0878 13.2402 0.579882 -0.5989496 -0.5522648 
0.7048 0.3894 13.1134 0.3117061 0.2052864 -0.9277375 
1.01 0.499 13.2402 0.7604084 0.3566458 -0.5427549 
-0.2112 0.2268 0.4636 -0.9851319 0.1485043 0.08638088 
-0.2112 -0.2268 0.4636 -0.4930832 -0.8651264 0.09178866 
0.2202 -0.367 0.464 0.7016944 -0.7112069 0.04254058 
0.4868 0 0.4642 0.8797724 0.4748322 0.02312741 
0.2202 0.367 0.464 -0.1074964 0.9931532 0.04573189 
0.4918 0.549 8.9172 0.0649827 0.9978014 -0.01303031 
0.7462 0.4174 8.8002 0.9819278 0.1888584 -0.01225832 
0.6838 0.2056 8.6214 0.5315257 -0.8469411 0.01308033 
0.487 0.1278 8.8378 -0.5828418 -0.8117234 0.03742556 
0.3316 0.3698 8.9396 -0.9385873 0.3446855 0.015679 
0.603 0.5128 11.7694 0.1059973 0.9942821 0.01294977 
0.7286 0.34 11.7694 0.9848992 0.1728156 0.01040959 
0.603 0.1674 11.4416 0.5082998 -0.8611179 0.01035975 
0.4 0.2334 11.4412 -0.6399796 -0.7683451 0.008483491 
0.4 0.4468 11.7692 -0.9227461 0.3852452 0.01121664 
0.5432 0.4994 13.1134 0.3702039 0.928847 0.01386684 
0.7048 0.3894 13.1134 0.9962203 -0.08618718 0.01081027 
0.6502 0.2016 13.1134 0.2387462 -0.9710689 0.005062003 
0.4548 0.1958 13.1132 -0.8358254 -0.5489831 0.003678223 
0.3886 0.3798 13.1132 -0.7729586 0.6343469 0.01179304 
-0.2112 0.2268 0.4636 -0.5110336 0.6085526 0.607049 
0.2202 0.367 0.464 0.4404247 0.69958 0.5626847 
0.2938 0.6942 -0.0004 0.3224191 0.9225627 0.2119526 
-0.5224 0.429 -0.0009999999 -0.7752099 0.5906388 0.2240436 
-0.2112 -0.2268 0.4636 -0.7249369 -0.3042643 0.6179723 
-0.5224 -0.429 -0.0009999999 -0.7981823 -0.5630762 0.2141266 
0.2202 -0.367 0.464 0.07037017 -0.810119 0.582027 
0.2938 -0.6942 -0.0004 0.2950736 -0.9353161 0.1952318 
0.4868 0 0.4642 0.8142716 -0.1972521 0.5459427 
0.798 0 0 0.9809524 -0.01335526 0.1937883 
2.316 -0.9588 15.9914 -0.869158 -0.4275748 0.2484839 
2.3428 -1.0234 15.736 -0.4347583 -0.8494834 -0.2989368 
3.5798 -1.212 16.423 -0.2380285 -0.5962824 0.7666745 
3.585 -1.2024 16.0696 -0.04765614 -0.4613092 -0.8859587 
3.317 -0.496 16.4246 0.07471546 0.3318529 0.9403676 
4.0022 -0.1138 16.1506 0.5389695 0.2792829 0.7946779 
2.117 -0.179 15.8752 -0.3801773 0.1512441 0.912464 
3.2902 0.262 16.0412 -0.09100032 0.7382057 0.6684095 
3.3488 0.2836 15.7742 0.5232093 0.728367 -0.4424177 
4.1082 -0.1296 15.9188 0.7562302 -0.3162829 -0.5727836 
3.34 -0.5424 16.164 0.3881095 -0.2910293 -0.8744558 
2.3362 -0.3372 15.4636 0.2323649 -0.3481965 -0.9081661 
0.483 0.173 14.2822 0.1136568 -0.09952641 -0.9885225 
0.4398 0.2166 14.486 -0.8347405 0.2524737 0.4893521 
1.5828 0.6842 14.5556 0.06866638 0.8414286 -0.5359876 
1.7976 0.4912 15.2096 -0.2550162 0.8152801 0.5198896 
1.1624 -0.777 14.7094 -0.3847679 -0.8664896 -0.3180398 
1.009 -0.7112 15.0128 -0.5955195 -0.674369 0.436558 
1.5342 -0.12 14.866 0.4223912 -0.4047792 -0.8110114 
1.3498 0.0032 15.2158 -0.5747569 0.1752502 0.7993385 
1.5242 -0.6974 15.2024 -0.1008797 -0.9694623 0.2235312 
4.2452 -1.6514 16.0756 -0.1399632 -0.9859797 -0.09085382 
4.1342 -0.849 15.9802 -0.1784975 -0.02475988 -0.9836288 
5.4756 -1.3244 15.7304 0.8894858 -0.1902588 -0.4154715 
4.2008 -0.8178 16.2876 0.3315987 0.06792264 0.9409723 
4.653 -0.3748 15.9014 0.12324 0.9604477 -0.2497043 
2.2144 -0.9656 15.6964 0.3369529 -0.904669 0.2608384 
3.6546 0.5054 14.0412 0.3380643 -0.4904173 0.8032456 
3.587 0.3404 13.8574 -0.1662131 -0.9775668 0.1293692 
4.5094 0.9474 13.5238 0.4000693 -0.8565963 -0.325864 
2.7942 0.9292 14.2076 0.09164441 -0.03051278 0.9953242 
4.149 1.2732 13.9634 0.4284258 0.07858697 0.900153 
3.097 1.4646 14.0706 -0.01242839 0.658067 0.7528568 
4.1524 1.956 13.7266 0.4489457 0.7744778 -0.4456815 
3.0422 1.472 13.9208 -0.1662697 0.4723313 -0.8655966 
2.746 0.9173999 14.0004 -0.09186664 0.01163538 -0.9957033 
4.0792 1.2578 13.8808 -0.3928832 0.05729691 -0.9178017 
1.8744 1.4258 13.8324 -0.1018139 0.1496438 -0.983484 
0.483 0.3546 14.4552 -0.8410425 -0.1490649 -0.5200261 
1.9276 1.408 14.0966 0.4164598 0.6522815 0.6333168 
0.423 0.3504 14.6936 -0.1775806 -0.07113884 0.9815316 
1.6384 0.0146 14.2328 0.2196896 -0.8089889 0.5452278 
1.5968 -0.0476 14.0908 -0.1969541 -0.866158 -0.4593249 
2.139 0.219 14.1066 0.2589611 -0.6679316 0.6977152 
3.323 0.3244 14 0.9446701 -0.3256134 -0.03967622 
1.7668 0.681 14.3916 0.1500698 -0.003122858 0.9886705 
2.1106 0.1638 13.7738 0.1068476 -0.7181059 -0.6876827 
1.6954 0.6746 14.0344 0.1120674 0.08297785 -0.9902301 
1.0826 0.4996 14.1984 -0.3434673 -0.08531626 -0.9352815 
1.1502 0.5216 14.4574 0.2289551 -0.02256301 0.9731755 
4.9138 1.4618 13.294 0.8205472 0.1482526 0.5520177 
5.13 0.876 12.8898 0.3737288 0.2236593 -0.9001686 
4.3134 1.9938 13.5882 -0.6590261 0.6604413 0.3598635 
4.7444 2.0078 12.7976 -0.2825186 0.9016413 -0.3274542 
4.7128 1.409 13.1608 -0.7888175 -0.2109408 -0.5772963 
5.3518 1.5792 11.8006 0.09743912 0.2614038 -0.9602987 
5.1184 0.829 12.6528 -0.1383799 -0.8765824 0.4609275 
2.203 1.5388 14.0024 -0.3928465 0.9190392 0.03222788 
2.624 1.829 14.5842 0.1756471 -0.9655831 0.1918264 
2.5004 1.8742 14.3432 0.381255 -0.7341796 -0.5618051 
3.2478 3.0092 14.2448 0.828943 -0.3437594 0.4412288 
3.1386 2.9274 14.031 0.003419489 -0.4426668 -0.8966796 
2.686 3.0434 14.7004 0.2263409 0.2897876 0.9299424 
2.4118 3.7726 14.3622 0.2601913 0.9351832 0.2402768 
1.819 2.0238 14.6602 0.2967918 -0.09065072 0.9506299 
1.8386 3.285 14.7656 -0.3165589 0.3692441 0.8737559 
1.7712 3.216 14.4956 -0.6620991 0.574536 -0.481179 
2.3316 3.6814 14.248 -0.1525103 0.3096639 -0.9385355 
2.5454 3.0134 14.2918 -0.102825 0.006452777 -0.9946785 
1.8038 2.0234 14.4234 -0.1460808 -0.1381435 -0.9795799 
0.343 0.3644 14.3412 -0.3766844 -0.1258654 -0.917751 
0.3228 0.2818 14.5982 -0.09716041 -0.5446762 0.8329992 
0.4348 1.5272 14.351 -0.9164 0.3418742 -0.2081659 
0.901 1.82 14.5872 -0.5501863 0.2903461 0.7829395 
1.4814 0.6458 14.0232 0.4894664 -0.8382609 -0.2402938 
1.4466 0.7104 14.2884 0.581386 -0.6348408 0.5088885 
1.1216 1.278 14.2482 0.02282107 0.03130513 -0.9992493 
1.1588 1.239 14.6894 0.1534725 -0.2086323 0.9658772 
1.7192 1.1402 14.3294 0.7788125 -0.627231 -0.005696878 
3.612 3.3444 13.6156 0.7431712 -0.584227 -0.3261525 
2.9766 3.553 13.9202 -0.4535398 -0.3687242 -0.8113841 
3.5476 4.4836 12.9102 0.1387848 0.4044771 -0.9039564 
3.1424 3.7126 14.1836 0.5549899 0.4593703 0.6935165 
2.6218 4.1812 13.7856 -0.888851 0.4572988 0.02866707 
2.4252 1.7134 14.3372 0.9524232 0.1890581 -0.239055 
-0.8986 -2.2844 15.5146 -0.885206 0.4475093 0.1270663 
-0.7552 -2.3844 15.3142 -0.5585563 0.3320089 -0.7601218 
-0.8638 -3.4904 15.519 -0.6138541 -0.2895855 -0.7343864 
0.0026 -1.7638 15.3418 -0.2066341 0.6202632 0.7566875 
-0.3484 -3.0068 16.0724 -0.2235919 0.119666 0.967309 
0.3486 -2.2164 15.6184 0.4498042 0.2751732 0.8496798 
0.3264 -3.3826 15.9794 0.5871747 -0.7322464 0.3450234 
0.4854 -2.33 15.3924 0.6328416 -0.4859351 -0.602809 
0.0352 -1.8142 15.1942 0.1361703 -0.4256672 -0.8945754 
-0.223 -3.0494 15.722 0.302092 -0.2698239 -0.9142951 
0.8678001 -1.3384 14.875 0.3389986 -0.568239 -0.7497897 
0.6 0.4474 14.209 0.3152654 0.3085015 -0.8974601 
0.8558 -1.334 15.1384 0.1742065 -0.2354729 0.9561405 
0.5338 0.5736 14.516 -0.1611961 0.6197318 0.768081 
-0.319 -0.538 14.5556 -0.9461427 0.3227669 -0.02520905 
-0.2524 -0.5904 14.417 -0.4709373 -0.07988149 -0.8785426 
-0.3542 -1.059 14.7512 -0.8600716 0.3367383 0.3832549 
-0.7982 -2.2796 15.2474 -0.4311621 -0.8733237 -0.2267267 
0.2418 -0.802 14.9148 -0.2128902 0.408074 0.8877801 
-0.2196 -1.137 14.6066 -0.3635896 -0.3506803 -0.8630329 
0.3126 -0.9220001 14.6536 0.08817648 -0.6407164 -0.7626975 
0.4358 -0.3318 14.3842 0.1580492 -0.343267 -0.9258446 
0.3724 -0.2218 14.6912 -0.2672173 0.3322377 0.9045513 
-0.3804 -4.0234 15.7262 -0.3181933 -0.4303304 0.8447299 
-1.01 -4.3098 15.2784 0.3813516 -0.8654001 -0.3250439 
0.351 -3.5882 15.9678 0.9247892 0.3535087 0.1406998 
0.1898 -4.356 15.5064 0.9613799 -0.2702581 -0.05205061 
-0.3416 -3.968 15.6046 0.2787514 0.3069723 -0.9099812 
-0.2618 -5.371 14.7302 0.3859522 -0.6633558 -0.6410928 
-0.9061999 -4.3694 15.123 -0.737894 0.673798 0.03884256 
0.9228001 -1.6018 15.1774 0.9431249 0.2209546 0.2483838 
-0.9332 2.3306 15.3566 0.9745843 0.218304 0.05028697 
-1.0238 2.2878 15.1302 0.7006256 0.5342787 -0.4729376 
-2.106 3.0356 15.2888 0.3609551 0.6196144 0.696986 
-2.0272 3.033 15.0964 0.3835234 0.2958091 -0.8748753 
-2.1278 2.3782 15.5496 -0.319783 -0.02107208 0.9472564 
-2.8496 2.2494 15.1634 -0.9178563 0.2061972 0.3391497 
-1.0962 1.5076 15.366 0.1400186 -0.08893032 0.9861472 
-2.4078 1.559 15.336 -0.3758863 -0.6223481 0.6865802 
-2.357 1.5844 15.0232 -0.6357585 -0.3657575 -0.6797299 
-2.778 2.218 15.0538 -0.31383 0.2333469 -0.9203586 
-2.114 2.3912 15.1416 -0.07226848 0.2900259 -0.9542862 
-1.144 1.5986 15 0.09171934 0.2429936 -0.9656819 
0.42 0.2834 14.2914 0.12812 -0.0738659 -0.9890041 
0.437 0.2498 14.425 0.5653447 -0.4974092 0.6580042 
-0.7354 0.3268 14.3214 -0.3211613 -0.7869347 -0.5268674 
-0.9922 0.6422 14.862 -0.2039648 -0.7550501 0.6231356 
0.1642 1.3908 14.4428 0.6579431 0.5044165 -0.5591733 
0.2832 1.4056 14.7344 0.8250753 0.5183149 0.224945 
-0.4422 1.0538 14.4618 -0.08209755 0.3908743 -0.9167755 
-0.4036 0.9494 14.8068 0.3124955 -0.2248947 0.9229133 
-0.196 1.6736 14.7758 0.4581232 0.8871447 0.05565434 
-2.4272 3.6518 14.8858 0.6108098 0.7874658 0.08251644 
-2.6918 2.9564 15.0462 0.3063604 -0.136692 -0.9420502 
-3.5184 3.7836 14.3288 -0.4825548 0.3013963 -0.8223754 
-2.775 2.9958 15.2206 -0.4156739 0.2750902 0.8669144 
-3.2206 2.7416 14.7688 -0.5428393 -0.8015814 -0.2505848 
-0.816 2.3238 15.0712 -0.2444671 0.9612141 0.1276841 
-2.162 -0.558 14.767 0.03436267 0.9867968 0.1582765 
-2.083 -0.6266 14.5424 -0.2551742 0.8211188 -0.510539 
-3.0998 -1.515 14.4916 -0.6754515 0.4815062 0.5584955 
-2.9856 -1.462 14.2654 0.05185334 0.535957 -0.8426514 
-2.5072 -1.707 14.8544 -0.2657525 -0.3234341 0.9081663 
-2.5014 -2.5282 14.5086 -0.3955488 -0.729156 0.5584557 
-1.4296 -0.913 14.8568 -0.148025 0.09171612 0.9847217 
-1.768 -2.0932 14.769 0.346907 -0.4821 0.8045093 
-1.6978 -2.0798 14.5772 0.5585484 -0.7353649 -0.3837477 
-2.3976 -2.5008 14.2208 -0.1193462 -0.3171565 -0.9408338 
-2.4186 -1.6832 14.524 -0.01423192 0.0282929 -0.9994984 
-1.4572 -0.919 14.448 0.07341625 0.1835965 -0.9802564 
0.3206 0.3146 14.3664 0.364403 0.07365856 -0.9283236 
0.303 0.3092 14.4726 0.4093439 0.4006955 0.8196833 
-0.0172 -0.752 14.3302 0.8381864 -0.5153878 -0.1783789 
-0.511 -0.9398 14.5816 0.5241402 -0.4090906 0.7469417 
-0.8258 0.347 14.149 -0.2525654 0.8589826 -0.445376 
-0.8534001 0.3972 14.464 -0.3897634 0.8419478 0.3731064 
-0.612 -0.3492 14.3504 -0.0843512 0.01042153 -0.9963815 
-0.6014 -0.3256 14.7418 0.07230093 0.1809846 0.9808247 
-1.1858 -0.038 14.4398 -0.7440467 0.6561851 -0.1257604 
-3.6748 -1.6558 13.836 -0.5799521 0.7905676 -0.1966174 
-2.9494 -2.067 14.0446 0.5131135 0.2749688 -0.8130847 
-3.7466 -2.7056 13.315 -0.2971878 -0.656307 -0.6934988 
-3.1156 -2.184 14.3124 -0.5596069 -0.3974943 0.7272128 
-2.8872 -2.6744 13.9616 0.6949213 -0.7190527 -0.006905619 
-1.8954 -0.4892 14.529 -0.9693004 0.2010968 -0.1414806 
1.7998 -2.5266 14.0162 -0.6900433 -0.4622973 0.5568854 
1.781 -2.4656 13.8586 -0.9809523 -0.05310619 -0.1868491 
2.4482 -3.2022 13.3798 -0.8019808 -0.4047205 -0.4393497 
1.9624 -1.5476 14.1232 -0.1469439 -0.06904361 0.9867322 
2.78 -2.8014 14.0206 0.2452516 -0.4273529 0.8701845 
2.701 -1.6014 14.1436 0.6563709 0.3086467 0.6884145 
3.287 -2.4734 13.606 0.8682668 -0.07626141 -0.4902009 
2.5934 -1.5578 13.7578 0.2796305 0.3870728 -0.8786247 
1.9298 -1.5082 13.9832 -0.2234136 0.1358185 -0.9652148 
2.6876 -2.5778 13.6078 -0.1369442 0.3737576 -0.9173613 
2.128 -0.512 13.8056 0.07604743 0.0908329 -0.9929583 
0.6584 0.4788 14.5406 -0.4582306 0.8144678 -0.3559029 
2.198 -0.602 14.0992 0.7061449 -0.2014664 0.6788009 
0.7132 0.3936 14.6706 0.02158394 0.1351191 0.9905943 
0.6536 -0.8288 14.3652 -0.7821895 -0.4803877 0.3967458 
0.6648 -0.7376 14.1624 -0.7571926 -0.06432572 -0.6500167 
1.0646 -1.1764 14.1412 -0.4963197 -0.5852842 0.641178 
1.6524 -2.2454 13.9074 0.02251714 -0.8499032 -0.5264575 
1.3978 -0.664 14.3726 0.1245575 -0.1999642 0.9718538 
1.085 -1.1028 13.9696 -0.4653447 -0.2488444 -0.8494296 
1.3582 -0.6088 14.1432 0.02258928 -0.1115781 -0.9934989 
0.985 -0.0598 14.1762 -0.2152801 0.2043771 -0.9549265 
1.056 -0.1406 14.4988 0.1616871 -0.2098118 0.9642802 
3.1628 -3.4426 13.1862 0.4737619 -0.7559732 0.4517236 
2.5262 -3.8744 12.6214 0.1588914 -0.2242935 -0.9614812 
3.4016 -2.6436 13.4306 0.5996154 0.7976808 0.06454947 
3.4442 -3.066 12.6706 0.7019362 0.6096297 -0.3682897 
2.9738 -3.1606 12.9982 -0.4610001 0.6773497 -0.573303 
3.294 -3.6922 11.5578 0.2030459 0.2292426 -0.951956 
2.6304 -3.6804 12.52 -0.9043704 -0.2592124 0.3390031 
2.3172 -0.814 13.9762 0.5094432 0.8602641 -0.02033311 
-1.3082 1.2406 15.9778 0.7388233 0.6738595 -0.007315735 
-1.3818 1.2022 15.7942 0.1130017 0.8134225 -0.5705914 
-2.5922 1.2082 16.3716 0.2433698 0.7816495 0.574278 
-2.5924 1.1816 16.2156 -0.008787476 0.4623401 -0.8866592 
-2.1796 0.6586 16.4956 0.2206821 -0.1522336 0.9633921 
-2.8814 0.0956 16.4222 -0.5118142 -0.3498706 0.7846253 
-1.0304 0.5142 15.8368 0.4349119 0.05724602 0.8986515 
-2.0238 -0.0958 16.1938 0.3059983 -0.5664185 0.7652027 
-2.0812 -0.17 15.9712 -0.4419591 -0.7958368 -0.4139034 
-2.8102 0.1178 16.1732 -0.6152731 -0.02385718 -0.787953 
-2.3086 0.6526 16.1088 -0.3741187 0.2158458 -0.9019123 
-1.1166 0.5278 15.6642 -0.3149585 0.240858 -0.9180351 
0.622 0.2968 14.2702 -0.1926227 0.01979302 -0.9810733 
0.6652 0.2876 14.4672 0.9037775 -0.007690404 0.4279337 
-0.34 -0.3718 14.6688 0.07498907 -0.8987032 -0.4320987 
-0.5562 -0.156 15.3092 0.4298617 -0.6961308 0.5749964 
-0.1636 1.037 14.7518 0.08248723 0.8293966 -0.5525369 
-0.0604 1.0844 14.9118 0.4181551 0.902023 0.107242 
-0.421 0.4468 14.908 -0.582263 0.2414258 -0.7763269 
-0.1926 0.4006 15.2622 0.6091182 0.04162642 0.7919862 
-0.5176 1.0316 15.1696 -0.098953 0.9905096 -0.09538911 
-3.3354 1.622 16.1264 0.2249751 0.9522483 -0.2064202 
-3.0636 0.799 16.1132 0.09510358 0.05984491 -0.9936669 
-4.4926 0.9866 15.9104 -0.8597574 0.01279104 -0.5105425 
-3.136 0.7762 16.6062 -0.1626111 0.04442481 0.9856896 
-3.5072 0.1614 16.1012 0.02352402 -0.9658202 -0.2581434 
-1.1684 1.1428 15.657 -0.7274504 0.6158987 0.3024643 
1.7366 2.034 15.9574 0.8531076 -0.4296069 0.2960494 
1.6458 2.1142 15.7408 0.6151706 -0.4750278 -0.6292168 
1.7082 3.1984 15.7292 0.7991794 -0.05882992 -0.5982069 
0.845 1.5994 15.739 0.03637052 -0.6015378 0.798016 
1.22 2.8842 16.3112 0.1012094 0.01374063 0.9947702 
0.4836 2.103 15.9116 -0.6545522 -0.1301579 0.7447284 
0.6174 3.27 15.9956 -0.5759106 0.8165211 0.04025158 
0.4164 2.2112 15.6218 -0.5168954 0.3571768 -0.7779742 
0.8396 1.6494 15.5914 0.1108269 0.3872259 -0.9152997 
1.1206 2.877 15.8498 -0.164877 0.09156661 -0.9820546 
-0.0009999999 1.5334 15.0818 0.1459642 0.8347965 -0.5308571 
0.3302 0.2226 14.0766 -0.07949942 -0.01520953 -0.9967188 
-0.002 1.384 15.3756 -0.6277728 -0.08344315 0.7739112 
0.2742 -0.0178 14.263 -0.3388872 -0.8915904 0.3003699 
1.2458 0.5242 14.9222 0.7685791 -0.6223559 0.1481868 
1.2292 0.673 14.6966 0.6667511 0.1072385 -0.7375249 
1.2218 0.952 15.1918 0.5754556 -0.5926179 0.5636087 
1.573 1.7556 15.6864 0.6083013 0.674983 0.4175731 
0.5818 0.793 15.2316 -0.0948384 -0.6035076 0.7916971 
1.269 1.1662 14.88 0.7210675 0.3955336 -0.5688714 
0.6022 1.034 14.9358 0.09341327 0.856093 -0.5083096 
0.5206 0.687 14.544 0.1697893 0.6271329 -0.7601815 
0.4594 0.4682 14.7774 -0.1631118 -0.6944553 0.7008041 
1.4602 3.9246 15.8734 0.2833877 0.5371544 0.7944537 
2.0962 3.941 15.347 0.1487223 0.6434145 -0.7509324 
0.6418 3.4894 15.9258 -0.9829575 -0.1797464 0.03854667 
0.8436 4.1778 15.3318 -0.9254186 0.2490458 -0.2856162 
1.3746 3.7178 15.5572 -0.1704231 -0.456973 -0.8730015 
1.588 4.971 14.4966 -0.04686074 0.4126711 -0.9096739 
2.0354 3.9988 15.1526 0.7678174 -0.6332346 0.09731619 
0.173 1.5772 15.4372 -0.9983087 -0.0480043 -0.03279413 
0.5356 -1.7276 16.1946 -0.9067038 -0.05350392 0.4183605 
0.6284 -1.7532 15.9892 -0.847562 0.04924207 -0.528407 
1.0428 -2.7856 15.9426 -0.7584048 -0.4426642 -0.4784043 
0.9812 -0.8372 16.0186 -0.2457335 0.534206 0.8088504 
1.4352 -2.1436 16.4164 0.0678471 -0.02228108 0.9974469 
1.5742 -1.1364 16.0074 0.6624162 0.4033236 0.6312962 
2.0434 -2.0018 16.1616 0.9653992 -0.235209 -0.1126104 
1.5758 -1.1628 15.861 0.7295249 -0.1150378 -0.6742106 
1.0634 -1.047 15.5754 0.1953216 -0.3914847 -0.8992158 
1.4744 -2.111 16.0414 0.3179805 -0.01645084 -0.9479545 
1.5332 -0.3472 15.202 0.3628428 -0.8026818 -0.4733361 
0.5576 0.477 14.207 0.02157861 0.07927239 -0.9966195 
1.4378 -0.2542 15.3194 0.5878541 0.4029195 0.7014866 
0.491 0.718 14.4022 -0.05757274 0.9732022 0.222627 
-0.0342 -0.2216 15.1784 -0.9605374 0.1302876 0.2457499 
0.0242 -0.4124 14.853 -0.4697961 -0.5820271 -0.663729 
0.2358 -0.5622 15.4532 -0.7122275 0.1883527 0.6762065 
0.5282 -1.625 15.9498 -0.3900488 -0.8988497 0.1998278 
0.7592 -0.1108 15.3648 -0.1383635 0.5992154 0.7885407 
0.3564 -0.7722 15.1154 -0.3734021 -0.7566641 -0.5366845 
0.8488001 -0.3334 15.0782 0.3090199 -0.7139248 -0.6283454 
0.6814 0.0426 14.7324 0.2137287 -0.6292322 -0.7472528 
0.6378 0.2574 14.9512 -0.08124467 0.7105061 0.6989853 
1.7534 -3.1556 16.0494 0.1225172 -0.5798007 0.8054941 
1.186 -3.5568 15.6132 0.3335845 -0.6588771 -0.6742421 
2.3494 -2.306 16.0674 0.6606487 0.7474236 -0.07000913 
2.2882 -3.095 15.5032 0.8780366 0.2031834 -0.4333222 
1.7006 -2.9856 15.791 -0.1757045 0.4270644 -0.8869858 
2.0972 -4.1922 14.7016 0.1453557 -0.2792628 -0.9491491 
1.3388 -3.5468 15.429 -0.9790704 0.1074375 0.1728536 
1.6284 -0.479 15.5178 0.9056157 0.369146 -0.2087854 
-0.9786 -0.5364 13.0778 -0.9143118 0.272158 0.2999398 
-0.862 -0.4668 12.9858 -0.06517372 0.996765 -0.04703348 
-0.9048 -1.0462 12.4256 -0.3646248 0.6640934 -0.6527087 
-0.3392 -0.8194001 13.7012 -0.5546978 -0.1142013 0.8241775 
-0.6402 -1.4188 13.061 -0.6985424 -0.5730945 0.4284873 
0.0602 -1.3656 13.6028 0.09878562 -0.7540686 0.6493243 
0.0072 -1.8034 13.13 0.5813954 -0.7388142 -0.340783 
0.14 -1.2476 13.4492 0.8783414 -0.01727197 -0.4777217 
-0.1574 -0.7244 13.5032 0.5562673 0.3667555 -0.7456925 
-0.3304 -1.2274 12.8672 0.7471393 0.4451803 -0.4935557 
0.7242 -0.9274001 13.8456 0.8589035 0.08841468 -0.5044476 
0.425 0.278 14.4852 0.6945126 0.6733087 0.2535894 
0.5718 -1.0612 13.9894 -0.1193312 -0.9146935 0.3861294 
0.3156 0.228 14.6756 -0.064473 0.1626461 0.9845758 
-0.4782 0.3498 13.8546 -0.8008805 0.5789362 0.1530467 
-0.328 0.4358 13.7286 0.08031689 0.8931407 -0.442548 
-0.4882 0.0186 13.6508 -0.9801704 0.03337893 0.1953246 
-0.7724 -0.3548 13.2056 -0.6927959 -0.09057735 -0.7154227 
-0.0048 -0.355 14.0404 -0.6443831 -0.4015638 0.6507818 
-0.2868 0.0872 13.4632 -0.06811845 0.5598185 -0.8258107 
0.252 -0.2196 13.7584 0.4392137 0.06909215 -0.8957218 
0.375 0.0604 14.045 0.6781588 0.4955186 -0.5427358 
0.05 -0.152 14.3816 -0.6698949 -0.4063602 0.6213792 
-0.5838 -1.6158 12.3746 -0.6998507 -0.7086633 -0.08947213 
-0.9448 -1.0012 11.8644 0.1947058 -0.1533595 -0.9687985 
0.1184 -2.04 12.9812 0.8298844 -0.2414445 0.5029876 
-0.0626 -1.8308 12.2906 0.7833269 -0.5575701 -0.2747988 
-0.4052 -1.4258 12.3672 0.6838681 0.7185358 -0.126613 
-0.1522 -1.5748 11.0924 0.5823165 -0.2400926 -0.7767001 
-0.7896 -1.1152 11.7512 -0.6442065 0.6736001 0.3622995 
0.5096 -1.0772 13.8294 0.8688877 -0.3932741 0.3006155 
1.8482 1.3156 13.0464 0.9546838 0.1738233 0.2415869 
1.8348 1.1326 13.0414 0.553306 -0.7257759 0.408781 
1.72 1.4484 12.1916 0.6167613 -0.7436629 -0.2580137 
1.3542 1.5842 13.5754 0.605063 0.4016976 0.6874139 
1.6474 1.9418 12.6314 0.7193084 0.6928029 0.05118303 
1.074 2.0738 13.3212 -0.06320395 0.9247178 0.3753695 
1.0064 2.2364 12.5444 -0.5505412 0.5117358 -0.6595688 
0.8836 1.8302 13.163 -0.9124845 -0.1565021 -0.3779937 
1.1584 1.3918 13.3906 -0.61704 -0.6183475 -0.4867321 
1.3954 1.727 12.5928 -0.7965204 -0.5691568 -0.2039995 
0.436 1.6028 13.658 -0.26241 -0.1887409 -0.9463181 
0.305 0.475 14.3954 -0.7407708 -0.6565909 0.14194 
0.5856 1.722 13.8016 0.1503808 0.9130731 0.3790559 
0.4574 0.6358 14.6088 0.06554732 0.2041013 0.9767528 
1.3592 0.6242 14.111 0.8500032 -0.1968169 0.4886283 
1.2572 0.4046 13.9448 0.1684485 -0.8008594 -0.5746733 
1.3196 0.9048 13.8064 0.8659045 0.1360628 0.4813487 
1.7704 1.183 13.175 0.8629977 -0.3302065 -0.3823594 
0.962 1.1682 14.0138 0.5220814 0.4176463 0.7436414 
1.274 0.8058 13.716 0.3266302 -0.5411146 -0.7749243 
0.8706 1.0886 13.8916 -0.3218733 -0.3269423 -0.8885417 
0.6572 0.8188 14.0548 -0.3508129 -0.3929836 -0.8499965 
0.7546 0.9412 14.266 0.4570361 0.4983273 0.7367414 
1.4646 1.7568 11.682 0.6936027 0.6159687 -0.373494 
1.7426 1.1538 11.5398 -0.1617339 -0.5868471 -0.7933806 
1.01 2.2112 12.233 -0.6645371 0.576251 0.4757367 
0.827 1.891 11.3974 -0.8036374 0.5683296 -0.1765455 
1.2696 1.5282 11.8426 -0.605155 -0.7447537 0.2812997 
0.8824 1.18 10.0438 -0.4580731 -0.2084922 -0.864118 
1.6442 1.0872 11.2448 0.8176296 -0.4357718 0.3762774 
0.6372 1.7654 13.65 -0.8953087 0.2766619 0.349114 
0.89 -0.6644 13.1608 -0.05155285 -0.804943 0.5911083 
0.7616 -0.6322 13.1744 -0.6440129 -0.7324265 0.2209045 
1.0816 -0.5716 12.298 0.262554 -0.9571018 -0.1225627 
0.9016 -0.5014 12.338 -0.9737217 0.2266607 0.02215802 
1.4672 -0.2618 12.665 0.875061 -0.4675952 -0.1249922 
1.7806 0.371 12.2344 0.8394446 -0.2316409 -0.4916047 
1.3524 -0.242 13.5262 0.735331 -0.6380106 0.2285405 
1.7554 0.4154 12.9046 0.9522516 -0.06925041 0.2973571 
1.6842 0.684 12.9006 0.3022845 0.9435073 -0.1357137 
1.5574 0.5664 12.1822 -0.6305628 0.4677525 -0.619353 
1.3238 -0.1472 12.6522 -0.8263773 0.4837471 -0.2882523 
1.1358 -0.0798 13.4156 -0.885031 0.4351436 -0.1654396 
0.4158 0.3458 14.6908 -0.7971592 0.5980287 -0.0830602 
0.6622 0.1778 14.7326 0.3529156 -0.3394758 0.8718985 
1.0596 0.7096 14.0636 0.1140046 0.9376473 0.3283604 
1.3154 0.4758 13.8768 0.8572793 0.1055687 0.5039122 
0.3408 -0.3302 14.0042 -0.9832479 -0.1773068 -0.04226165 
0.3904 -0.4918 14.0586 -0.5801882 -0.8075297 0.1061961 
0.7837999 0.1326 13.9132 -0.7421365 0.426091 -0.517378 
1.0428 -0.0498 14.0636 0.6296827 -0.5676265 0.5303771 
0.6024 -0.379 13.7476 -0.6834202 -0.5813463 -0.4415578 
0.7376 -0.5228 11.699 -0.506474 -0.8465757 -0.1636879 
1.197 -0.0522 12.0292 -0.7871906 0.5496849 0.2796023 
0.7786 0.3008 10.6336 -0.4566088 0.4115135 -0.7887744 
1.3404 -0.1408 11.9432 0.781051 -0.5047348 -0.3676984 
1.4478 0.5456 11.766 0.4507875 0.8111973 0.3724911 
0.7376 -0.6058 13.283 -0.2676712 -0.5717757 -0.7755157 
3 0 1 2 
3 0 2 3 
3 1 4 5 
3 1 5 2 
3 4 6 7 
3 4 7 5 
3 6 8 9 
3 6 9 7 
3 8 0 3 
3 8 3 9 
3 10 11 12 
3 13 10 12 
3 14 13 12 
3 15 14 12 
3 11 15 12 
3 16 17 18 
3 17 19 18 
3 19 20 18 
3 20 21 18 
3 21 16 18 
3 22 23 24 
3 22 24 25 
3 23 26 27 
3 23 27 24 
3 26 28 29 
3 26 29 27 
3 28 30 31 
3 28 31 29 
3 30 22 25 
3 30 25 31 
3 25 24 17 
3 25 17 16 
3 24 27 19 
3 24 19 17 
3 27 29 20 
3 27 20 19 
3 29 31 21 
3 29 21 20 
3 31 25 16 
3 31 16 21 
3 32 33 4 
3 32 4 1 
3 33 34 6 
3 33 6 4 
3 34 35 8 
3 34 8 6 
3 35 36 0 
3 35 0 8 
3 36 32 1 
3 36 1 0 
3 9 3 37 
3 9 37 38 
3 7 9 38 
3 7 38 39 
3 5 7 39 
3 5 39 40 
3 2 5 40 
3 2 40 41 
3 3 2 41 
3 3 41 37 
3 38 37 42 
3 38 42 43 
3 39 38 43 
3 39 43 44 
3 40 39 44 
3 40 44 45 
3 41 40 45 
3 41 45 46 
3 37 41 46 
3 37 46 42 
3 43 42 47 
3 43 47 48 
3 44 43 48 
3 44 48 49 
3 45 44 49 
3 45 49 50 
3 46 45 50 
3 46 50 51 
3 42 46 51 
3 42 51 47 
3 52 53 54 
3 52 54 55 
3 56 52 55 
3 56 55 57 
3 58 56 57 
3 58 57 59 
3 60 58 59 
3 60 59 61 
3 53 60 61 
3 53 61 54 
3 55 54 11 
3 55 11 10 
3 57 55 10 
3 57 10 13 
3 59 57 13 
3 59 13 14 
3 61 59 14 
3 61 14 15 
3 54 61 15 
3 54 15 11 
3 62 63 64 
3 64 63 65 
3 66 67 68 
3 69 68 67 
3 69 67 70 
3 70 67 71 
3 72 73 71 
3 73 70 71 
3 74 75 76 
3 76 75 77 
3 74 78 75 
3 75 78 79 
3 66 68 64 
3 68 62 64 
3 72 65 73 
3 63 73 65 
3 76 70 80 
3 80 70 73 
3 76 77 70 
3 70 77 69 
3 77 81 69 
3 69 81 68 
3 74 76 80 
3 78 82 79 
3 78 74 82 
3 82 74 80 
3 83 84 85 
3 64 65 83 
3 66 64 86 
3 86 64 83 
3 84 87 85 
3 86 83 85 
3 87 86 85 
3 72 84 65 
3 65 84 83 
3 79 82 75 
3 75 82 81 
3 77 75 81 
3 87 66 86 
3 72 87 84 
3 82 88 81 
3 81 88 68 
3 82 80 88 
3 88 80 73 
3 68 73 62 
3 62 73 63 
3 66 72 67 
3 67 72 71 
3 66 87 72 
3 68 88 73 
3 89 90 91 
3 92 93 94 
3 94 93 95 
3 96 94 95 
3 97 96 98 
3 96 95 98 
3 99 100 101 
3 101 100 102 
3 102 100 103 
3 103 100 104 
3 91 93 89 
3 92 89 93 
3 98 91 97 
3 90 97 91 
3 105 106 107 
3 107 106 92 
3 108 106 105 
3 108 109 106 
3 106 109 97 
3 110 99 109 
3 102 111 101 
3 103 111 102 
3 104 108 103 
3 103 108 105 
3 104 110 108 
3 108 110 109 
3 93 91 112 
3 112 91 113 
3 93 112 114 
3 114 112 115 
3 116 115 117 
3 112 118 117 
3 115 112 117 
3 98 116 91 
3 91 116 113 
3 98 114 116 
3 116 114 115 
3 100 110 104 
3 99 110 100 
3 103 105 111 
3 111 105 107 
3 101 111 107 
3 118 116 117 
3 107 92 119 
3 119 92 94 
3 96 119 94 
3 109 119 97 
3 97 119 96 
3 92 106 97 
3 107 109 101 
3 101 109 99 
3 93 114 98 
3 112 113 116 
3 112 116 118 
3 93 98 95 
3 89 92 90 
3 90 92 97 
3 107 119 109 
3 120 121 122 
3 122 121 123 
3 124 125 126 
3 127 126 125 
3 127 125 128 
3 128 125 129 
3 130 131 129 
3 131 128 129 
3 132 133 134 
3 134 133 135 
3 132 136 133 
3 133 136 137 
3 124 126 122 
3 126 120 122 
3 130 123 131 
3 121 131 123 
3 134 128 138 
3 138 128 131 
3 134 135 128 
3 128 135 127 
3 135 139 127 
3 127 139 126 
3 132 134 138 
3 136 140 137 
3 136 132 140 
3 140 132 138 
3 141 142 143 
3 122 123 141 
3 124 122 144 
3 144 122 141 
3 142 145 143 
3 144 141 143 
3 145 144 143 
3 130 142 123 
3 123 142 141 
3 137 140 133 
3 133 140 139 
3 135 133 139 
3 145 124 144 
3 130 145 142 
3 140 146 139 
3 139 146 126 
3 140 138 146 
3 146 138 131 
3 126 131 120 
3 120 131 121 
3 124 130 125 
3 125 130 129 
3 124 145 130 
3 126 146 131 
3 147 148 149 
3 150 151 152 
3 152 151 153 
3 154 152 153 
3 155 154 156 
3 154 153 156 
3 157 158 159 
3 159 158 160 
3 160 158 161 
3 161 158 162 
3 149 151 147 
3 150 147 151 
3 156 149 155 
3 148 155 149 
3 163 164 165 
3 165 164 150 
3 166 164 163 
3 166 167 164 
3 164 167 155 
3 168 157 167 
3 160 169 159 
3 161 169 160 
3 162 166 161 
3 161 166 163 
3 162 168 166 
3 166 168 167 
3 151 149 170 
3 170 149 171 
3 151 170 172 
3 172 170 173 
3 174 173 175 
3 170 176 175 
3 173 170 175 
3 156 174 149 
3 149 174 171 
3 156 172 174 
3 174 172 173 
3 158 168 162 
3 157 168 158 
3 161 163 169 
3 169 163 165 
3 159 169 165 
3 176 174 175 
3 165 150 177 
3 177 150 152 
3 154 177 152 
3 167 177 155 
3 155 177 154 
3 150 164 155 
3 165 167 159 
3 159 167 157 
3 151 172 156 
3 170 171 174 
3 170 174 176 
3 151 156 153 
3 147 150 148 
3 148 150 155 
3 165 177 167 
3 178 179 180 
3 180 179 181 
3 182 183 184 
3 185 184 183 
3 185 183 186 
3 186 183 187 
3 188 189 187 
3 189 186 187 
3 190 191 192 
3 192 191 193 
3 190 194 191 
3 191 194 195 
3 182 184 180 
3 184 178 180 
3 188 181 189 
3 179 189 181 
3 192 186 196 
3 196 186 189 
3 192 193 186 
3 186 193 185 
3 193 197 185 
3 185 197 184 
3 190 192 196 
3 194 198 195 
3 194 190 198 
3 198 190 196 
3 199 200 201 
3 180 181 199 
3 182 180 202 
3 202 180 199 
3 200 203 201 
3 202 199 201 
3 203 202 201 
3 188 200 181 
3 181 200 199 
3 195 198 191 
3 191 198 197 
3 193 191 197 
3 203 182 202 
3 188 203 200 
3 198 204 197 
3 197 204 184 
3 198 196 204 
3 204 196 189 
3 184 189 178 
3 178 189 179 
3 182 188 183 
3 183 188 187 
3 182 203 188 
3 184 204 189 
3 205 206 207 
3 207 206 208 
3 209 210 211 
3 212 211 210 
3 212 210 213 
3 213 210 214 
3 215 216 214 
3 216 213 214 
3 217 218 219 
3 219 218 220 
3 217 221 218 
3 218 221 222 
3 209 211 207 
3 211 205 207 
3 215 208 216 
3 206 216 208 
3 219 213 223 
3 223 213 216 
3 219 220 213 
3 213 220 212 
3 220 224 212 
3 212 224 211 
3 217 219 223 
3 221 225 222 
3 221 217 225 
3 225 217 223 
3 226 227 228 
3 207 208 226 
3 209 207 229 
3 229 207 226 
3 227 230 228 
3 229 226 228 
3 230 229 228 
3 215 227 208 
3 208 227 226 
3 222 225 218 
3 218 225 224 
3 220 218 224 
3 230 209 229 
3 215 230 227 
3 225 231 224 
3 224 231 211 
3 225 223 231 
3 231 223 216 
3 211 216 205 
3 205 216 206 
3 209 215 210 
3 210 215 214 
3 209 230 215 
3 211 231 216 
3 232 233 234 
3 235 236 237 
3 237 236 238 
3 239 237 238 
3 240 239 241 
3 239 238 241 
3 242 243 244 
3 244 243 245 
3 245 243 246 
3 246 243 247 
3 234 236 232 
3 235 232 236 
3 241 234 240 
3 233 240 234 
3 248 249 250 
3 250 249 235 
3 251 249 248 
3 251 252 249 
3 249 252 240 
3 253 242 252 
3 245 254 244 
3 246 254 245 
3 247 251 246 
3 246 251 248 
3 247 253 251 
3 251 253 252 
3 236 234 255 
3 255 234 256 
3 236 255 257 
3 257 255 258 
3 259 258 260 
3 255 261 260 
3 258 255 260 
3 241 259 234 
3 234 259 256 
3 241 257 259 
3 259 257 258 
3 243 253 247 
3 242 253 243 
3 246 248 254 
3 254 248 250 
3 244 254 250 
3 261 259 260 
3 250 235 262 
3 262 235 237 
3 239 262 237 
3 252 262 240 
3 240 262 239 
3 235 249 240 
3 250 252 244 
3 244 252 242 
3 236 257 241 
3 255 256 259 
3 255 259 261 
3 236 241 238 
3 232 235 233 
3 233 235 240 
3 250 262 252 
3 263 264 265 
3 265 264 266 
3 267 268 269 
3 270 269 268 
3 270 268 271 
3 271 268 272 
3 273 274 272 
3 274 271 272 
3 275 276 277 
3 277 276 278 
3 275 279 276 
3 276 279 280 
3 267 269 265 
3 269 263 265 
3 273 266 274 
3 264 274 266 
3 277 271 281 
3 281 271 274 
3 277 278 271 
3 271 278 270 
3 278 282 270 
3 270 282 269 
3 275 277 281 
3 279 283 280 
3 279 275 283 
3 283 275 281 
3 284 285 286 
3 265 266 284 
3 267 265 287 
3 287 265 284 
3 285 288 286 
3 287 284 286 
3 288 287 286 
3 273 285 266 
3 266 285 284 
3 280 283 276 
3 276 283 282 
3 278 276 282 
3 288 267 287 
3 273 288 285 
3 283 289 282 
3 282 289 269 
3 283 281 289 
3 289 281 274 
3 269 274 263 
3 263 274 264 
3 267 273 268 
3 268 273 272 
3 267 288 273 
3 269 289 274 
3 290 291 292 
3 293 294 295 
3 295 294 296 
3 297 295 296 
3 298 297 299 
3 297 296 299 
3 300 301 302 
3 302 301 303 
3 303 301 304 
3 304 301 305 
3 292 294 290 
3 293 290 294 
3 299 292 298 
3 291 298 292 
3 306 307 308 
3 308 307 293 
3 309 307 306 
3 309 310 307 
3 307 310 298 
3 311 300 310 
3 303 312 302 
3 304 312 303 
3 305 309 304 
3 304 309 306 
3 305 311 309 
3 309 311 310 
3 294 292 313 
3 313 292 314 
3 294 313 315 
3 315 313 316 
3 317 316 318 
3 313 319 318 
3 316 313 318 
3 299 317 292 
3 292 317 314 
3 299 315 317 
3 317 315 316 
3 301 311 305 
3 300 311 301 
3 304 306 312 
3 312 306 308 
3 302 312 308 
3 319 317 318 
3 308 293 320 
3 320 293 295 
3 297 320 295 
3 310 320 298 
3 298 320 297 
3 293 307 298 
3 308 310 302 
3 302 310 300 
3 294 315 299 
3 313 314 317 
3 313 317 319 
3 294 299 296 
3 290 293 291 
3 291 293 298 
3 308 320 310 
3 321 322 323 
3 324 325 326 
3 326 325 327 
3 328 326 327 
3 329 328 330 
3 328 327 330 
3 331 332 333 
3 333 332 334 
3 334 332 335 
3 335 332 336 
3 323 325 321 
3 324 321 325 
3 330 323 329 
3 322 329 323 
3 337 338 339 
3 339 338 324 
3 340 338 337 
3 340 341 338 
3 338 341 329 
3 342 331 341 
3 334 343 333 
3 335 343 334 
3 336 340 335 
3 335 340 337 
3 336 342 340 
3 340 342 341 
3 325 323 344 
3 344 323 345 
3 325 344 346 
3 346 344 347 
3 348 347 349 
3 344 350 349 
3 347 344 349 
3 330 348 323 
3 323 348 345 
3 330 346 348 
3 348 346 347 
3 332 342 336 
3 331 342 332 
3 335 337 343 
3 343 337 339 
3 333 343 339 
3 350 348 349 
3 339 324 351 
3 351 324 326 
3 328 351 326 
3 341 351 329 
3 329 351 328 
3 324 338 329 
3 339 341 333 
3 333 341 331 
3 325 346 330 
3 344 345 348 
3 344 348 350 
3 325 330 327 
3 321 324 322 
3 322 324 329 
3 339 351 341 
3 352 353 354 
3 355 356 357 
3 357 356 358 
3 359 357 358 
3 360 359 361 
3 359 358 361 
3 362 363 364 
3 364 363 365 
3 365 363 366 
3 366 363 367 
3 354 356 352 
3 355 352 356 
3 361 354 360 
3 353 360 354 
3 368 369 370 
3 370 369 355 
3 371 369 368 
3 371 372 369 
3 369 372 360 
3 373 362 372 
3 365 374 364 
3 366 374 365 
3 367 371 366 
3 366 371 368 
3 367 373 371 
3 371 373 372 
3 356 354 375 
3 375 354 376 
3 356 375 377 
3 377 375 378 
3 379 378 380 
3 375 381 380 
3 378 375 380 
3 361 379 354 
3 354 379 376 
3 361 377 379 
3 379 377 378 
3 363 373 367 
3 362 373 363 
3 366 368 374 
3 374 368 370 
3 364 374 370 
3 381 379 380 
3 370 355 382 
3 382 355 357 
3 359 382 357 
3 372 382 360 
3 360 382 359 
3 355 369 360 
3 370 372 364 
3 364 372 362 
3 356 377 361 
3 375 376 379 
3 375 379 381 
3 356 361 358 
3 352 355 353 
3 353 355 360 
3 370 382 372 
3 383 384 385 
3 386 387 388 
3 388 387 389 
3 390 388 389 
3 391 390 392 
3 390 389 392 
3 393 394 395 
3 395 394 396 
3 396 394 397 
3 397 394 398 
3 385 387 383 
3 386 383 387 
3 392 385 391 
3 384 391 385 
3 399 400 401 
3 401 400 386 
3 402 400 399 
3 402 403 400 
3 400 403 391 
3 404 393 403 
3 396 405 395 
3 397 405 396 
3 398 402 397 
3 397 402 399 
3 398 404 402 
3 402 404 403 
3 387 385 406 
3 406 385 407 
3 387 406 408 
3 408 406 409 
3 410 409 411 
3 406 412 411 
3 409 406 411 
3 392 410 385 
3 385 410 407 
3 392 408 410 
3 410 408 409 
3 394 404 398 
3 393 404 394 
3 397 399 405 
3 405 399 401 
3 395 405 401 
3 412 410 411 
3 401 386 413 
3 413 386 388 
3 390 413 388 
3 403 413 391 
3 391 413 390 
3 386 400 391 
3 401 403 395 
3 395 403 393 
3 387 408 392 
3 406 407 410 
3 406 410 412 
3 387 392 389 
3 383 386 384 
3 384 386 391 
3 401 413 403 
3 414 415 416 
3 416 415 417 
3 418 419 420 
3 421 420 419 
3 421 419 422 
3 422 419 423 
3 424 425 423 
3 425 422 423 
3 426 427 428 
3 428 427 429 
3 426 430 427 
3 427 430 431 
3 418 420 416 
3 420 414 416 
3 424 417 425 
3 415 425 417 
3 428 422 432 
3 432 422 425 
3 428 429 422 
3 422 429 421 
3 429 433 421 
3 421 433 420 
3 426 428 432 
3 430 434 431 
3 430 426 434 
3 434 426 432 
3 435 436 437 
3 416 417 435 
3 418 416 438 
3 438 416 435 
3 436 439 437 
3 438 435 437 
3 439 438 437 
3 424 436 417 
3 417 436 435 
3 431 434 427 
3 427 434 433 
3 429 427 433 
3 439 418 438 
3 424 439 436 
3 434 440 433 
3 433 440 420 
3 434 432 440 
3 440 432 425 
3 420 425 414 
3 414 425 415 
3 418 424 419 
3 419 424 423 
3 418 439 424 
3 420 440 425 
